<svg xmlns="http://www.w3.org/2000/svg" viewBox="0 0 2849.4 401.9"><path d="M27.5,292.6c-0.1,25-0.1,49.9,0,74.9c16,0.1,32,0.1,48,0c0-24.3,0-48.6,0-72.9C59.5,294,43.4,294.6,27.5,292.6z"/>
    <path d="M794.1,348.1c-5.5,5.3-9.1,12.3-12,19.3c4-0.1,8.1-0.1,12.1,0C794,361,794.2,354.5,794.1,348.1z"/>
    <path d="M1729.7,35.6c-0.2,1.9-0.7,5.6-1,7.4c-0.3-2.3-2.3-5.3-1.8-7.3c-24.8-0.3-49.6-0.1-74.4-0.1c0.1,21.3-0.5,42.7,0.2,64
    c-0.2,6.7,2.7,12.7,4.2,19.1c-1.8-2.9-3.2-6.1-4.4-9.3c0.1,59.3-0.2,118.6,0.1,177.8c8.9,2,17.4,6.2,24.1,12.5
    c-8.6-2.6-16.1-7.7-24.2-11.3c-0.1,27.4,0,54.7,0,82.1c12.9,0,25.7,0,38.6-0.1c-0.1-3.4,0.1-6.9,0.6-10.3c0.5,2.6,1.6,7.7,2.1,10.3
    c3.8,0,7.8,0,11.7,0.1c0-19.4,0.4-38.8-0.4-58.1c-6.1-1.5-11.5-4.8-15.9-9.1c5.7,1.4,11,3.7,16.3,6.1c-0.1-13.6-0.1-27.3,0-40.9
    c22.6-0.1,45.3,0,68,0c0-16,0-32,0-48c-22.7-0.1-45.3,0-68,0c-0.1-45.7,0-91.3,0-137c29-0.1,58,0,87,0c0-16,0-32,0-48
    C1771.5,35.6,1750.6,35.6,1729.7,35.6z M1662.9,358.4c2.2,1.5,4.2,3.3,6,5.3C1666.6,362.4,1664.5,360.6,1662.9,358.4z M1684.1,301
    c0.8-1.2,3.2,0,2.5,1.4C1685.8,303.6,1683.3,302.4,1684.1,301z M1687.9,330.3c-2.6-4.7-4.2-10-4-15.4
    C1686.6,319.6,1688,324.9,1687.9,330.3z M1669.3,137.2c2.9-5.1,5.9-10.3,10.4-14.3C1678.9,129,1675,134.7,1669.3,137.2z
    M1682.3,316.4c-1.7,0.5-2.2,0-1.7-1.7C1682.2,314.2,1682.8,314.8,1682.3,316.4z M1683.2,357.4c0.8-0.3,2.5-0.8,3.4-1.1
    c0.1,2.6,0.2,5.3,0.4,8C1685.6,362,1684.3,359.8,1683.2,357.4z M1687.9,339.7c1.4-0.5,1.9,0,1.5,1.4
    C1687.9,341.6,1687.4,341.1,1687.9,339.7z M1689.5,342.2c1.4,5.2,2.5,10.5,2.5,16C1689.7,353.1,1688.7,347.6,1689.5,342.2z
    M1688.6,336.7c-1.3-0.7-1.3-1.4,0-2C1689.9,335.4,1689.9,336,1688.6,336.7z M1728.7,44.1c1.5,0,1.5,2.8,0,2.8
    C1727.2,46.8,1727.1,44.1,1728.7,44.1z M1731.3,80.2c-1.4,0.4-1.9-0.1-1.5-1.4C1731.2,78.3,1731.7,78.8,1731.3,80.2z M1730.2,75.1
    c-1.8-8.8-2-17.8-1.8-26.8C1730.8,57,1733.3,66.2,1730.2,75.1z M1734.1,62.1c-1.4,1.1-2.8-1.3-1.4-2.2
    C1734,58.8,1735.4,61.2,1734.1,62.1z M1750.4,59.6c0.4-1.7,0.8-3.4,1.3-5.1c0.9,1.7,1.9,3.3,3,5
    C1753.2,59.5,1751.8,59.5,1750.4,59.6z"/>
    <path d="M2804.5,35.6c-15.7-0.1-31.3-0.1-47,0c-0.2,16.7-0.3,33.3,0.7,49.9c-2,50.1,0.4,100.3-1.3,150.5
    c-18.6-66.6-35.8-133.6-53.6-200.4c-22.3-0.1-44.6-0.1-66.8,0c-0.1,111.6,0,223.3,0,334.9c16,0.1,32,0.1,48,0
    c0.3-81.1-0.5-162.3,0.4-243.4c22.5,80.9,43.4,162.3,65.5,243.4c18,0,36,0,54.1,0C2804.5,258.9,2804.5,147.3,2804.5,35.6z
    M2685.2,64.4c-1-2-1.5-4.2-1.6-6.4C2684.5,60,2684.9,62.2,2685.2,64.4z M2680.6,63.7c1.3-0.6,2.2,1.8,0.7,2.2
    C2679.9,66.4,2679.1,64.1,2680.6,63.7z M2685.4,73.5c-0.1,1-0.2,2.9-0.2,3.9c-2.3-1.3-4.4-2.6-6.5-4.1
    C2681,73.2,2683.2,73.3,2685.4,73.5z M2686.9,92.7c-1.1,1.4-2.2,2.8-3.3,4.2c0-1.3,0.1-2.6,0.3-3.8
    C2684.6,93,2686.2,92.8,2686.9,92.7z M2675.7,54.9c1.3-1.1,2.8,1.3,1.4,2.2C2675.7,58.1,2674.2,55.8,2675.7,54.9z M2677.5,93.3
    c-0.2-2.2-0.3-4.4-0.2-6.6C2677.9,88.9,2678.1,91.2,2677.5,93.3z M2672.6,65.1c1.3-1,2.8,1.2,1.6,2.2
    C2672.8,68.3,2671.2,66,2672.6,65.1z M2667.1,58c1.2-1,2.9,1.1,1.8,2.2C2667.6,61.2,2665.9,59,2667.1,58z M2663.3,85.8
    c1.1-1.1,3.1,0.8,2,2C2664.1,88.8,2662.3,86.9,2663.3,85.8z M2663.6,242c-0.1-0.3-0.4-1-0.6-1.3
    C2664.4,238.5,2666.1,242.6,2663.6,242z M2660.6,62.7c1.3,0.7,1.2,1.3,0,2C2659.2,64.1,2659.2,63.4,2660.6,62.7z M2656.7,74.8
    c0.7-0.1,2.2-0.2,2.9-0.2c-0.2,0.6-0.5,1.9-0.7,2.5c-1.2,0.2-2.3,0.5-3.4,0.7C2655.8,76.8,2656.3,75.7,2656.7,74.8z M2654.5,246.6
    c-1.7,0-3.4,0-5,0v-3c1.6,0,3.3,0,5,0V246.6z M2655.6,104.8c1.6-0.5,2.1,0,1.7,1.7C2655.6,106.9,2655.1,106.4,2655.6,104.8z
    M2657.6,238.7c-1.3-0.7-1.3-1.4,0-2C2658.9,237.4,2658.9,238,2657.6,238.7z M2659,148.1c-1.8,0.7-2.1-2.2-0.4-2.4
    C2660.3,145.1,2660.5,147.8,2659,148.1z M2658.6,131.7c-2-0.5-0.8-3.5,1-2.9C2661.6,129.3,2660.4,132.4,2658.6,131.7z
    M2662.3,290.3c-1.6,0.5-2.3-2.2-0.7-2.5C2663.2,287.3,2663.9,290,2662.3,290.3z M2665.3,264.4c-1.7,0.5-2.2,0-1.7-1.7
    C2665.2,262.2,2665.8,262.8,2665.3,264.4z M2666.8,178.9c-0.8,1.3-3.3,0.2-2.5-1.2C2665,176.5,2667.6,177.4,2666.8,178.9z
    M2668.9,83.2c-0.9,1.4-3.3-0.1-2.2-1.4C2667.6,80.4,2670,81.8,2668.9,83.2z M2670.3,63.4c-1.7,0.5-2.2,0-1.7-1.7
    C2670.2,61.2,2670.8,61.8,2670.3,63.4z M2672.8,97.8c1.5-0.8,3.4,2,1.5,2.7C2672.7,101.2,2670.8,98.6,2672.8,97.8z M2675.3,113.2
    c-1.5,0.4-1.9-0.1-1.5-1.4C2675.2,111.3,2675.7,111.8,2675.3,113.2z M2677.9,99c-1.3,1.3-3.4-0.8-2-2
    C2677,95.7,2679.2,97.8,2677.9,99z M2679.6,78.7c-1.4-0.7-1.3-1.4,0-2C2680.9,77.4,2680.9,78,2679.6,78.7z M2682.7,105
    c1.3-1.4,3.6,0.8,2.2,2.2C2683.5,108.6,2681.2,106.3,2682.7,105z M2688,119.3c-1.3,1.4-3.7-0.8-2.3-2.1
    C2686.9,115.8,2689.3,117.9,2688,119.3z M2689.8,87.3c0.9,1.8,1.7,3.7,2.6,5.5c-1-0.5-2-0.9-2.9-1.3
    C2689.5,90.1,2689.6,88.7,2689.8,87.3z M2690.6,101.1c1.3-1.1,2.8,1.2,1.6,2.2C2690.8,104.3,2689.2,102,2690.6,101.1z
    M2690.8,106.9c1.3-1.1,2.8,1.2,1.6,2.1C2691,110.1,2689.4,107.8,2690.8,106.9z M2694.3,126.4c-1.7,0.5-2.2-0.1-1.7-1.7
    C2694.2,124.2,2694.8,124.8,2694.3,126.4z M2691.7,114.6c-0.8-1.6,1.3-3,2.8-2.7C2696.2,113.1,2693,115.6,2691.7,114.6z
    M2698.4,103.1c-1.8-0.1-1.5-3.1,0.2-3C2700.3,100.2,2700,103.1,2698.4,103.1z M2699.8,88.4c-0.9,1.2-3-0.1-2-1.3
    C2698.5,86,2700.6,87.2,2699.8,88.4z M2697.1,72.4c0.5-1.4,1.1-2.7,1.8-4.1c0.4,1.5,1,2.9,1.5,4.4
    C2699.6,72.7,2698,72.5,2697.1,72.4z M2704,126.5c-1,1.3-3.3-0.3-2.1-1.6C2702.7,123.6,2704.9,125.2,2704,126.5z M2706.8,115.2
    c-1.6,1-3.4-1.6-2-2.8C2706.2,111.4,2707.9,114,2706.8,115.2z M2708.6,150.7c-1.3-0.7-1.3-1.4,0-2
    C2709.9,149.4,2709.9,150,2708.6,150.7z M2722.9,198.3c-1.8-3.7-2.6-7.7-1.2-11.6C2724.2,190.1,2725.8,194.5,2722.9,198.3z
    M2726.2,166c1.5-1,3.3,1.6,2,2.8C2726.6,169.8,2724.9,167.1,2726.2,166z M2730.3,234c-1.1-1.3-2.2-2.7-3.2-4.1
    c1.1-0.6,2.2-1.1,3.4-1.6C2730.4,230.2,2730.3,232.1,2730.3,234z M2735.7,240.1c1.1-0.9,2.5,1,1.5,1.9
    C2736,243,2734.5,241,2735.7,240.1z M2739.3,252.4c-1.7,0.5-2.2,0-1.7-1.7C2739.2,250.2,2739.8,250.8,2739.3,252.4z M2747.3,261.4
    c-1.7,0.5-2.2,0-1.7-1.7C2747.2,259.2,2747.8,259.8,2747.3,261.4z M2749.6,230.7c-1.4-0.7-1.3-1.4,0-2
    C2750.9,229.4,2750.9,230,2749.6,230.7z M2782.7,57.5c1.5-0.7,2.4,1.9,0.8,2.4C2781.9,60.5,2781,57.9,2782.7,57.5z M2791.8,83.2
    c-9.4,4.1-19.8,3.4-29.7,2.8C2771.5,82.3,2781.8,82.8,2791.8,83.2z M2777.6,93.7c-1.3-0.7-1.3-1.4,0-2
    C2778.9,92.4,2778.9,93,2777.6,93.7z M2760.1,307.6c-0.3-1.4-0.6-2.8-0.8-4.2c1.5,0.9,3,1.7,4.6,2.6
    C2762.6,306.6,2761.3,307.1,2760.1,307.6z M2766.8,301.4c-2.5-2.5-4.1-5.6-4.9-9c2.2,1.4,4.5,2.8,6.8,4.2
    C2768.1,298.2,2767.3,299.8,2766.8,301.4z M2769.6,238.7c-1.4-0.7-1.3-1.4,0-2C2770.9,237.4,2770.9,238,2769.6,238.7z
    M2771.6,100.7c-1.3-0.7-1.3-1.4,0-2C2772.9,99.4,2772.9,100,2771.6,100.7z M2774.9,354.3c-1.3,0.9-2.6-1.3-1.3-2
    C2774.8,351.4,2776,353.5,2774.9,354.3z M2772.7,292.3c1.8-1.7,3.9-2.5,5.7-0.3C2776.5,292.1,2774.6,292.2,2772.7,292.3z
    M2778,177.9c0.8-1.2,2.8,0.3,1.9,1.5C2779,180.4,2777,179,2778,177.9z M2781.5,347.9c-1.6,0.6-2.5-1.9-0.8-2.4
    C2782.2,344.8,2783.1,347.4,2781.5,347.9z M2785.3,102.2c-1.5,0.4-1.9-0.1-1.5-1.5C2785.2,100.3,2785.7,100.8,2785.3,102.2z
    M2786.6,125c-0.1-0.3-0.4-1-0.6-1.3C2787.4,121.5,2789.1,125.6,2786.6,125z M2790.7,128.1c1.1-0.9,2.5,1,1.5,1.9
    C2791,131,2789.5,129,2790.7,128.1z M2794.5,326.5c-1.1,0.4-2.2,0.8-3.2,1.3c0.3-1.8,0.7-3.6,1-5.4c0.7,0.2,2.1,0.6,2.9,0.7
    C2794.9,324.2,2794.6,325.4,2794.5,326.5z M2799.9,82.1c-0.9,1.2-2.9-0.2-1.9-1.3C2798.8,79.5,2800.9,80.8,2799.9,82.1z"/>
    <path d="M2367.5,35.6c-0.1,111.6,0,223.3,0,334.9c17.6,0.1,35.3,0.1,53,0c0-111.7,0-223.3,0-335
    C2402.8,35.5,2385.1,35.6,2367.5,35.6z M2391,77.9c0.8-1.2,2.8,0.3,1.9,1.5C2392,80.4,2390,79,2391,77.9z M2389.3,106.4
    c-1.7,0.5-2.2,0-1.7-1.7C2389.2,104.2,2389.8,104.8,2389.3,106.4z M2389.3,279.4c-1.7,0.5-2.2,0-1.7-1.7
    C2389.2,277.2,2389.8,277.8,2389.3,279.4z M2387.4,95.2c1.8,0.5,3.6,1.1,5.4,1.7c-1.1,0.5-2.2,1.1-3.3,1.6
    C2388.8,97.5,2388.1,96.3,2387.4,95.2z M2385.9,90.3c1.1-1.1,3.5,0.5,2.8,1.9C2387.6,93.3,2385.1,91.7,2385.9,90.3z M2378.5,302.5
    c-1.7,0-1.6-2.7,0.1-2.7C2380.2,299.8,2380.1,302.6,2378.5,302.5z M2383.6,246.8c1.6-0.5,2.1,0,1.7,1.7
    C2383.6,248.9,2383.1,248.4,2383.6,246.8z M2387.7,359.4c-1.2,1.1-3.2-0.8-2-2C2386.7,356.4,2388.6,358.3,2387.7,359.4z
    M2389.4,346.1c-1.4,1-2.9-1.2-1.6-2.2C2389.1,342.8,2390.6,345.1,2389.4,346.1z M2390.6,196.8c1.6-0.5,2.1,0,1.7,1.7
    C2390.6,198.9,2390.1,198.4,2390.6,196.8z M2392.3,263.3c-1.6,0.5-2.3-2.2-0.7-2.5C2393.2,260.3,2393.9,263,2392.3,263.3z
    M2396.8,61.7c0.8-1.2,2.9,0.1,1.8,1.3C2397.8,64.2,2395.7,62.9,2396.8,61.7z M2396.9,222.7c1.4-0.5,1.8,0,1.4,1.4
    C2396.9,224.6,2396.4,224.1,2396.9,222.7z M2396.7,92.1c1.5,0,1.5,2.8,0,2.8C2395.2,94.8,2395.1,92.1,2396.7,92.1z M2395.6,71
    c-0.1-0.3-0.4-1-0.6-1.3C2396.4,67.5,2398.1,71.6,2395.6,71z M2397.3,339.4c-1.7,0.5-2.2,0-1.7-1.7
    C2397.2,337.2,2397.8,337.8,2397.3,339.4z M2396.7,253c0.7,0,2,0.1,2.7,0.1c-0.4,1.6-0.8,3.2-1.1,4.8
    C2397.6,256.3,2397.1,254.7,2396.7,253z M2401.1,317.1c-1-1.3-1.9-2.6-2.7-3.9c0.7-0.1,2.1-0.3,2.7-0.4
    C2401.1,314.3,2401.1,315.7,2401.1,317.1z M2401.9,158.7c1.4-0.4,1.8,0,1.5,1.4C2401.9,160.6,2401.4,160.1,2401.9,158.7z
    M2405.3,313.4c-1.7,0.5-2.2,0-1.7-1.7C2405.2,311.2,2405.8,311.8,2405.3,313.4z M2406.1,150c-0.7,0.2-2,0.6-2.6,0.8
    c-0.1-1.5-0.1-2.9,0-4.3c0.7,0.2,2,0.6,2.6,0.8C2406.1,148.1,2406.1,149.1,2406.1,150z"/>
    <path d="M727.5,121.6c-0.2-20.8-2-43.2-14.1-60.8c-2.9-4.7-7.5-8.1-12.8-9.6c-2.6-0.4-2.1-3.2-2.3-5.2c-12.4-8.9-27.7-13-42.8-13.2
    c-28.3-0.5-56.5-0.1-84.7-0.2c0.3,8.2-0.2,16.4-0.2,24.6c5.1,0.5,10.4,0.9,15.5,1.8c-5,0.9-10.1,0.2-15.1-0.1
    c2.1,0.8,4.2,1.5,6.4,2.2c0,0.6,0.1,1.9,0.2,2.5c-2.3-0.6-4.6-1.2-6.9-1.9c-0.1,101.9-0.1,203.8-0.1,305.7c17.6,0.1,35.3,0.1,53,0
    c0.1-21.7,0-43.3,0-64.9c22.2-0.1,47.1,1.6,67.4-8.7c-3.5-4-5.5-9.3-5.9-14.6c3.1,4.3,5.2,9.3,5.9,14.6c3-1.5,5.8-3.3,8.6-5.3
    c8.4-6.7,15.5-15.3,19.8-25.2c5.4-11.5,6.9-24.4,8-36.9C727.8,191.6,727.3,156.6,727.5,121.6z M574.9,42.2
    c-1.3,1.5-3.6-0.8-2.2-2.1C574,38.6,576.3,40.8,574.9,42.2z M583.6,50.7c-1.3-0.7-1.3-1.4,0-2C584.9,49.4,584.9,50,583.6,50.7z
    M610.3,64.4c0.1,1.3,0.2,2.6,0.3,3.9c-1.8-0.9-3.5-1.7-5.3-2.5C607,65.4,608.6,64.9,610.3,64.4z M608.6,88.7c-1.3-0.7-1.3-1.4,0-2
    C609.9,87.4,609.9,88,608.6,88.7z M604.9,81.8c-3-1-6-2.1-8.9-3.5c1.5-0.6,2.9-1.1,4.4-1.6C601.9,78.4,603.4,80.1,604.9,81.8z
    M596,55.1c1.1-0.2,2.3-0.4,3.4-0.6c0,0.8,0.1,2.4,0.1,3.2c-1.4,0-2.8-0.1-4.2-0.1C595.5,56.9,595.8,55.7,596,55.1z M600.2,67.4
    c-0.1,1-0.1,2-0.2,3c-0.8,0.4-1.5,0.8-2.3,1.2c0.6,2,0.4,4.1-0.4,6c-0.8-2.6-1.5-5.2-2.2-7.8C596.8,68.9,598.5,68.2,600.2,67.4z
    M589.6,129.7c1.3,0.7,1.3,1.3,0,2C588.3,131.1,588.3,130.4,589.6,129.7z M586.6,318.8c1.6-0.5,2.2,0,1.7,1.7
    C586.7,320.9,586.1,320.4,586.6,318.8z M585.9,287c1.2-1.3,3.4,0.8,2,2C586.7,290.3,584.6,288.2,585.9,287z M588.6,150.7
    c1.3,0.7,1.3,1.3,0,2C587.3,152.1,587.3,151.4,588.6,150.7z M587.5,140.5c-1.7,0-1.5-2.7,0.1-2.7
    C589.3,137.8,589.1,140.6,587.5,140.5z M584.9,90c-0.8-1,0.5-2.4,1.7-2.1C588.5,88.6,586.2,91.4,584.9,90z M586.2,63.1
    c0.1,0.9,0.3,2.7,0.3,3.6c-1.6-0.2-3.1-0.4-4.6-0.6C583.3,65.1,584.8,64.1,586.2,63.1z M583.6,67.5c-0.5,1-1,2.1-1.5,3.2
    c-3.4-0.6-6.9-1.3-10.2-2.3C574.8,68.2,580.6,67.7,583.6,67.5z M577.9,97.4c-1.7,0-3.4-0.1-5.1-0.1c0.1-0.7,0.2-2,0.3-2.7
    C574.7,95.5,576.3,96.4,577.9,97.4z M584.4,331.7c-4.4-4.8-9.7-9-12.5-15c7.6,6.2,13.6,14,20.6,20.9c1.6,1.7,3,3.5,4.3,5.5
    C591.9,340.3,588.3,335.7,584.4,331.7z M596.9,145.2c-0.9,1.4-3.2-0.1-2.1-1.4C595.7,142.4,598,143.8,596.9,145.2z M599.6,116.7
    c1.3,0.7,1.3,1.3,0,2C598.3,118.1,598.3,117.4,599.6,116.7z M602.2,349c-1.2-1.9-1.9-4-2.7-6c3.6,2.4,6.6,5.6,9.4,8.9
    C606.6,351,604.1,350.5,602.2,349z M612,355.8c-1.4,0.7-3.6-1.4-2.8-2.8C610.7,352.1,612.9,354.4,612,355.8z M612.6,61.7
    c-1.3-0.7-1.3-1.4,0-2C613.9,60.4,613.9,61,612.6,61.7z M619.6,60.7c-1.3-0.7-1.3-1.4,0-2C620.9,59.4,620.9,60,619.6,60.7z
    M656.9,48.7c1.4-0.5,1.9,0,1.5,1.4C656.9,50.6,656.4,50.1,656.9,48.7z M647.6,49.9c1.5,0,1.2,2.4-0.2,2.4
    C645.9,52.3,646.1,49.8,647.6,49.9z M648.6,58.9c2.2,1.1-1,3.9-2.3,2.1C645.3,59.7,647.4,58.4,648.6,58.9z M637.5,52.9
    c2,0.7-0.4,3.5-1.7,2.1C635.1,53.9,636.4,52.5,637.5,52.9z M624.7,57.7c1.9-0.6,2.2,2.4,0.5,2.7C623.2,60.9,622.9,57.9,624.7,57.7z
    M667.5,282.6c-1.7,0.5-2.6-2.3-0.8-2.8C668.3,279.3,669.2,282.2,667.5,282.6z M674.5,223.6c0.1,9.7-1.7,20.9-10,27
    c-12.4,7-27.5,2.9-41.1,3.9c0-58,0-116,0-174c12.6,0.4,25.6-1.6,37.9,2.1c10,4.4,12.8,16.1,12.9,26
    C674.8,146.9,674.3,185.3,674.5,223.6z M680.2,59.1c-0.8,1.1-2.9-0.1-2-1.3C678.9,56.5,681,57.8,680.2,59.1z M683.3,261.9
    c-1.4,0.5-2.2-1.8-0.7-2.2C684,259.1,684.8,261.5,683.3,261.9z M685.9,119c-1.2,1-2.5-1.1-1.3-1.9
    C685.8,116.2,687.2,118.2,685.9,119z M695.9,99.3c-0.9,1.1-2.9-0.3-1.9-1.5C694.9,96.7,696.8,98.2,695.9,99.3z M700.3,99.3
    c-1.5,1.2-3.1-1.4-1.6-2.4C700.1,95.7,701.8,98.3,700.3,99.3z"/>
    <path d="M2158.4,245.6c-16.7-0.1-33.3-0.1-50,0c-0.2,17.6,0.4,35.3-0.2,53c-0.3,8-2.4,16.7-8.8,22.1c-10.2,7.5-25.1,7.1-35.5,0.5
    c-8.5-6.7-9.8-18.5-9.6-28.5c0.1-60,0-120,0-180.1c-0.1-9.6,1.4-20.3,8.7-27.3c7.4-5.8,17.4-7.1,26.3-4.7
    c10.8,1.4,17.4,12.3,18.6,22.3c0.9,15.2,0.2,30.4,0.4,45.7c16.6,0.1,33.3,0.1,50,0c-0.2-20.3,1.5-40.9-3-60.9
    c-3.7-18-13.8-35.6-30-45c-21.5-12.5-48-13.7-71.8-7.9c-12.7,3.1-23.7,10.5-33.4,19c6.1,7.6,12.4,15,18.4,22.8
    c5.4,7.5,15.5,11.7,17.3,21.5c-14.2-12.3-23.6-29-36.9-42.2c-6.6,9.7-12.2,20.2-14.4,31.8c-4.3,16.3-2.8,33.3-3,49.9
    c0.1,50,0,100,0,150c0.1,20.6,2.9,42.5,15.4,59.6c11.9,17,32.7,25.1,52.7,27.2c19,1,39.1-1,55.8-10.9c13.2-7.5,22.2-20.7,27.2-34.8
    C2162.1,302,2157.4,273.3,2158.4,245.6z M2126.2,116.1c-1.2,0.9-2.7-1.1-1.5-1.9C2125.8,113.2,2127.3,115.2,2126.2,116.1z
    M2131.6,106.9c1.5,0,1.2,2.4-0.2,2.4C2129.8,109.3,2130.1,106.8,2131.6,106.9z M2125.8,76.3c0.6,1.9,1.2,3.8,1.8,5.7
    c-1.7-1.2-3.3-2.5-4.8-3.9C2123.6,77.7,2125,76.8,2125.8,76.3z M2121.6,70.8c1.6-0.5,2.1,0,1.7,1.7
    C2121.6,72.9,2121.1,72.4,2121.6,70.8z M2019.8,136.4c-1.5,0.1-3,0.2-4.4,0.3c0.1-0.9,0.2-2.6,0.3-3.5
    C2017.1,134.2,2018.4,135.3,2019.8,136.4z M2014.8,121.8c0.9-1.5,3.5,0.2,2.4,1.6C2016.1,124.9,2013.6,123.2,2014.8,121.8z
    M2014,155c0.8-1.4,3.5-0.1,2.7,1.4C2015.8,157.8,2013,156.6,2014,155z M2017.4,278.6c-1.1,1.4-3.1-0.6-1.7-1.7
    C2016.9,275.5,2018.9,277.4,2017.4,278.6z M2020.1,270.3c-1,1.3-3.2-0.3-2.1-1.6C2018.9,267.4,2021.2,268.9,2020.1,270.3z
    M2040.8,159.3c1.1-1,3,0.8,2,2C2041.6,162.3,2039.7,160.4,2040.8,159.3z M2041.3,302.4c-1.7,0.5-2.2,0-1.7-1.7
    C2041.2,300.2,2041.8,300.8,2041.3,302.4z M2042.3,311.2c-1.4,0.4-1.9-0.1-1.5-1.4C2042.2,309.3,2042.7,309.8,2042.3,311.2z
    M2042.7,324.9c-1.3-2.1-2.4-4.4-3.3-6.8C2040.7,320.3,2041.8,322.5,2042.7,324.9z M2037.2,253.6c-1.4-0.9-2.7-1.9-4.1-2.8
    c2.2,0.1,4.4,0.2,6.6,0.3C2038.9,252,2038,252.8,2037.2,253.6z M2036.6,303.9c1.5,0,1.2,2.4-0.2,2.4
    C2034.8,306.3,2035.1,303.8,2036.6,303.9z M2035.6,283.8c1.6-0.5,2.1,0,1.7,1.7C2035.6,285.9,2035.1,285.4,2035.6,283.8z
    M2036.9,244.2c1.5-1.1,3.4,1.4,2,2.6C2037.4,248,2035.6,245.4,2036.9,244.2z M2033,176.9c1.3-1.2,3.3,1,2,2.2
    C2033.7,180.3,2031.8,178.1,2033,176.9z M2032.6,180.8c1.6-0.5,2.1,0,1.7,1.7C2032.6,182.9,2032.1,182.4,2032.6,180.8z
    M2034.3,208.2c-1.4,0.4-1.9-0.1-1.5-1.4C2034.2,206.3,2034.7,206.8,2034.3,208.2z M2033.1,231.8c1.6-0.5,2.2,2.3,0.6,2.6
    C2032.2,234.8,2031.7,232.2,2033.1,231.8z M2032.8,301.8c1.8-1.3,3.1,1.6,1.2,2.4C2032.2,305.6,2030.9,302.6,2032.8,301.8z
    M2030.6,208.9c1.6-0.1,1.5,2.7-0.1,2.7C2028.8,211.5,2029,208.8,2030.6,208.9z M2028.5,236.6c-1.7,0.5-2.6-2.3-0.8-2.8
    C2029.3,233.3,2030.2,236.2,2028.5,236.6z M2026.7,187.9c1.4-1.2,3.1,1.3,1.6,2.4C2026.8,191.4,2025.1,188.9,2026.7,187.9z
    M2023.6,145.1c1.3-1,2.8,1.2,1.6,2.2C2023.8,148.3,2022.2,146,2023.6,145.1z M2023.7,301c1.3-1.4,3.6,0.8,2.2,2.2
    C2024.5,304.6,2022.2,302.3,2023.7,301z M2024.7,316.5c1.4-0.6,2.3,1.9,1.2,2.7C2024.3,319.8,2023.3,317.2,2024.7,316.5z
    M2026.3,332.4c-1.7,0.5-2.2,0-1.7-1.7C2026.2,330.2,2026.8,330.8,2026.3,332.4z M2027.7,307.8c-1.4-0.3-2-2.5-0.9-3.5
    C2028.7,303.5,2029.7,307.6,2027.7,307.8z M2028.9,296.7c1.4-0.5,1.8,0,1.5,1.4C2028.9,298.6,2028.4,298.1,2028.9,296.7z
    M2033.3,341.2c-1.4,0.4-1.9-0.1-1.5-1.4C2033.2,339.3,2033.7,339.8,2033.3,341.2z M2043.9,344c-1.3,1.3-3.4-0.8-2-2
    C2043,340.7,2045.2,342.8,2043.9,344z M2035.8,333.2c-2.2-1.1-3.7-3.1-5.3-4.7c2.4-1.7,4.9-3.2,7.5-4.6c2,2.7,4.2,5.2,6.5,7.6
    C2041.5,332.1,2038.7,333.2,2035.8,333.2z M2057.6,355.7c-1.3-0.7-1.3-1.4,0-2C2058.9,354.4,2058.9,355,2057.6,355.7z
    M2065.7,346.9c-1.4,1.1-3.2-1.3-2-2.5C2065,343.6,2066.8,345.8,2065.7,346.9z M2069.2,356.1c-1.2,0.9-2.7-1.1-1.5-1.9
    C2068.8,353.2,2070.3,355.2,2069.2,356.1z M2073.8,338.8c0.8-1.4,3.2,0,2.1,1.4C2075,341.6,2072.7,340.1,2073.8,338.8z
    M2076.7,361.3c-1.7-0.5-0.6-2.9,0.9-2.5C2079.2,359.3,2078.1,361.8,2076.7,361.3z M2081.3,347.4c-1.7,0.5-2.2,0-1.7-1.7
    C2081.2,345.2,2081.8,345.8,2081.3,347.4z M2124.9,276.7c1.4-0.5,1.8,0,1.5,1.4C2124.9,278.6,2124.4,278.1,2124.9,276.7z
    M2084.3,351.9c1.2-1.3,3.8,0.5,2.8,2C2085.9,355.1,2083.3,353.4,2084.3,351.9z M2082.2,358.2c1.2-1,2.5-1.9,3.8-2.8
    c0.4,1,0.9,2,1.4,3.1C2085.7,358.3,2083.9,358.2,2082.2,358.2z M2092.6,347.8c-0.3-2-0.6-4-0.8-6c1.9,0.8,3.9,1.8,5.9,2.6
    C2096,345.6,2094.3,346.7,2092.6,347.8z M2100.3,348.3c-1.5,1.2-3.2-1.4-1.6-2.4C2100.1,344.7,2101.7,347.3,2100.3,348.3z
    M2108.9,351.8c-1.2,1.1-2.6-1.1-1.3-1.9C2108.7,348.9,2110.1,351,2108.9,351.8z M2109.3,342.3c-1.5,1.2-3.2-1.4-1.6-2.4
    C2109.1,338.7,2110.7,341.3,2109.3,342.3z M2115.6,318.7c-1.3-0.7-1.3-1.4,0-2C2116.9,317.4,2116.9,318,2115.6,318.7z
    M2120.7,284.1c1.5-0.1,1.4,2.4,0,2.4C2119.1,286.6,2119.2,284.1,2120.7,284.1z M2121.8,320.7c0.2-0.3,0.6-0.8,0.8-1.1
    C2125.9,319,2122.6,323.8,2121.8,320.7z M2125.4,318.7c-1.6-0.2-3.1-0.4-4.5-0.6c1.9-1,3.8-1.8,5.8-2.6
    C2126.2,316.5,2125.8,317.6,2125.4,318.7z M2127.4,309.1c-1.3,1-2.9-1.2-1.6-2.2C2127.1,305.8,2128.6,308.1,2127.4,309.1z
    M2133.4,278.1c-0.9,2.2-1.9,4.3-2.8,6.4c-1.3-2.2-1.7-4.7-1.8-7.1C2130.3,277.6,2131.8,277.9,2133.4,278.1z M2129.6,297
    c2-0.2,4-0.4,6-0.7c0.1,0.9,0.3,1.8,0.6,2.8c-1.7,0.1-5,0.4-6.7,0.6C2129.5,299,2129.6,297.6,2129.6,297z M2131.3,339.2
    c-1.4,0.4-1.9-0.1-1.5-1.5C2131.2,337.3,2131.7,337.8,2131.3,339.2z M2132.3,312.4c-1.7,0.5-2.2,0-1.7-1.7
    C2132.2,310.2,2132.8,310.8,2132.3,312.4z M2136.3,313.2c-1.4,0.4-1.9-0.1-1.5-1.4C2136.2,311.3,2136.7,311.8,2136.3,313.2z
    M2134.3,276.3c-0.9-1.4,1-2.8,2.3-2.4C2138.7,275,2135.6,277.9,2134.3,276.3z M2138.6,286.7c-1.3-0.7-1.3-1.4,0-2
    C2139.9,285.4,2139.9,286,2138.6,286.7z M2141.9,284.3c-0.9,1.1-2.9-0.3-1.9-1.5C2140.8,281.7,2142.8,283.2,2141.9,284.3z"/>
    <path d="M354.1,352.7c4.5,2.5,9.1,5,13.4,7.8c0-13.6,0-27.3-0.1-40.9c-20.1-0.1-40.1-0.1-60.2,0.1c4.3,2.4,8.6,5,11.6,9
    c-5.7-2.5-10.7-6.5-16.6-8.7c-8.6-0.9-17.2-0.5-25.8-0.5c-0.1-17-0.1-33.9,0-50.9c24-0.1,48,0,72,0c0.1-16,0.1-32,0-48
    c-24-0.1-48,0-72,0c0-46.7,0-93.3,0-140c20.2-0.1,40.4,0,60.6,0c-0.2-1.4-0.4-2.8-0.6-4.2c1.6,1.4,2.7,3.8,5,4.1
    c8.6,0.5,17.3,0.1,26,0.1c0-6.9,0-13.8-0.1-20.7c-1,0.1-1.9,0.2-2.9,0.4c3.4-8.8,3.2-18.3,3.1-27.6c-11.3-0.1-22.5-0.1-33.8-0.1
    c0.8,5.1,1.8,10.1,1.8,15.3c0.2,9.5,1.7,19,2,28.5c-2.4-5-2.7-10.7-3.8-16.1c-1.8-9.1-1.9-18.4-2.4-27.6c-36-0.1-72-0.1-107.9,0
    c0,111.7,0,223.3,0,335c48.3-0.2,96.7,0.6,145-0.4C364.8,361.2,357.9,358.5,354.1,352.7z M300.6,239.6c0.9,0.1,2.6,0.2,3.4,0.3
    c-1.4,1.4-2.7,2.8-4.1,4.2C300.1,242.6,300.4,241.1,300.6,239.6z M285.5,253.5c0.8,1.7,1.6,3.4,2.3,5.1c-1.4-0.1-2.7-0.1-4.1-0.1
    c-0.8-1.3-1.5-2.5-2.3-3.7C282.8,254.3,284.2,253.8,285.5,253.5z M343.4,56.7c-0.1,0.9-0.2,2.6-0.3,3.4c-1.4-1.4-2.9-2.7-4.2-4.1
    C340.4,56.2,341.9,56.5,343.4,56.7z M315.6,52.8c1.6-0.5,2.2,0,1.7,1.7C315.7,54.9,315.1,54.4,315.6,52.8z M250.9,52.7
    c1.4-0.4,1.9,0,1.4,1.5C250.9,54.6,250.4,54.1,250.9,52.7z M250.8,154.2c0.2,1.5,0.4,2.9,0.6,4.4c-0.8,0-2.5-0.1-3.3-0.2
    C249,157,249.9,155.6,250.8,154.2z M236.6,140c1.2-1.1,2.5,1,1.3,1.9C236.8,142.9,235.4,140.8,236.6,140z M241,230.5
    c-2-0.5-4-1.1-6-1.8C237,229.2,239,229.8,241,230.5z M232.3,315.6c0.2-1.9,0.5-3.8,0.7-5.7c1.1,1.7,2.1,3.6,3.1,5.4
    C235.1,315.4,233.2,315.6,232.3,315.6z M236.6,252.8c1.6-0.5,2.2,0,1.7,1.7C236.7,254.9,236.1,254.4,236.6,252.8z M239.9,345
    c-1.2,1-2.5-1.1-1.3-1.9C239.8,342.2,241.2,344.2,239.9,345z M241.6,272.7c-1.3-0.7-1.3-1.4,0-2C242.9,271.4,242.9,272,241.6,272.7
    z M248,257.3c-1.3-1.6-3.9-4.9-5.3-6.5c3.8-3.2,8.1-1.3,11.7,1.2C252.5,254,250.3,255.7,248,257.3z M258.2,328.5
    c-1.8,0.6-2.4-2.4-0.7-2.7C259.3,325.2,260,328.1,258.2,328.5z M260.7,55.3c0.1-2.3,0.3-4.6,0.5-6.9c0.7,0.4,2.1,1.2,2.8,1.7
    C263,51.8,261.9,53.6,260.7,55.3z M298.6,339.7c-1.3-0.7-1.3-1.4,0-2C299.9,338.4,299.9,339,298.6,339.7z M324.3,347.2
    c-1.4,0.4-1.9-0.1-1.4-1.4C324.3,345.3,324.8,345.8,324.3,347.2z M329.7,351.3c-1.2-2,0.5-4.2,1.1-6.2c2.5,2.8,4.3,6,4.6,9.9
    C333.3,354,331.1,353.1,329.7,351.3z M331.6,340.2c-4.1-3.9-8.2-7.7-12.4-11.5c9.1,4.1,17.2,10.2,23.7,17.8
    C339,344.5,335,342.8,331.6,340.2z M348.5,350.5c0.1-0.8,0.2-2.5,0.2-3.4c1.3,1.5,2.6,3,3.9,4.5
    C351.3,351.2,349.9,350.8,348.5,350.5z"/>
    <path d="M1054.8,32.7c-2.8,10-5.6,19.9-7.3,30.2c1.4,0.8,2.8,1.6,4.2,2.4c-1.7-0.2-3.5-0.4-5.2-0.6c-11,40.1-20.7,80.5-31.8,120.5
    c-4.7-11.8-6.9-24.4-10.2-36.6c-10-38.7-20.2-77.3-30.2-116c-18.4,0.3-36.7,0.4-55.1,0c19.3,65.7,39.1,131.2,58.4,196.9
    c3.6,12.4,8.7,24.8,7.9,38.1c-0.1,33.3-0.1,66.7-0.1,100c17.7,0.3,35.3-0.2,53-0.3c0.2-34.3-0.2-68.5,0.1-102.7
    c-0.6-10.6,3.8-20.3,6.6-30.3c15-51.2,30.8-102.2,45.4-153.6c-1.3,0.7-2.1,0.4-2.4-0.9c1.1-0.8,1.9-0.5,2.4,0.9
    c4.4-12.3,7.3-25.1,11.7-37.4c0.3,12.4,0.3,24.9,0.3,37.3c18.3,0,36.6,0,54.9,0c0,58,0.1,116-0.1,174c0,8.3-0.1,17,2.7,25
    c-0.9-0.2-1.7-0.5-2.5-0.7c-0.1,29.5,0,59.1,0,88.7c17.8,0,35.6,0.1,53.4-0.1c-0.5-9.8-6.5-17.9-11.4-26
    c-4.1-7.6-9.8-14.4-12.8-22.6c4.3,4.1,6.8,9.6,9.8,14.6c4.3,7.3,9,14.3,13.8,21.3c0.2-91.4,0-182.8,0.1-274.2c18.3,0,36.6,0,55,0
    c0.1-16,0.1-32,0-48C1195.2,32.6,1125,32.5,1054.8,32.7z M948.6,53.7c-1.3-0.7-1.3-1.4,0-2C949.9,52.4,949.9,53,948.6,53.7z
    M1036.6,184.7c1.3,0.7,1.3,1.3,0,2C1035.3,186.1,1035.3,185.4,1036.6,184.7z M1031.6,195.8c1.6-0.5,2.2,0,1.7,1.7
    C1031.7,197.9,1031.1,197.4,1031.6,195.8z M1030.9,234.7c1.4-0.5,1.9,0,1.4,1.4C1030.9,236.6,1030.4,236.1,1030.9,234.7z
    M1025.9,201c0.6,0,1.7,0,2.2,0c0,1,0,2,0,3c-0.7,0.2-2.1,0.5-2.8,0.7C1025.5,203.4,1025.7,202.2,1025.9,201z M1019.9,225.7
    c1.4-0.5,1.9,0,1.4,1.4C1019.9,227.6,1019.4,227.1,1019.9,225.7z M1018.6,214.9c1.5,0,1.2,2.4-0.2,2.4
    C1016.9,217.3,1017.1,214.8,1018.6,214.9z M1007.6,205.1c1.2-0.9,2.5,1.1,1.3,1.9C1007.7,208,1006.4,205.9,1007.6,205.1z
    M1008.6,299.7c-1.3-0.7-1.3-1.4,0-2C1009.9,298.4,1009.9,299,1008.6,299.7z M1011.4,317.2c0,0.8-0.1,2.3-0.1,3.1
    c-0.6,0.4-1.9,1.3-2.6,1.7c-0.7-1-1.4-1.9-2-2.9C1008.3,318.4,1009.8,317.8,1011.4,317.2z M997.2,212.7c1,2.2,1,4.5,0,6.7
    C997.1,217.2,997.1,215,997.2,212.7z M999.6,228.5c0.2,2.1,0.3,4.3,0.5,6.4c-1.4-1-2.7-1.9-4.1-2.8
    C997.2,230.9,998.4,229.7,999.6,228.5z M999.1,212.1c1.7-0.7,3.5-1.3,5.3-2c0,0.9,0.1,2.9,0.1,3.8
    C1002.6,213.3,1000.8,212.7,999.1,212.1z M993.3,262.2c-1.3-6.8,4.7-11.4,9.5-15C1000.8,252.9,997,257.5,993.3,262.2z
    M1002.3,303.4c-1.6,0.5-2.2,0-1.7-1.7C1002.3,301.2,1002.8,301.8,1002.3,303.4z M1004.1,283.1c-1.4,1.1-2.8-1.3-1.4-2.2
    C1004,279.8,1005.5,282.2,1004.1,283.1z M1003.6,210c-0.1-0.3-0.4-1-0.6-1.3C1004.4,206.5,1006.2,210.6,1003.6,210z M1008.4,335.1
    c-1.3,1-2.9-1.2-1.6-2.2c1-0.8,2.1,0.3,2,1.3c0.7-0.5,2.2-1.4,2.9-1.9c0.7,1.9,1.3,3.8,1.8,5.7c-1.6-1.2-3.2-2.5-4.8-3.9
    C1008.8,334.5,1008.7,334.8,1008.4,335.1z M1013.5,269.9c-1.6,0.6-2.5-1.9-0.8-2.4C1014.2,266.8,1015.1,269.4,1013.5,269.9z
    M1016.2,340.1c-1.2,0.9-2.6-1.1-1.5-1.9C1015.9,337.2,1017.3,339.2,1016.2,340.1z M1017.6,299.7c-1.3-0.7-1.3-1.4,0-2
    C1018.9,298.4,1018.9,299,1017.6,299.7z M1023.6,340.1c-2,0.2-1.7-2.7,0.1-2.6C1025.7,337.2,1025.5,340.3,1023.6,340.1z
    M1028.2,299.5c-2.6-4-4.1-8.6-4.9-13.2c-3.6-6.4-5.6-13.6-7.4-20.7c3.8,6.3,6.8,13.3,7.4,20.6
    C1027,289.6,1028.4,294.6,1028.2,299.5z M1030.7,300.1c2.4,3.8,4.2,8,5.7,12.3C1031.6,310.1,1029.9,305.1,1030.7,300.1z
    M1036.7,316.8c-1.4-0.3-2-2.5-0.9-3.5C1037.8,312.5,1038.8,316.6,1036.7,316.8z M1049.9,172.3c-0.9,1.1-2.9-0.3-1.9-1.5
    C1048.9,169.7,1050.8,171.2,1049.9,172.3z M1046,120.4c2.2,0.7,4.2,1.8,6.1,3.2C1050,122.7,1047.9,121.7,1046,120.4z M1052.3,120.4
    c-1.6,0.5-2.2-0.1-1.7-1.7C1052.3,118.2,1052.8,118.8,1052.3,120.4z M1051.8,66c8.4,1.4,17.6,3.3,23.3,10.2
    C1067,73.9,1058.7,71.2,1051.8,66z M1076.5,56.8c-2.1,0-1.9-3.2,0.1-2.9C1078.5,53.8,1078.6,57.1,1076.5,56.8z M1080,77.9
    c-0.8,1.2-3.3,0.3-2.7-1.2C1078.1,75.5,1080.7,76.4,1080,77.9z M1156.7,72.1c-1.7,0.3-2.8-2.6-0.9-3.2
    C1157.5,68.5,1158.5,71.6,1156.7,72.1z M1185.6,253.8c1.6-0.5,2.2,0,1.7,1.7C1185.7,255.9,1185.1,255.4,1185.6,253.8z
    M1183.5,282.6h3v3h-3V282.6z M1180.9,143.7c1.4-0.4,1.9,0,1.4,1.4C1180.9,145.6,1180.4,145.1,1180.9,143.7z M1176.8,124.2
    c0.9,1.5,1.8,3.1,2.7,4.7c-0.8,0.2-2.3,0.7-3.1,0.9C1176.5,127.9,1176.6,126,1176.8,124.2z M1179.2,147.1c-1.2,0.9-2.6-1.1-1.5-1.9
    C1178.9,144.2,1180.3,146.2,1179.2,147.1z M1161.3,282.2c-1.4,0.4-1.9-0.1-1.4-1.5C1161.3,280.3,1161.7,280.8,1161.3,282.2z
    M1168.7,290.2c-1.5,0.9-3.2-1.6-2-2.7C1168.1,286.8,1169.7,289.1,1168.7,290.2z M1168.2,66.2c1.1-2.4,2.7-4.4,4.7-6.1
    C1171.8,62.5,1170.2,64.6,1168.2,66.2z M1169.7,291.9c6.3,6.6,11.7,14.4,14.8,23C1178.4,308.1,1171.6,301.2,1169.7,291.9z
    M1187,318.2c-1.2,1.3-3.4-0.7-2.2-2C1185.9,314.9,1188.2,316.9,1187,318.2z M1188,305c-1.3,1.4-3.6-0.9-2.2-2.2
    C1187.2,301.4,1189.5,303.7,1188,305z M1189.8,130.5c2-0.7,4.1-1.3,6.3-1.8C1194.2,129.9,1192.1,130.8,1189.8,130.5z M1190.9,183.7
    c1.4-0.5,1.9,0,1.4,1.4C1190.9,185.6,1190.4,185.1,1190.9,183.7z M1192.6,201.7c-1.3-0.7-1.3-1.4,0-2
    C1193.9,200.4,1193.9,201,1192.6,201.7z M1195.4,169c-2.1,0.7-3-2.3-0.7-2.5C1196.7,165.8,1197.8,168.9,1195.4,169z M1197.1,106.3
    c-1,1.3-3.2-0.3-2.1-1.6C1195.9,103.4,1198.2,104.9,1197.1,106.3z M1232.3,56.2c-1.4,0.4-1.9-0.1-1.4-1.4
    C1232.3,54.3,1232.7,54.8,1232.3,56.2z M1241.3,60.7c0.4-1.1,0.8-2.1,1.2-3.2c1.4,0.1,2.9,0.2,4.3,0.4
    C1245,58.8,1243.1,59.8,1241.3,60.7z"/>
    <path d="M2607.5,123.6c0-13.4-0.5-27-4.1-40c-4.2-14.5-12.4-28.3-24.7-37.3c-7.6-6-17-9.2-26-12.2c-1.3,2-2.5,4-3.7,5.9
    c0.3-2.2,0.7-4.3,1.1-6.4c-12-2.5-24.4-2.4-36.6-1.2c-2.4,8.7-4.8,17.4-6.8,26.1c-1.3,5-0.1,10.2,0.3,15.3c-4.1-2.4-8-5.2-11.2-8.7
    c-0.1-2.4,0-4.8,0.2-7.2c2.4,1.8,4.7,3.6,7.1,5.5c3.6-10.1,6-20.5,7.5-31.1c-18.5,3.1-36.9,11.7-48,27.4
    c-11.7,16.6-15.9,37.6-15.4,57.7c0.1,55,0.1,110,0,165c0,15.7,0.6,31.9,6.4,46.7c5.4,14.7,15.7,27.8,29.7,35.2
    c14.7,8.5,32,10.5,48.7,10.3c-0.6-1.8-1.2-3.6-1.7-5.4c2.3,1.8,4.2,5.3,7.6,4.8c20.7-1.5,41.7-10.7,54.1-27.9
    c11.7-16.6,15.9-37.6,15.4-57.7C2607.4,233.6,2607.4,178.6,2607.5,123.6z M2590.9,162.7c-1.1,1.5-2.5,2.7-3.8,4
    c0.6-2.6,1.3-5.1,2.1-7.6C2589.6,160.3,2590.3,161.5,2590.9,162.7z M2587.2,157.4c-1.1,1.5-3.6-0.2-2.4-1.6
    C2585.7,154.3,2588.3,155.9,2587.2,157.4z M2584.7,216.9c1.4-0.1,1.4,2.4,0,2.4C2583.2,219.3,2583.2,216.9,2584.7,216.9z
    M2583,209.7c0.8-1.2,2.8,0.1,1.9,1.3C2584.1,212.3,2582,210.9,2583,209.7z M2583.6,133.7c1.2,0.7,1.2,1.3,0,2
    C2582.2,135.1,2582.2,134.4,2583.6,133.7z M2578.6,116.8c1.6-0.5,2.1,0,1.7,1.7C2578.6,118.9,2578.1,118.4,2578.6,116.8z
    M2582,120.3c0,1.4,0.1,2.7,0.2,4.1l-5.1,0C2578.8,123,2580.4,121.7,2582,120.3z M2510.6,57.9c1.6-0.1,1.5,2.7-0.1,2.7
    C2508.8,60.5,2508.9,57.8,2510.6,57.9z M2502.2,73.2c-0.1,8.9-0.4,18.3-5.3,26C2496.9,90.3,2498.2,81.3,2502.2,73.2z M2488.7,137.8
    c1.8-0.8,2.3,2.3,0.7,2.7C2487.5,141.2,2487,138.3,2488.7,137.8z M2489.6,141.3c-0.4,8.8-1.8,17.6-5.1,25.8
    c0.2-6.2,1.9-12.4,0.9-18.6C2485.1,145.5,2488.1,143.6,2489.6,141.3z M2482.8,320.8c0.8-1.4,3.2,0,2.2,1.4
    C2484,323.6,2481.7,322.1,2482.8,320.8z M2483.4,332.3c-1.6,0-1.3-2.5,0.2-2.4C2485,329.9,2484.8,332.3,2483.4,332.3z
    M2485.6,237.7c1.3,0.7,1.2,1.3,0,2C2484.2,239.1,2484.2,238.4,2485.6,237.7z M2482,182.4c-0.6-5.4,0.3-10.8,2.9-15.6
    C2485.7,172.2,2484.5,177.6,2482,182.4z M2483.7,74.9c1.4-0.1,1.4,2.4,0,2.4C2482.2,77.3,2482.2,74.9,2483.7,74.9z M2483.4,143.2
    c-0.1,1.7-0.2,3.4-0.3,5.2c-1.2-0.8-2.3-1.4-3.3-2.2C2481,145.1,2482.2,144.1,2483.4,143.2z M2470.6,170.8c1.6-0.5,2.1,0,1.7,1.7
    C2470.6,172.9,2470.1,172.4,2470.6,170.8z M2468.9,186.7c1.4-0.5,1.8,0,1.5,1.4C2468.9,188.6,2468.4,188.1,2468.9,186.7z
    M2470.7,242c-1.1,1.4-3.9-0.2-2.8-1.8C2468.9,239,2471.7,240.4,2470.7,242z M2460.9,93.7c1.4-0.5,1.8,0,1.4,1.4
    C2460.9,95.6,2460.4,95.1,2460.9,93.7z M2459.9,197c1.2-1.3,3.3,0.8,2,2C2460.6,200.3,2458.5,198.2,2459.9,197z M2463.4,262.1
    c-1.8-0.1-1.5-3.1,0.2-3C2465.3,259.2,2465,262.1,2463.4,262.1z M2465.9,191c1.2-1.3,3.3,0.8,2,2
    C2466.6,194.3,2464.5,192.2,2465.9,191z M2469.2,304.4c-1,1.5-3.6-0.2-2.4-1.6C2467.7,301.3,2470.3,302.9,2469.2,304.4z
    M2469.6,276.7c-1.4-0.7-1.3-1.4,0-2C2470.9,275.4,2470.9,276,2469.6,276.7z M2468.9,264c-0.3-1.9-0.4-3.7-0.6-5.5
    c0.7,0.1,2,0.2,2.7,0.2C2470.3,260.5,2469.6,262.3,2468.9,264z M2469.8,193c-0.1-1-0.1-2,0-3c0.5,0,1.6,0,2.2,0
    c0.1,1.2,0.3,2.5,0.6,3.7C2471.9,193.5,2470.5,193.2,2469.8,193z M2477.6,229.8c1.6-0.5,2.1,0,1.7,1.7
    C2477.6,231.9,2477.1,231.4,2477.6,229.8z M2483.8,308.5c-0.5,1.9-1,3.8-1.4,5.7c-1.2-1.1-2.3-2.1-3.4-3.2
    C2480.5,310.2,2482.1,309.3,2483.8,308.5z M2480.5,344.1c3.2-1.8,6.6-3.2,10.2-4.4C2488.6,343.2,2484.8,345.3,2480.5,344.1z
    M2489.4,136.9c-0.2-8.6,2.2-17,6.3-24.5C2495.9,121,2492.5,129.1,2489.4,136.9z M2495.2,105.1c-1-0.9-0.6-2.9,0.6-3.5
    C2497.6,101.7,2497,105.6,2495.2,105.1z M2499.3,353.6c0.4-1,0.8-2,1.3-3c1.3,0,2.6-0.1,4-0.1c0.3,1.4,0.7,2.8,1.2,4.3
    C2503.5,354.4,2501.4,354,2499.3,353.6z M2500.9,342.7c1.4-0.5,1.8,0,1.5,1.4C2500.9,344.6,2500.4,344.1,2500.9,342.7z
    M2517.3,354.4c-1.7,0.5-2.2,0-1.7-1.7C2517.2,352.2,2517.8,352.8,2517.3,354.4z M2545,363.9c1.2-0.9,2.5,1.2,1.3,2
    C2545.1,366.7,2543.8,364.6,2545,363.9z M2546.6,360.8c1.6-0.5,2.1,0,1.7,1.7C2546.6,362.9,2546.1,362.4,2546.6,360.8z
    M2548.8,370.3c-1.2,1.1-3.1-0.9-2-2C2547.9,367.2,2549.8,369.1,2548.8,370.3z M2541.4,354.2c4.3-0.7,7.9,1.9,10.7,4.9
    C2548,359,2543.6,358.3,2541.4,354.2z M2545.8,350.8c0.9-1.5,3.5,0.2,2.4,1.6C2547.1,353.9,2544.6,352.2,2545.8,350.8z
    M2551.1,342.2c-1.9,2.8-3.9,5.6-6.8,7.5c-2.8-1.3-4.5-3.9-6.2-6.3c1.6,0,3.3,0,4.9,0c-0.7-1.5-1.4-3.1-2-4.6
    c1.4-1.9,2.7-3.8,4.2-5.6c2.7,1.1,7.4,0.6,7.6,4.5c0.4,2,0.7,4.1,1.1,6.2C2553,343.2,2552.1,342.7,2551.1,342.2z M2554.5,292.6
    c0.1,8.1-0.4,16.9-5.2,23.8c-8.2,12.9-27.9,12.8-39.6,4.9c-7.9-6.9-9.5-17.8-9.2-27.7c0-61.7-0.1-123.4,0.1-185
    c-0.8-12.8,7.4-27.8,21.4-28.5c10.5-2.2,23.5,1.1,28.5,11.5c4.7,7.7,3.6,17.3,4.1,26C2554.4,175.9,2554.5,234.3,2554.5,292.6z
    M2556.6,335.7c-1.4-0.7-1.3-1.4,0-2C2557.9,334.4,2557.9,335,2556.6,335.7z M2561,331.8c0.4-2.1,0.8-4.2,1.1-6.3
    c1.1,1.6,2.2,3.3,3.4,5C2563.9,330.9,2562.4,331.4,2561,331.8z M2571.7,152.1c1.1-0.9,2.6,1,1.5,1.9
    C2572,155,2570.5,153,2571.7,152.1z M2573.9,251c1.1,1.7,2,3.6,3,5.4c-0.9,0-2.7,0.1-3.6,0.2C2573.5,254.7,2573.7,252.9,2573.9,251
    z M2576.7,311.5c-1.7-0.4-0.6-2.9,0.9-2.6C2579.2,309.4,2578.1,311.9,2576.7,311.5z M2579.3,305.4c-1.7,0.5-2.2,0-1.7-1.7
    C2579.2,303.2,2579.8,303.8,2579.3,305.4z M2580.6,147.7c1.2,0.7,1.2,1.3,0,2C2579.2,149.1,2579.2,148.4,2580.6,147.7z
    M2579.9,285.7c1.3-0.5,1.8,0,1.5,1.4C2579.9,287.6,2579.4,287.1,2579.9,285.7z M2581.9,302.3c-0.9,1.1-2.9-0.3-1.9-1.5
    C2580.8,299.7,2582.8,301.2,2581.9,302.3z M2581.9,225.7c1.4-0.5,1.8,0,1.5,1.4C2581.9,227.6,2581.4,227.1,2581.9,225.7z
    M2582.8,290.2c2.7-1.5,5.6-2.3,8.6-2.7C2589.2,289.6,2585.5,290.6,2582.8,290.2z M2593.3,226.2c-1.5,0.4-1.9-0.1-1.5-1.4
    C2593.2,224.3,2593.7,224.8,2593.3,226.2z"/>
    <path d="M460.5,28.8c-18,0.3-35.6,6.4-49.6,17.6c7.7,4.2,14.3,10.5,17.6,18.7c-6.8-5.3-12.6-11.8-17.6-18.7
    c-18.5,17.3-25.1,43.5-24.5,68.1c0.1,56.7,0,113.3,0.1,170c0,18.9,2.5,38.8,13,55c11.5,19.6,34.3,29.9,56.3,31.8
    c20.8,1.1,43.4-0.9,60.7-13.7c20-13.3,28.3-38,29.9-61c0.2-48.3,0.1-96.6,0-145c-3.4-0.7-7.5-1-9.8-4c-1.1-2.1-1.8-4.4-2-6.8
    c2.6-3.9,7.5-5.7,12-4.1c0-25.6,1.6-53.7-13.1-76.2C518.9,35.9,487.8,26.5,460.5,28.8z M518.6,263.7c1.3,0.7,1.3,1.3,0,2
    C517.3,265,517.3,264.4,518.6,263.7z M506.6,85c-0.1-0.3-0.4-1-0.6-1.3C507.4,81.5,509.2,85.6,506.6,85z M491.6,67.7
    c1.3,0.7,1.3,1.3,0,2C490.3,69.1,490.3,68.4,491.6,67.7z M481.6,46.8c1.6-0.5,2.2,0,1.7,1.7C481.7,48.9,481.1,48.4,481.6,46.8z
    M484.6,57.5c-0.2,1.5-0.3,3.1-0.5,4.6c-1.4-1.4-2.7-2.9-4-4.4C481.6,57.7,483.1,57.6,484.6,57.5z M449.6,44.3
    c1.6-1,2.8,1.8,1.3,2.6C449.4,47.9,448.2,45.1,449.6,44.3z M424.7,65.2c1.7,1.6,3.3,3.2,5,4.8c-1.7,0-3.4,0.1-5.1,0.2L424.7,65.2z
    M427.3,85.4c-1.6,0.5-2.2,0-1.7-1.7C427.3,83.2,427.8,83.8,427.3,85.4z M421.6,86.8c1.6-0.5,2.2,0,1.7,1.7
    C421.7,88.9,421.1,88.4,421.6,86.8z M419.6,150.7c1.3,0.7,1.3,1.3,0,2C418.3,152.1,418.3,151.4,419.6,150.7z M419.6,201.7
    c-1.3-0.7-1.3-1.4,0-2C420.9,200.4,420.9,201,419.6,201.7z M418.2,158.5c-1.6,0.9-3.4-1.8-1.5-2.6
    C418.3,155,420.1,157.6,418.2,158.5z M418.2,113.4c-1,1.5-3.5-0.2-2.4-1.6C416.8,110.3,419.3,111.9,418.2,113.4z M414.1,95.8
    c1.6-0.5,2.2,2.3,0.6,2.6C413.2,98.8,412.7,96.2,414.1,95.8z M396.5,104.9c-1.6,0.6-2.5-1.9-0.8-2.4
    C397.2,101.8,398.2,104.4,396.5,104.9z M399.6,241.7c-1.3-0.7-1.3-1.4,0-2C400.9,240.4,400.9,241,399.6,241.7z M403.3,305.6
    c0.5-1.5,1.1-2.9,1.7-4.3c0.6,1.4,1.3,2.8,1.9,4.2C406,305.5,404.2,305.6,403.3,305.6z M407.3,248.8c-0.4-2.3-0.9-4.6-1.5-6.9
    c1.8,0,3.7,0,5.6-0.1C409.9,244.1,408.6,246.5,407.3,248.8z M410.1,309.6c-0.1-1.9-0.2-3.8-0.3-5.7
    C411.5,305.7,412.2,307.7,410.1,309.6z M411.6,312.7c-1.3-0.7-1.3-1.4,0-2C412.9,311.4,412.9,312,411.6,312.7z M413.3,299.4
    c-1.6,0.5-2.2,0-1.7-1.7C413.3,297.2,413.8,297.8,413.3,299.4z M413.3,285.4c-1.6,0.5-2.2,0-1.7-1.7
    C413.3,283.2,413.8,283.8,413.3,285.4z M413.3,279.4c-1.6,0.5-2.2,0-1.7-1.7C413.3,277.2,413.8,277.8,413.3,279.4z M413.7,270.1
    c1.8-1.1,2.9,2,1.3,2.8C413.3,274,412.1,270.9,413.7,270.1z M416.3,289.4c-1.6,0.5-2.2,0-1.7-1.7
    C416.3,287.2,416.8,287.8,416.3,289.4z M417.6,258.8c1.6-0.5,2.2,0,1.7,1.7C417.7,260.9,417.1,260.4,417.6,258.8z M421.3,281.4
    c-1.6,0.5-2.2,0-1.7-1.7C421.3,279.2,421.8,279.8,421.3,281.4z M421.3,208.4c-1.6,0.5-2.2,0-1.7-1.7
    C421.3,206.2,421.8,206.8,421.3,208.4z M424.9,306.3c-0.9,1.1-2.9-0.3-1.9-1.5C423.9,303.7,425.8,305.2,424.9,306.3z M425.9,161.1
    c-1.1,0.2-2.3,0.4-3.4,0.7c0.4-1,0.8-2,1.2-3c0.7-0.1,2.2-0.2,2.9-0.2C426.4,159.2,426.1,160.5,425.9,161.1z M429.3,236.4
    c-1.6,0.5-2.2,0-1.7-1.7C429.3,234.2,429.8,234.8,429.3,236.4z M429.6,109.8c-3.1-0.6-5.9-0.8-8.9-1.3c1.2-4.3,4.2-7.9,9.3-7.8
    C430,103.7,429.8,106.8,429.6,109.8z M430.2,67c1.1-1.1,3.6,0.5,2.6,1.9C431.6,70.1,429.3,68.4,430.2,67z M433.1,349.3
    c-0.9,1.3-3.2-0.3-2.1-1.6C431.9,346.4,434.2,347.9,433.1,349.3z M433.6,49c-0.1-0.3-0.4-1-0.6-1.3C434.4,45.5,436.2,49.6,433.6,49
    z M455,342.1c-1.3,0.2-2.6,0.4-3.8,0.6c0.5-3,1.3-5.5,2-8.3c0.7,0.2,2.2,0.5,3,0.7C455.8,337.4,455.4,339.6,455,342.1z
    M493.4,294.6c0.2,10-3.8,21.1-12.9,26.1c-10.1,4.2-22.7,4.1-31.8-2.4c-7.9-6.9-9.5-17.8-9.2-27.7c0-61.7-0.1-123.4,0-185
    c-0.4-7.8,2.9-14.9,6.5-21.5c-2.7-3.5-5.3-7-7.5-10.8c3.3,2.5,6.4,5.3,9.7,7.9c9.5-3.6,20.5-6.9,30.2-2.5
    c6.7,2.2,11.1,8.4,13.3,14.8c2.3,8.5,1.7,17.4,1.9,26.1C493.3,177.9,493.7,236.3,493.4,294.6z M500.6,69c-0.1-0.3-0.4-1-0.6-1.3
    C501.4,65.5,503.2,69.6,500.6,69z M503.3,313.3c-1.6,0.5-2.3-2.2-0.7-2.5C504.2,310.3,504.9,313,503.3,313.3z M502.7,71.3
    c-1.7-0.5-0.6-2.9,0.9-2.5C505.2,69.3,504.2,71.8,502.7,71.3z M504.3,61.4c-1.6,0.5-2.2-0.1-1.7-1.7
    C504.3,59.2,504.8,59.8,504.3,61.4z M504.8,99.8c0.9-1.4,3.2,0.1,2.1,1.4C506.1,102.6,503.7,101.1,504.8,99.8z M508.1,300.1
    c-0.8,0.1-2.3,0.3-3,0.4c1.1-1.4,2.2-2.8,3.3-4.2C508.3,297.5,508.1,298.8,508.1,300.1z M509.6,74.8c1.6-0.5,2.2,0,1.7,1.7
    C509.7,76.9,509.1,76.4,509.6,74.8z M511.9,267.3c-0.9,1.1-2.9-0.3-1.9-1.5C510.9,264.7,512.8,266.2,511.9,267.3z M514.8,309.4
    c2.3,0.8,4.4,1.9,6.3,3.4C518.7,312.2,516.5,311.1,514.8,309.4z M525.2,328.1c-1.1,0.9-2.6-1.1-1.5-1.9
    C524.9,325.2,526.3,327.2,525.2,328.1z M527.6,171.7c-1.3-0.7-1.3-1.4,0-2C528.9,170.4,528.9,171,527.6,171.7z M531.6,193.7
    c1.4-0.6,2.2,1.8,0.7,2.2C530.9,196.4,530.1,194.1,531.6,193.7z M538.6,186.7c-1.3-0.7-1.3-1.4,0-2
    C539.9,185.4,539.9,186,538.6,186.7z M538.4,168.9c1.1-0.9,3-1,4.1-0.1C542.6,170.7,537.6,171.1,538.4,168.9z M540,173
    c0.1,0.8,0.3,2.3,0.4,3c-1.4-1.1-2.8-2.2-4.2-3.3C537.4,172.8,538.7,172.9,540,173z M535.7,282.2c-1.1,1.1-3.6-0.5-2.8-1.9
    C534,279.2,536.5,280.7,535.7,282.2z"/>
    <path d="M189.3,292.3c2-0.6,4.1-1.3,6.1-1.9c0.1-64.2,0.2-128.4-0.1-192.6c-3.3-4-6.7-7.9-9.4-12.4c3.5,2.4,6.4,5.3,9.5,8.2
    c0-20.4,0.1-40.7,0-61c-15.8-0.1-31.6-0.1-47.4,0c0.8,3.5,0.6,7.5,2.9,10.5c2.6,3.3,5,6.8,6.7,10.7c-3-2.6-5.9-5.2-8.9-7.7
    c-0.9,62.3,0.6,124.6-0.8,186.9c-18.6-66.6-35.8-133.6-53.6-200.4c-22.3-0.1-44.6-0.1-66.8-0.1c0,85.9-0.1,171.8,0,257.7
    c16,1.3,31.9,2.7,47.9,2.9c0.3-56.3-0.5-112.7,0.4-169c6.2,19.7,10.7,39.9,16.3,59.7c16.6,61.2,32.6,122.5,49.3,183.7
    c18,0,36.1,0,54.1,0c0-24.5,0.1-49-0.1-73.6C193.3,293.5,191.3,292.9,189.3,292.3z M44,254.7c2.3,0.3,4.7,0.8,6.9,1.5
    C48.6,256,46.3,255.5,44,254.7z M51.8,111.9c1.3-1.1,2.9,1.2,1.6,2.2C52,115.1,50.5,112.8,51.8,111.9z M55.7,123.4
    c-0.9,1.2-3.3,0-2.5-1.4C54,120.8,56.4,122,55.7,123.4z M73.2,113.3c-0.6-2.2-1.2-4.4-1.6-6.6C74.2,108.2,74.3,110.8,73.2,113.3z
    M79.1,41.8c2-1.8,4.3-3.3,6.8-4.4C83.9,39.2,81.6,40.7,79.1,41.8z M90,107.2c-1.3,0.1-2.6,0.2-3.8,0.3c1.4-1.1,2.8-2.2,4.2-3.3
    C90.3,104.9,90.1,106.4,90,107.2z M185,84.7c-8.4-5.3-14.1-13.9-18.5-22.5C174.6,68,179.2,76.9,185,84.7z M176.9,239.2
    c-0.9,1.4-3.2-0.1-2.2-1.4C175.7,236.4,178,237.8,176.9,239.2z M174.3,92.2c-1.4,0.4-1.9-0.1-1.4-1.4
    C174.3,90.3,174.8,90.8,174.3,92.2z M169.6,157.7c-1.3-0.7-1.3-1.4,0-2C170.9,156.4,170.9,157,169.6,157.7z M166.6,205.8
    c1.6-0.5,2.2,0,1.7,1.7C166.7,207.9,166.1,207.4,166.6,205.8z M158.7,55.5c1.3-0.9,3.2,1.3,2.2,2.5
    C159.6,58.9,157.6,56.7,158.7,55.5z M159.6,292.7c1.4-0.6,2.2,1.8,0.7,2.2C158.9,295.4,158.1,293.1,159.6,292.7z M159.6,112.7
    c1.3,0.7,1.3,1.3,0,2C158.3,114.1,158.3,113.4,159.6,112.7z M150.7,272.9c1.5-1.2,3.1,1.3,1.6,2.4
    C150.8,276.4,149.2,273.9,150.7,272.9z M149.6,286.8c1.9-0.6,2.7,2.5,0.8,2.9C148.5,290.3,147.7,287.2,149.6,286.8z M141.6,268.7
    c1.3,0.7,1.3,1.3,0,2C140.3,270,140.3,269.4,141.6,268.7z M105.5,138.9c-1.6,0.6-2.5-2-0.8-2.4
    C106.2,135.8,107.2,138.4,105.5,138.9z M126,295.5c-1,1.3-3.2-0.3-2.2-1.6C124.7,292.6,127,294.2,126,295.5z M130.3,270.2
    c-1.4,0.4-1.9-0.1-1.5-1.5C130.3,268.3,130.8,268.8,130.3,270.2z M132.6,266.9c1.7-0.1,1.5,2.7-0.1,2.7
    C130.9,269.5,131,266.8,132.6,266.9z M133.1,293c8.1-2.8,16.8-0.7,24.8,1.3C149.6,295.9,141.1,295.2,133.1,293z M158.3,300.2
    c-1.4,0.4-1.9-0.1-1.4-1.5C158.3,298.3,158.8,298.8,158.3,300.2z M158.5,348.2c3.3-2.4,7.3-1.5,10.9-0.8c0,0.9,0,2.7,0,3.6
    C165.5,352.6,161.5,351,158.5,348.2z M177.5,296.8c-0.5-0.8-0.9-1.7-1.4-2.5c-4.7-0.2-9.5-0.1-14.2-1c8.8-2.3,17.9-1.2,26.9-1.4
    C184.8,293,180.8,294.3,177.5,296.8z"/>
    <path d="M1422.5,80.6c0.1-16,0.1-32,0-48c-48,0-96,0-144,0c0,111.7,0,223.3,0,335c48,0,96,0,144,0c0.1-16,0.1-32,0-48
    c-30.3-0.1-60.6,0-90.9,0c-0.1-16.7-0.1-33.3,0-50c24-0.1,48,0,72,0c0-16,0-32,0-48c-24-0.1-48,0-72,0c0-47,0-94,0-141
    C1361.8,80.5,1392.1,80.7,1422.5,80.6z M1357.8,43.3c1.1-1,3,0.8,2,2C1358.6,46.3,1356.7,44.4,1357.8,43.3z M1353.4,64.2
    c-0.1,0.8-0.4,2.4-0.5,3.2c-1.3-0.4-2.6-0.8-3.8-1.2C1350.5,65.5,1352,64.8,1353.4,64.2z M1345.8,52c0.7,0.1,2,0.2,2.7,0.3
    c-0.9,1.6-1.9,3.2-2.8,4.8C1345.7,55.3,1345.7,53.6,1345.8,52z M1370.6,344.7c1.3,0.7,1.3,1.3,0,2
    C1369.3,346,1369.3,345.4,1370.6,344.7z M1359.7,349.9c2.4-0.3,4.9-0.7,7.3-1c-0.9,2.5-1.3,5.5-2.3,8c-2.1-0.9-4.2-1.7-6.3-2.6
    C1358.9,352.9,1359.3,351.4,1359.7,349.9z M1317.2,196.1c-0.8,1.1-2.9-0.1-2-1.3C1315.9,193.5,1318,194.8,1317.2,196.1z
    M1315.6,72.7c1.3,0.7,1.3,1.3,0,2C1314.3,74.1,1314.3,73.4,1315.6,72.7z M1314.5,109.7c-0.1,0.9-0.3,2.6-0.4,3.5
    c-1.4-1.5-2.7-3-3.9-4.5C1311.6,109,1313,109.3,1314.5,109.7z M1304.9,197.3c-0.9,1.1-2.9-0.3-1.9-1.5
    C1303.9,194.7,1305.8,196.2,1304.9,197.3z M1302,95.7c0.8-1.2,2.9,0.1,1.9,1.3C1303.1,98.3,1301.1,96.9,1302,95.7z M1299.9,118.7
    c1.4-0.5,1.9,0,1.4,1.5C1299.9,120.6,1299.4,120.1,1299.9,118.7z M1291.6,217.5c-1.8-0.5-0.6-3.2,1-2.7
    C1294.4,215.3,1293.1,218.1,1291.6,217.5z M1295.6,201.7c1.3,0.7,1.3,1.3,0,2C1294.3,203.1,1294.3,202.4,1295.6,201.7z
    M1297.3,217.4c-1.6,0.5-2.2,0-1.7-1.7C1297.3,215.2,1297.8,215.8,1297.3,217.4z M1299.6,158.8c1.6-0.5,2.2,0,1.7,1.7
    C1299.7,160.9,1299.1,160.4,1299.6,158.8z M1300.4,308.3c-0.2-3,0.6-5,0.7-7.7c1.5,0.4,2.9,0.9,4.5,1.3c0,2.9,0.3,6,0.3,9
    C1304,310,1302.2,309.2,1300.4,308.3z M1308.9,226.1c-0.1-0.8-0.3-2.5-0.4-3.4c1.1-0.3,2.3-0.6,3.4-0.9
    C1310.9,223.2,1309.9,224.7,1308.9,226.1z M1309.7,181.1c2.5-1,1.4,4-0.6,3C1308.3,183.2,1308.8,181.7,1309.7,181.1z M1308.6,143
    c0.6-1.5,1.3-3,1.9-4.5c0.9,0.1,2.7,0.3,3.6,0.4C1312.2,140.4,1310.4,141.7,1308.6,143z M1314.7,330.9c1.4-1.2,3.1,1.3,1.6,2.4
    C1314.8,334.4,1313.2,331.9,1314.7,330.9z M1314.1,341.5c2,0.9,3.9,2,5.7,3.3C1317.8,343.8,1315.9,342.8,1314.1,341.5z
    M1363.8,242.9c0.9-1.3,3.2,0.2,2.2,1.6C1365,245.8,1362.7,244.2,1363.8,242.9z M1361.6,240.7c1.8-0.7,2.3,2.2,0.7,2.7
    C1360.4,244.1,1359.8,241.1,1361.6,240.7z"/>
    <path d="M1857.7,35.7c-13.7,82.1-34.3,164.3-47.7,246.5c-4.4,29.5-5,58.8-8.7,88.4c16,0.1,35,0.1,51.1,0
    c2.8-20.3,6.5-40.5,9.3-60.9c21.5-0.1,43.1-0.1,64.6,0c3.1,20.3,5.9,40.6,9.2,60.9c17.7,0.1,35.3,0.1,53,0
    c-18.5-114.1-36.4-225.5-53.6-334.7C1909.2,35.3,1883.4,35.6,1857.7,35.7z M1840.9,252c1.3-1.4,3.6,0.9,2.2,2.2
    C1841.7,255.6,1839.5,253.3,1840.9,252z M1829.2,333.1c-1.2,0.9-2.7-1.1-1.5-1.9C1828.8,330.2,1830.3,332.2,1829.2,333.1z
    M1838.3,321.4c-1.7,0.5-2.2,0-1.7-1.7C1838.2,319.2,1838.8,319.8,1838.3,321.4z M1838.9,265.7c1.4-0.5,1.9,0,1.5,1.5
    C1838.9,267.6,1838.4,267.1,1838.9,265.7z M1840.7,281.8c1.9-0.8,2.6,2.5,0.8,2.9C1839.6,285.4,1838.9,282.3,1840.7,281.8z
    M1842.7,359.4c-1.2,1.1-3.2-0.8-2-2C1841.7,356.4,1843.6,358.3,1842.7,359.4z M1844.2,273.9c-0.7-2.1-1.4-4.2-2-6.2
    c0.6,0,1.8-0.1,2.4-0.1C1844.4,269.7,1844.3,271.8,1844.2,273.9z M1845.2,263.4c-1,1.5-3.6-0.2-2.4-1.6
    C1843.7,260.3,1846.3,261.9,1845.2,263.4z M1850.3,293.4c-1.7,0.5-2.2,0-1.7-1.7C1850.2,291.2,1850.8,291.8,1850.3,293.4z
    M1851.7,181.3c-1.3,1.2-3.7-0.8-2.6-2.3C1850.4,177.8,1852.7,179.9,1851.7,181.3z M1852.3,171.6c0.4-0.6,1.2-1.8,1.6-2.4
    c1.3,1.1,2.6,2.2,3.9,3.3C1855.9,172.2,1854.1,171.9,1852.3,171.6z M1856.1,298.4c1.1-1.4,2.1-2.7,3.3-4c0,1.4,0,2.8,0.1,4.2
    C1858.6,298.6,1857,298.5,1856.1,298.4z M1860.9,288c-1.3,1.3-3.4-0.8-2-2C1860.1,284.7,1862.2,286.8,1860.9,288z M1907.6,84.7
    c1.3,0.7,1.3,1.3,0,2C1906.2,86.1,1906.3,85.4,1907.6,84.7z M1889.6,74.5c-0.2,0.7-0.5,2.1-0.7,2.8c-1,0-2,0-3,0
    c0-0.5,0-1.6-0.1-2.2C1887.1,74.9,1888.3,74.7,1889.6,74.5z M1865.6,183c1.8,0,1.7,3.3-0.1,3.3
    C1863.6,186.2,1863.8,183.1,1865.6,183z M1866.6,273.7c-1.3-0.7-1.3-1.4,0-2C1867.9,272.4,1867.9,273,1866.6,273.7z M1891.7,290.3
    c-1.5,0-1.5-2.4,0-2.4C1893.1,287.8,1893.1,290.3,1891.7,290.3z M1911.3,287.4c-1.7,0.5-2.2,0-1.7-1.7
    C1911.2,285.2,1911.8,285.8,1911.3,287.4z M1913.6,279.7c-1.3-0.7-1.3-1.4,0-2C1914.9,278.4,1914.9,279,1913.6,279.7z
    M1868.4,263.6c4.1-31.2,9.1-62.3,13.5-93.4c4.1-25.1,6.7-50.4,11.6-75.3c4.9,26.7,8,53.6,12.3,80.4c4.2,29.4,8.8,58.8,12.8,88.3
    C1901.8,263.6,1885.1,263.6,1868.4,263.6z M1922.3,182.3c-1.5,1.1-3.2-1.4-1.6-2.4C1922.1,178.7,1923.7,181.3,1922.3,182.3z
    M1965.7,307.4c1.4,0.2,1.8,2.6,1,3.7C1964.8,311.8,1963.8,308,1965.7,307.4z M1963.7,345.6c1.9-0.7,2.7,2.5,0.8,2.9
    C1962.6,349.1,1961.8,346.1,1963.7,345.6z M1959.4,358.4c-1.4,0.4-2.8,0.8-4.1,1.2c1.3-1.4,2.7-2.8,4.1-4.2
    C1959.4,356.1,1959.4,357.7,1959.4,358.4z M1958.6,345.7c-1.3-0.7-1.3-1.4,0-2C1959.9,344.4,1959.9,345,1958.6,345.7z
    M1958.8,301.1c0.7-1.2,2.8,0.1,2,1.3C1960,303.6,1957.9,302.3,1958.8,301.1z M1957.6,331.3c1.2-0.8,2.4,1.2,1.3,2
    C1957.7,334.2,1956.4,332,1957.6,331.3z M1956.9,324.1c0.1,1.4,0.2,2.9,0.3,4.4c-1,0.4-1.9,0.8-2.8,1.3
    C1955.2,327.9,1955.9,326,1956.9,324.1z M1946.3,301.8c0.4-1.3,2.8-0.8,2.4,0.7C1948.2,303.7,1945.8,303.2,1946.3,301.8z
    M1944.6,264.7c1.3,0.7,1.3,1.3,0,2C1943.2,266,1943.3,265.4,1944.6,264.7z"/>
    <path d="M908.3,317.6c0.5-95,0.1-190,0.2-285c-18,0.2-36,0.4-54,0c-0.1,72.3,0,144.6,0,217c-7.6,0.1-15.4-0.3-22.9,1
    c-1.4,1.3-2.6,2.8-3.8,4.3c0.2-1.7,0.5-3.5,0.7-5.2c-11.3,0-22.7,0-34,0c-0.1-72.3,0-144.6,0-217c-17.7-0.1-35.3-0.1-53,0
    c0,111.7-0.1,223.3,0.1,335h6.9c-1-2.8-1.9-5.7-2.7-8.5c2.7,2.4,4.8,5.5,7.3,8.1c8.6,1.2,17.4,0.2,26.1,0.3
    c4.7-8.6,8.4-17.7,13.1-26.3c1.4-2.6,2.2-5.7,2.1-8.6c0.6-11.6,0.2-23.3,0.2-34.9c20-2.1,40,0.7,60-0.1c0.1,23.3,0,46.6,0,69.9
    c18,0.1,36,0,54,0C909.5,350.9,906.2,334.2,908.3,317.6z M756.8,184.8c1-1.5,3.5,0.2,2.4,1.6C758.1,187.9,755.6,186.2,756.8,184.8z
    M758.1,326.9c1-2.6,2.6-4.8,4.6-6.7C761.4,322.6,759.9,324.9,758.1,326.9z M765.6,358.7c-1.3-0.7-1.3-1.4,0-2
    C766.9,357.4,766.9,358,765.6,358.7z M764.5,110.2c-1.4-3.3,0.6-6,3-8.1C766.6,104.8,765.6,107.5,764.5,110.2z M770.1,90.3
    c-1,1.3-3.2-0.3-2.2-1.6C768.9,87.4,771.2,88.9,770.1,90.3z M771.6,54.8c1.6-0.5,2.2,0,1.7,1.7C771.7,56.9,771.1,56.4,771.6,54.8z
    M771.9,141.4c0.9-1.9,2-3.7,3.1-5.4c0.2,1.5,0.4,3,0.6,4.5C774.3,140.8,773.1,141.1,771.9,141.4z M774.4,56.6
    c0.5-1.8,1-3.6,1.5-5.4c0.6,1.7,1.2,3.5,1.8,5.3C776.9,56.5,775.3,56.6,774.4,56.6z M813.8,295c1.6-8.8,3.3-18.2,9.8-24.8
    C822,279,818.5,287.4,813.8,295z M823.5,268.3c0.7-1.4,1.5-2.7,2.2-4.1c0.2,1.8,0.4,3.6,0.6,5.4
    C825.4,269.1,824.4,268.7,823.5,268.3z M888.5,55c-2.1,2.7-4.9,2.7-7,0C883.8,55,886.1,55,888.5,55z M884,188.7
    c0.8,0.1,2.4,0.2,3.2,0.3c0,1.4,0,2.7,0,4.1C886.1,191.7,885,190.2,884,188.7z M886.3,236c-1.1-1.8-2.2-3.6-3.2-5.3
    c0.8,0.1,2.3,0.3,3.1,0.4C886.2,232.7,886.2,234.3,886.3,236z M882.1,69.7c0.8,0.1,2.3,0.3,3.1,0.4c0,1.6,0.1,3.2,0.1,4.9
    C884.2,73.2,883.1,71.4,882.1,69.7z M885.6,97.1c0.7,2,1.3,4,1.8,6C886.6,101.1,886.1,99.1,885.6,97.1z M885.1,294.8
    c-0.1,0.8-0.3,2.3-0.3,3.1c-1.7-0.8-3.4-1.8-5-2.8C881.6,294.9,883.4,294.8,885.1,294.8z M884.5,354.1c-4.7-1.2-8.6-4-11.4-7.9
    c2.8-3.4,5.5-7.3,9.7-9.1c5.3-1.9,5.1,6.6,6.5,9.5C887.3,348.9,885.5,351.3,884.5,354.1z M890.6,105.7c-1.3-0.7-1.3-1.4,0-2
    C891.9,104.4,891.9,105,890.6,105.7z M892.6,86.7c1.3,0.7,1.3,1.3,0,2C891.3,88.1,891.3,87.4,892.6,86.7z M895.4,198.9
    c-1.6,1.1-3.6-1.5-1.6-2.4C895.3,195.3,897.3,197.9,895.4,198.9z M897.8,109.1c-0.8,1.5-3.6,0.3-2.6-1.3
    C896,106.3,898.8,107.5,897.8,109.1z M900.1,327.5c1.6,1.7,3.2,3.5,4.6,5.4C902.9,331.3,901.4,329.4,900.1,327.5z"/>
    <path d="M2338.1,65c2.3-9.6,1.1-19.7,1.5-29.4c-54.4,0-108.7,0-163,0c-0.1,16-0.1,32,0,48c18.3,0,36.6,0,55,0
    c-0.1,95.7,0.2,191.3,0,287c17.6,0.1,35.3,0.1,53,0c0-13.7,0-27.3,0-41c-9.3-4.1-18.2-9.2-27.5-13.3c-7.5-2.5-15.8-4.4-21.1-10.7
    c6.6,1.8,13.1,4.3,19.1,7.6c9.4,5.6,19.7,9.5,29.4,14.5c0-81.3,0-162.7,0-244c18.4-0.1,36.8,0,55.3-0.1
    C2338.7,77.5,2336.5,71.2,2338.1,65z M2223.2,64.3c-1.4,1.1-2.9-1.2-1.6-2.2C2222.9,61.1,2224.4,63.3,2223.2,64.3z M2266.8,326.9
    c1.3-1.1,2.8,1.2,1.6,2.2C2267,330.1,2265.4,327.8,2266.8,326.9z M2264.9,329.7c1.4-0.5,1.8,0,1.4,1.4
    C2264.9,331.6,2264.4,331.1,2264.9,329.7z M2252.7,341.9c1.3-1.1,2.8,1.3,1.4,2.2C2252.7,345.1,2251.2,342.8,2252.7,341.9z
    M2249.3,280.4c-1.7,0.5-2.2,0-1.7-1.7C2249.2,278.2,2249.8,278.8,2249.3,280.4z M2249.6,172.8c1.6-0.5,2.1,0,1.7,1.7
    C2249.6,174.9,2249.1,174.4,2249.6,172.8z M2249.9,262.4c0.5-2.2,1.1-4.4,1.9-6.5C2252,258.3,2251.3,260.5,2249.9,262.4z
    M2253,163.5c-1,1.3-3.3-0.3-2.1-1.6C2251.7,160.6,2253.9,162.2,2253,163.5z M2262.4,283.7c-1.9,0.6-2.8-2.5-0.8-2.9
    C2263.4,280.2,2264.3,283.3,2262.4,283.7z M2264.3,312.5c0.2-0.6,0.6-1.8,0.8-2.4c0.6-0.2,1.8-0.6,2.4-0.8c0,0.8,0,2.4,0,3.2
    C2266.7,312.6,2265.1,312.6,2264.3,312.5z M2271.9,315.3c-0.9,1.1-2.9-0.3-1.9-1.5C2270.8,312.7,2272.8,314.2,2271.9,315.3z
    M2281.6,56.7c-1.3-0.7-1.3-1.4,0-2C2282.9,55.4,2282.9,56,2281.6,56.7z M2331.6,47.8c1.6-0.5,2.1,0,1.7,1.7
    C2331.6,49.9,2331.1,49.4,2331.6,47.8z M2302.3,56.4c-1.7,0.5-2.2,0-1.7-1.7C2302.2,54.2,2302.8,54.8,2302.3,56.4z M2312.6,63.7
    c-1.3-0.7-1.3-1.4,0-2C2313.9,62.4,2313.9,63,2312.6,63.7z M2327.8,41.1c0.7-1.2,2.8,0.1,2,1.3C2329,43.6,2326.9,42.3,2327.8,41.1z
    M2337.9,50.8c0.2,1.4,0.4,2.8,0.7,4.3c-3.5-0.7-6.4-1.3-9.6-2.3C2331.9,52.1,2334.9,51.4,2337.9,50.8z M2336.6,55.9
    c2.1-0.3,1.7,3-0.2,2.9C2334.2,59,2334.7,55.8,2336.6,55.9z"/>
    <path d="M450.6,51C449.8,55,454.6,50.2,450.6,51"/>
    <path d="M414.6,92C413.8,96,418.6,91.2,414.6,92"/>
    <path d="M506.6,112C505.8,116,510.6,111.2,506.6,112"/>
    <path d="M519.6,167.1C517.3,170.6,523.5,167.9,519.6,167.1"/>
    <path d="M517.6,201C516.8,205,521.6,200.2,517.6,201"/>
    <path d="M404.6,255C403.8,259,408.6,254.2,404.6,255"/>
    <path d="M424.6,261.8C423.7,265.7,428.6,260.8,424.6,261.8"/>
    <path d="M405.6,286C404.8,290,409.6,285.2,405.6,286"/>
    <path d="M2054.6,64C2053.7,68,2058.6,63.2,2054.6,64"/>
    <path d="M2033.6,149.8C2032.7,153.7,2037.6,148.8,2033.6,149.8"/>
    <path d="M2029.6,169.8C2028.7,173.7,2033.6,168.8,2029.6,169.8"/>
    <path d="M2023.6,177C2022.7,181,2027.6,176.2,2023.6,177"/>
    <path d="M2024.6,225.8C2023.7,229.7,2028.6,224.8,2024.6,225.8"/>
    <path d="M2029.6,241.8C2028.7,245.7,2033.6,240.8,2029.6,241.8"/>
    <path d="M2040.6,304.8C2039.7,308.7,2044.6,303.8,2040.6,304.8"/>
    <path d="M2017.6,310C2016.7,314,2021.6,309.2,2017.6,310"/>
    <path d="M2114.6,341.8C2113.7,345.7,2118.6,340.8,2114.6,341.8"/>
    <path d="M2072.6,343.1C2070.3,346.5,2076.5,343.9,2072.6,343.1"/>
    <path d="M2536.6,62C2535.7,66,2540.6,61.2,2536.6,62"/>
    <path d="M2467.6,97C2466.7,101,2471.6,96.2,2467.6,97"/>
    <path d="M2584.6,120C2583.7,124,2588.6,119.2,2584.6,120"/>
    <path d="M2568.6,124C2567.7,128,2572.6,123.2,2568.6,124"/>
    <path d="M2477.6,168C2476.7,172,2481.6,167.2,2477.6,168"/>
    <path d="M2572.6,171C2571.7,175,2576.6,170.2,2572.6,171"/>
    <path d="M2580.6,277.8C2579.7,281.7,2584.6,276.8,2580.6,277.8"/>
    <path d="M2527.6,363C2526.7,367,2531.6,362.2,2527.6,363"/>
    <path d="M57.6,154.8C56.7,158.7,61.6,153.8,57.6,154.8"/>
    <path d="M145.6,323C144.8,327,149.6,322.2,145.6,323"/>
    <path d="M340.6,64.1C338.3,67.6,344.5,64.9,340.6,64.1"/>
    <path d="M260.6,104C259.8,108,264.6,103.2,260.6,104"/>
    <path d="M254.6,132.8C253.7,136.7,258.6,131.8,254.6,132.8"/>
    <path d="M327.6,248.8C326.7,252.7,331.6,247.8,327.6,248.8"/>
    <path d="M640.6,55C639.8,59,644.6,54.2,640.6,55"/>
    <path d="M593.6,64.1C591.3,67.6,597.5,64.9,593.6,64.1"/>
    <path d="M625.6,63.8C624.7,67.7,629.6,62.8,625.6,63.8"/>
    <path d="M607.6,71C606.8,75,611.6,70.2,607.6,71"/>
    <path d="M689.6,94C688.8,98,693.6,93.2,689.6,94"/>
    <path d="M604.6,163.8C603.7,167.7,608.6,162.8,604.6,163.8"/>
    <path d="M756.6,126C755.8,130,760.6,125.2,756.6,126"/>
    <path d="M759.6,179C758.8,183,763.6,178.2,759.6,179"/>
    <path d="M872.6,292C871.8,296,876.6,291.2,872.6,292"/>
    <path d="M872.6,296.8C871.7,300.7,876.6,295.8,872.6,296.8"/>
    <path d="M1179.6,49C1178.8,53,1183.6,48.2,1179.6,49"/>
    <path d="M952.6,73.1C950.3,76.6,956.5,73.9,952.6,73.1"/>
    <path d="M1066.6,80C1065.8,84,1070.6,79.2,1066.6,80"/>
    <path d="M966.6,131.8C965.7,135.7,970.6,130.8,966.6,131.8"/>
    <path d="M989.6,193.1C987.3,196.6,993.5,193.9,989.6,193.1"/>
    <path d="M1016.6,239C1015.8,243,1020.6,238.2,1016.6,239"/>
    <path d="M1013.6,348C1012.8,352,1017.6,347.2,1013.6,348"/>
    <path d="M1310.6,132.8C1309.7,136.7,1314.6,131.8,1310.6,132.8"/>
    <path d="M1313.6,326.8C1312.7,330.7,1317.6,325.8,1313.6,326.8"/>
    <path d="M1359.6,339.8C1358.7,343.7,1363.6,338.8,1359.6,339.8"/>
    <path d="M1367.6,340C1366.8,344,1371.6,339.2,1367.6,340"/>
    <path d="M1861.6,126C1860.7,130,1865.6,125.2,1861.6,126"/>
    <path d="M1925.6,179.8C1924.7,183.7,1929.6,178.8,1925.6,179.8"/>
    <path d="M1944.6,256.8C1943.7,260.7,1948.6,255.8,1944.6,256.8"/>
    <path d="M1944.6,261.8C1943.7,265.7,1948.6,260.8,1944.6,261.8"/>
    <path d="M1858.6,270C1857.7,274,1862.6,269.2,1858.6,270"/>
    <path d="M1946.6,286.8C1945.7,290.7,1950.6,285.8,1946.6,286.8"/>
    <path d="M1897.6,291C1896.7,295,1901.6,290.2,1897.6,291"/>
    <path d="M1915.6,293C1914.7,297,1919.6,292.2,1915.6,293"/>
    <path d="M1827.6,316C1826.7,320,1831.6,315.2,1827.6,316"/>
    <path d="M1829.6,325.8C1828.7,329.7,1833.6,324.8,1829.6,325.8"/>
    <path d="M2331.6,44C2330.7,48,2335.6,43.2,2331.6,44"/>
    <path d="M2251.6,193.8C2250.7,197.7,2255.6,192.8,2251.6,193.8"/>
    <path d="M2243.6,238.1C2241.3,241.6,2247.5,238.9,2243.6,238.1"/>
    <path d="M2396.6,78C2395.7,82,2400.6,77.2,2396.6,78"/>
    <path d="M2387.6,125.8C2386.7,129.7,2391.6,124.8,2387.6,125.8"/>
    <path d="M2398.6,178C2397.7,182,2402.6,177.2,2398.6,178"/>
    <path d="M2779.6,48C2778.7,52,2783.6,47.2,2779.6,48"/>
    <path d="M2790.6,78C2789.7,82,2794.6,77.2,2790.6,78"/>
    <path d="M2656.6,84.1C2654.3,87.6,2660.5,84.9,2656.6,84.1"/>
    <path d="M2782.6,97C2781.7,101,2786.6,96.2,2782.6,97"/>
    <path d="M2703.6,102.8C2702.7,106.7,2707.6,101.8,2703.6,102.8"/>
    <path d="M2695.6,104C2694.7,108,2699.6,103.2,2695.6,104"/>
    <path d="M2699.6,113.8C2698.7,117.7,2703.6,112.8,2699.6,113.8"/>
    <path d="M2776.6,126C2775.7,130,2780.6,125.2,2776.6,126"/>
    <path d="M2669.6,149C2668.7,153,2673.6,148.2,2669.6,149"/>
    <path d="M2778.6,181.8C2777.7,185.7,2782.6,180.8,2778.6,181.8"/>
    <path d="M2725.6,190C2724.7,194,2729.6,189.2,2725.6,190"/>
    <path d="M2774.6,205.1C2772.3,208.6,2778.5,205.9,2774.6,205.1"/>
    <path d="M2658.6,225C2657.7,229,2662.6,224.2,2658.6,225"/>
    <path d="M2743.6,278C2742.7,282,2747.6,277.2,2743.6,278"/>
    <path d="M2747.6,317C2746.7,321,2751.6,316.2,2747.6,317"/></svg>
