<svg xmlns="http://www.w3.org/2000/svg" viewBox="0 0 1215.22 1216.01"><g data-name="Слой 2"><g data-name="Слой 1"><path d="M584.84 887.25a74.2 74.2 0 0 0 3.57 9.09c.59-3.66.22-7.34-3.57-9.09zm8.04-22.95a36.87 36.87 0 0 0-8.14-7.78 83.66 83.66 0 0 1 3.9 9.37c1.36-.51 2.82-1.04 4.24-1.59zm-1.26 20.11c-.74-1.06-1.46-2.1-2.15-3.13l4.18.77a130.67 130.67 0 0 0-9.9-10.2c1.8 4.4 2.38 9.14 2.84 13.84 1.64-.46 3.33-.89 5.03-1.28zm3.85-53.29c.67.16 1.36.34 2.09.54 0-.62.1-1.85.14-2.46-1.58.33-3.14.66-4.66 1 .41 3.42.5 6.86 1 10.28a22 22 0 0 0 1.43-9.36zm20.66 97.05c-1.08.84-2.11 1.72-3.14 2.6-.48-1-.93-2-1.35-3l.44 7.66c1.43-2.36 2.8-4.78 4.05-7.26zm-18.32-14.7c-1.75 0-1.75 3 0 3s1.69-3.01 0-3zm-6.81-9.98c-1.55.93-.18 3.83 1.52 2.84 1.48-.97.11-3.93-1.52-2.84zm-5.17-33.08a78.37 78.37 0 0 0 8.06 6.16 69.38 69.38 0 0 1-.29-9 9.59 9.59 0 0 1-7.77 2.84zm8.33 30.23c2.32.24 4.63.54 7 .84-2.41-2-5.07-3.6-7.61-5.34.14 1.47.39 2.99.61 4.5zm-10.7-526.93c13.12-3.15 26.77-1.66 40.14-1.55 12.39.26 23.77 5.59 35.23 9.77-8.68-6.47-18.67-10.94-28.9-14.3-8.7-3-18-5.44-27.23-3.7a116.33 116.33 0 0 0-42.28 17.86c7.7-2.62 15.18-5.87 23.04-8.08zm17.95 440.03c-1.35.47-2.65 1-3.94 1.49 1.8.48 3.59 1 5.39 1.61-.51-1.05-.99-2.09-1.45-3.1zm-14.01 73.5c1.85.72 3.7 1.45 5.59 2.21-.12-.92-.37-2.77-.5-3.69-1.72.47-3.42.97-5.09 1.48z"/><path d="M590.29 380.63A120.51 120.51 0 0 0 549.38 401c8.45-3.61 16.41-8.42 25.32-10.91a109.54 109.54 0 0 1 60.5-2.69c11.79 2.51 22.66 7.84 33.54 12.81-10.14-8.15-22.14-13.77-34.42-17.86-14.04-5.25-29.58-4.79-44.03-1.72zm2.99 470.14c-.22.77-.66 2.32-.89 3.09l-2.81-2.46c-.58 1.54-1.17 3.07-1.74 4.62q3.49-.74 7.13-1.35c-.58-1.33-1.13-2.62-1.69-3.9zm-4.57-8.77l-2.45.17c.65 1.72 1.35 3.45 2.08 5.19.09-1.85.22-3.63.37-5.36zm5.64 2.28c.29-1.63-2.48-2.12-3.12-.81-.49 1.71 2.54 2.38 3.12.81zm27.43-499.57c8 .86 15.33 4.36 23.09 6.34-9.26-5.64-19.3-9.88-29.32-13.92-5.65-2.2-11.58-.43-16.8 1.89-8.25 3.71-16.85 6.92-24.34 12.06 8.46-2.23 16.53-6.1 25.35-6.88a115.09 115.09 0 0 1 22.02.51z"/><path d="M594.21 358.59c14.54-1 29.72-1.81 43.75 3 5.06 1.85 9.9 4.37 14.93 6.36-8.73-7.28-19.12-12.27-29.43-16.83a34.9 34.9 0 0 0-27.71 0c-10.38 4.49-20.49 9.8-29.4 16.81 9.12-3.54 17.87-8.69 27.86-9.34zm31.57-25.88c13.16 1.28 24.56 8.47 36.11 14.31a102.7 102.7 0 0 0-44.23-23.08 24.5 24.5 0 0 0-16 0A102.27 102.27 0 0 0 557.51 347c10.13-5.3 20.1-11.38 31.46-13.71 12.13-1.97 24.57-1.76 36.81-.58zm534.22 25.6c1.33-.95 0-3.58-1.52-2.64s0 3.56 1.52 2.64zM627.44 843.58c-2.12 3.31 1.62 5 4.33 5.55a31.69 31.69 0 0 0-4.33-5.55zm1.76-23.68c.29 2.82.35 5.41.87 8.33.27-1.47.56-2.92.88-4.35a38.6 38.6 0 0 0 7 6.65c-1.69-4.44-5.25-7.64-8.75-10.63zm7.27 23.24c-1.22-1.33-2.37-2.7-3.5-4.06-.81 1.85-1.64 3.71-2.47 5.56 1.97-.55 3.96-1.03 5.97-1.5zm-5.28-2.56a44.73 44.73 0 0 0-6.37-4.46c1.43 2.32 3.53 4.23 6.37 4.46zm1.72 32.7q-.61 2.46 1.82 1.53c.23 1.55.47 3.12.72 4.7.78-1.62 1.55-3.23 2.3-4.86l-2.93-.42c.08-1.23-.55-1.52-1.91-.95zM302.5 267.06a225.79 225.79 0 0 1 22.61 1.59c-14.24-7.22-32.3-7.91-46.15.5a220.65 220.65 0 0 0-29.21 20.74c-10.28 9.85-17.78 22.17-24.05 34.85-7.2 15.93-13.88 32.18-17.86 49.26 22.74-8.21 48.46-6.2 70.42 3.5 11.08 4.7 21.11 11.48 31 18.29-7.13-9.83-15.74-18.84-26.3-24.95-16.71-9.71-36.24-14-55.47-13.5 17.57-4.64 36.25-1.8 53.27 3.77 12.56 4.28 23 12.7 33.11 21.08-17.76-24.56-48.78-34.79-77.66-38.4 27.2-6 55.92 4.75 76.72 22.32-7.27-11-18.87-17.8-30.1-24.06-13.31-7.35-28.4-10.16-43.31-11.9 17-3.07 35-1.64 51 5.22 8.41 4.14 15.63 10.36 22.41 16.8-13.85-24.22-43-33.68-69.42-33.87a69.68 69.68 0 0 1 42.05-1.78c12 3 22.41 9.74 32.47 16.58-15.81-17.45-39.85-23.9-62.5-26 15.22-2.44 31.42-1.13 45.24 6.08 10.17 4.59 18.15 12.54 26 20.22-13.41-24-41.21-34.64-67.29-37a65.28 65.28 0 0 1 39 2c9.26 2.87 16.62 9.4 24.47 14.81a62.73 62.73 0 0 0-23.1-19.21c-8.27-4.33-17.6-5.75-26.37-8.65 14.15-2.75 29.49-1.07 42.37 5.61 8.25 3.59 14.28 10.42 20.76 16.46-9.34-17-28-26.65-46.18-31.43a60.73 60.73 0 0 1 32.73 2.62c9 3.22 16.66 9.19 24 15.2-10.08-15.15-27.76-22.35-44.66-26.75zM624 851.67c-1 1.55 1.61 3.31 2.83 2 .94-1.5-1.67-3.19-2.83-2zM388.08 353.6c-.18 7 .16 13.92 0 20.89-2.66-9.08-5-18.31-9.1-26.85 3 14.78 5.22 29.79 4.39 44.93-2.57-4.76-4.37-9.87-6.55-14.79 2.27 15.34 7.12 30.22 8.77 45.65-6.35-8.07-9.91-17.8-14.83-26.71a168.45 168.45 0 0 0 12.62 36.78c2 4 2.44 8.52 2.68 13-7.85-6.94-14-15.47-20.31-23.72 5.08 15.76 14.63 29.35 24.23 42.62-11.81-6.92-19-19-28.45-28.44 7.06 14.56 15.79 28.58 26.59 40.68 9.46 10.79 23.7 14.91 37.17 18-4.27-8.47-10.82-15.49-15.66-23.59-7.4-12-10.71-25.95-13.36-39.64-4.07-26.12-2.27-52.95-8.19-78.81zm253.28 469.26c1.79-1.54-1.24-3.12-2.29-1.53-1.64 1.61 1.17 3.17 2.29 1.53zm-9.1 31.46a85 85 0 0 0-3.7.25q1.66 2.47 3.48 4.92c.06-1.73.14-3.49.22-5.17zm-7.15 56.21c1.7-2.12 3.36-4.28 4.95-6.48-1.35.33-2.63.71-3.92 1.07-.34 1.8-.71 3.59-1.03 5.41zm-22.64-98.13a40.59 40.59 0 0 0-6.54-11.06c-.39 4.76 1.52 9.72 6.54 11.06zm26.6 101.2l-1.46 2.17a31 31 0 0 1-.19-5.46 69.56 69.56 0 0 0-4 6.2c1.64 1.08 3.31 2.19 5 3.34a29.13 29.13 0 0 1-.73-3.83l5.29.93c-1.35-1.15-2.62-2.27-3.91-3.35z"/><path d="M1199.64 482.11c1.31-15.65-5.16-30.59-8.88-45.52-3.75-11-6.07-22.6-11.19-33-4.89-5.73-11.47-9.81-16.86-15-1.31-1.92-.71-4.46-.91-6.65 3.29.43 6.34-.58 9.47-1.58-2.44-5.27-3.62-11.32-7.39-15.8-3.42-2.68-7-5.26-8.92-9.31-.08 1.93-.11 3.86-.09 5.81l-3-.08c-.43-7.21 2.51-14.45 1.06-21.53-47.93-97.4-122.43-181.62-213.49-240.6-2 .73-4 1.48-6 2.21q1.57-2.15 3.22-4.26C854 43 757.78 10.58 659.63 2c9.6 12.31 19.62 24.3 29.56 36.35 6.15 7.65 14.47 13.82 18.56 23-4.29-3.58-8.56-7.15-11.88-11.65-9.69-12.87-20.3-25-30.53-37.43-4.29-4.45-7.88-11.2-15-11-91.26-5.89-184 8-268.95 42.22A608.76 608.76 0 0 0 151.87 206c17-3 33.67-7.42 50.41-11.49 9.13-1.84 17.64-8.28 27.3-6.32-1-1.78-2.06-3.56-3-5.35a74.31 74.31 0 0 0 9.47 4.87c-2 .36-4.06.77-6.06 1.17l-.35-.6c-3.71 2.13-7.73 3.6-11.52 5.52 1.44-.18 4.66-.27 4.29 1.95-1.62 1.41-3.45-.67-4.29-1.95-20.14 1.9-39 9.68-58.84 13.34-4.47 1.13-10.06.75-12.86 5.25-69.25 80.11-116.55 178.88-136 283-26.1 138.37-2.64 285.88 66.44 408.69C80.49 911.61 87.75 917 90.61 925c1.45 3.77 2.95 7.68 5.33 11a601.53 601.53 0 0 0 58.25 76.74c11.4 13.46 24.79 25 36.8 38 2-.52 3.93-1 5.92-1.49-.82 1.57-1.64 3.14-2.41 4.76 54.06 49.6 116.58 90.13 184.67 117.59 66.21 26.7 137.11 42.12 208.52 44.2 85.64 2.43 171.94-12.56 251.21-45.33-5.19-4.12-10.5-8-15.77-12-6.28-4.14-13.14-7.31-18.93-12.15-13.37-8.7-26.8-17.36-40.72-25.14-9.15-4.81-17.54-11.21-27.47-14.34-8.6-4.34-16.4-10.19-25.27-14-8.5-4.57-18.88-5.8-25.92-12.85 11.69 1.82 21.22 9.25 31.77 14 9.4 4.5 18.3 10.08 28.06 13.84 7.23 2.28 12.89 7.49 19.65 10.76 8.35 4.26 15.86 10 24 14.65a200.65 200.65 0 0 1 30.18 20.45c1.75-1.28 3.5-2.57 5.27-3.85 3.79 2.72 8.78 4.44 11.49 8.49-.29 1.47-1 2.83-1.4 4.29 2.58 2 5.15 4.21 8.24 5.47 2.35.29 4.64-.79 7-1.15-1-2.48-2.06-4.89-3.21-7.26 3.53.83 6.94 2.3 10.57 2.7 4.68-.91 8.61-4 11.86-7.4-.09.61-.28 1.82-.37 2.43 103-48.32 191-127.13 252.54-222.75-.87-.13-1.7-.25-2.5-.34 0-.23 0-.69.06-.92 3.83-1.44 6.22-4.86 8.4-8.12-3.61-4.75-8.23-8.83-10.61-14.4 3.9 3.3 7.07 7.4 10.94 10.75 1.78.47 2.37-1.82 3.37-2.86a604.9 604.9 0 0 0 72.59-187.37c17.81-82.53 15.79-168.53-.53-251.14-.92.59-1.75 1.21-2.55 1.85zm-502-445c-1.33-.68-1.32-1.35 0-2 1.36.65 1.36 1.33.04 2.02zM177.11 200.22c-.44-1.53-.84-3.06-1.17-4.58 1.13.7 2.27 1.42 3.42 2.17-.76.8-1.51 1.61-2.25 2.41zm7.35-8h5c.08.83.23 2.49.31 3.32a59.896 59.896 0 0 1-5.32-3.3zm16.35-5.91c1.35-1 2.71-2 4.06-3 .57 1.09 1.18 2.18 1.81 3.28-1.98-.09-3.94-.16-5.88-.26zM213 169.74a63.74 63.74 0 0 0-4.1-5.89c1.24.1 2.51.21 3.8.34.77 1.54 1.58 3.08 2.4 4.64-.77.29-1.47.59-2.1.91zm11.53-13.33c0 1.34.09 2.69.17 4.05q-2.05-2.24-4.06-4.46c1.24.13 2.54.26 3.86.41zm-.48 10.7c1.35-.56 2.21 1.78.73 2.16-1.47.54-2.28-1.78-.78-2.16zm2.54 14.7c-1 1.47-3.55-.19-2.36-1.64.94-1.49 3.46.17 2.32 1.64zm3-12.14c-1 1.31-3.2-.27-2.15-1.56s3.14.24 2.1 1.56zm579.09 989.69c1.16-1.08 2.49 1 1.32 1.85-1.24 1.07-2.6-1.06-1.37-1.85zm312-234c.9-1.34 3.14.24 2.15 1.56s-3.31-.32-2.2-1.61zm45.79-506.65c1.16-.83 2.43 1.24 1.32 2-1.32.84-2.61-1.26-1.37-2.05zm-3-5.22c1.85 0 1.69 3.27-.11 3.28s-1.81-3.32.05-3.33zm-1.67 326.3c1.78-.67 2.68 3.14.82 3.35-1.3-.53-1.9-2.49-.88-3.4zm-1.22-317.49c-1.55-.46-.46-2.66.89-2.13s.35 2.65-.94 2.08zm3.29 323c.84-1.16 2.8.3 1.92 1.46s-2.94-.38-1.98-1.5zm-1.2-334.05c-1.39 1.07-2.75 2.14-4.1 3.21l-.28-3.47c1.37.01 2.82.12 4.32.22zm-6.24-43.87a45.66 45.66 0 0 1-2.79-6 50.15 50.15 0 0 1 2.74 5.96zm-2.26 9l5.71 5.17c-.42 2.66-.75 5.42-1.44 8.06-2.06-1-5.93-1.36-5.78-4.37-.18-3.02.75-5.95 1.46-8.85zm-4.31 365.73c.77-1.22 2.87.12 1.92 1.33s-2.93-.16-1.97-1.32zm-1.47 30.8c-1.71 0-1.57-2.73.08-2.66s1.45 2.75-.13 2.67zm-2.67-375.54c1.19-1.31 3.33.8 2 2s-3.37-.78-2.05-1.99zm1.6 3.62v3.17l-2.37-.76-.76-2.37zm-.16 25.82c-1.66.51-2.22 0-1.66-1.66 1.5-.53 2.1.03 1.61 1.67zm-10.57-99.18c2.56-.43.94 4.25-1 3.42-.91-1.05-.19-2.82.95-3.41zm-10.67 75.83c2.51-3.92 1-8.9 1.79-13.2 1.44 0 2.91.05 4.41.06-1.36 2.26-3.15 4.57-3.12 7.34.58 6.57 1.74 13.08 2.21 19.69-1.29-4.58-2.22-9.22-3.47-13.78-.43 2.73-2.12 4.92-1.84 7.91-.57-2.62-1.68-5.56-.03-8.01zm-1.43 13.31c1.51-.83 2.73 1.84 1.41 2.73-1.68.92-2.9-1.85-1.46-2.72zM1118.8 395c-1.55-.52-3-1.05-4.54-1.59 1.41-1 2.81-2.1 4.17-3.22.1 1.57.22 3.17.37 4.81zm4 23l-3.23-.54a93 93 0 0 1-.94-10.21c1.37 3.55 2.77 7.11 4.13 10.75zm-8.48-103.39c-1.85 2.15-3.92 1.39-5.72-.3 1.84.06 3.74.16 5.67.3zm-2.93 91.39c-.15-2.16-.45-6.48-.59-8.64 1.52 2.64 2.26 5.76.59 8.64zm-2.24-77c-2 .67-2.6-2.53-.68-2.92 1.93-.74 2.53 2.46.68 2.92zm-1.8-47.45c1.62.07 1.16 2.72-.23 2.82-1.68-.12-1.29-2.85.23-2.87zM1069.5 263c-.19.66-.57 2-.75 2.64h-2.84c-.18-.66-.56-2-.75-2.64h4.34zm-12.94 20.63a43.09 43.09 0 0 1 1.48-8.28c.88 2.91.04 5.79-1.48 8.3zm-.11-19.52q-2-1 0-2 1.94.98 0 2.02zm-.11-21.14c-.07 1.4-.1 2.82-.11 4.24q-2.1-2.07-4.13-4.13c1.38-.03 2.79-.08 4.24-.08zm-18.85-11.73c1.63 0 1.51 2.73-.08 2.66s-1.57-2.7.08-2.64zm-6.06-41.78a30.91 30.91 0 0 1-3.2 6.14 23.34 23.34 0 0 1 3.21-6.12zm-17.58 37.76c.82-1.58 3.9-.45 2.84 1.32-.87 1.62-3.93.46-2.83-1.3zm-2.35-10.14c1.27.66 1.26 1.34 0 2-1.35-.63-1.34-1.3.01-1.98zm-3.85-19.58c.75-1.16 2.82.11 2 1.32s-2.89-.08-1.99-1.3zm-9.09 7.38c1.54-.7 2.46 2 .82 2.38a1.26 1.26 0 1 1-.81-2.36zm-10-38.74c1.59-.53 2.15 0 1.66 1.66-1.66.53-2.22-.02-1.66-1.64zm3.26 24.6a29.38 29.38 0 0 1-5.86 3.46 26.5 26.5 0 0 1 5.85-3.44zm-6.3-8.4c1.16-1.06 2.49 1 1.32 1.85-1.19 1.1-2.56-1.02-1.32-1.83zm-29-32.26c1.27.66 1.26 1.34 0 2-1.33-.63-1.32-1.3.03-1.98zm-25-47.61c1.95.61-.16 3.86-1.66 2.78-.95-1.09.32-2.84 1.64-2.76zm-1.95 30.87c1.16-1.06 2.49 1 1.32 1.85-1.21 1.1-2.58-1.02-1.34-1.83zm-10.67-30.69c.66 1.35 1.28 2.72 1.9 4.12-1.17.47-2.31 1-3.41 1.45q.72-2.79 1.51-5.57zm-11.78 1c-1.35 1.06-2.91-1.21-1.56-2.15s2.84 1.21 1.56 2.16zm-.57 7.47c-1.33-.68-1.32-1.35 0-2 1.3.64 1.29 1.32 0 2.01zm-2.45-16c.92-1.53 3.89-.19 2.84 1.52-.94 1.54-3.88.18-2.84-1.49zm6.16 26.52c-.62-1.61-1.24-3.22-1.8-4.82 1.84.59 3.72 1.21 5.6 1.84a79.85 79.85 0 0 1 11.59-7.83c-5.8 8.14-14.42 13.47-22.22 19.44a99.43 99.43 0 0 1 6.83-8.6zm-13.17-35.08v3l-2.19.05q-.34-1.87-.57-3.72zm-22.32 12.51l.82-1.13c3.33-.54.01 4.27-.82 1.13zm-.79-8c.91-1.33 3.19.24 2.15 1.56s-3.21-.23-2.13-1.52zm-3 13.13c.82-1.58 3.91-.45 2.84 1.32-.91 1.64-3.97.48-2.82-1.28zM855.6 71.94c3.33-.54 0 4.27-.82 1.13zm-2 4.22q2.4-.8 1.66 1.66c-1.62.51-2.17-.04-1.62-1.66zm-.92 21.34c1.89-.53 2.4 2.68.63 3.11-1.9.49-2.31-2.61-.59-3.11zm-17.04-36.71a2.15 2.15 0 0 1 1.88 2.95c-1.75 1.32-3.93-1.99-1.88-2.95zm5 37.73a29.25 29.25 0 0 1-4.33-8.28c2.77 1.87 3.84 5.07 4.29 8.28zm-14-12.42c1.27.66 1.26 1.34 0 2-1.37-.65-1.36-1.32-.01-2zm-3.08-13.83c2 .71-.39 3.52-1.65 2.11-.85-1.04.49-2.44 1.64-2.11zM807.69 58.9c1.54-.7 2.46 1.95.82 2.38a1.26 1.26 0 1 1-.82-2.38zm5.82 15.2c-.51 1-1 2.06-1.45 3.11-1.36-.81-2.68-1.62-4-2.45zm-15.86-14c1.27.66 1.26 1.34 0 2-1.36-.65-1.35-1.32 0-2zm-7 7.06q2.4-.8 1.66 1.66c-1.63.51-2.18-.04-1.63-1.66zm-9.82 3a36.94 36.94 0 0 1 7 3 27.31 27.31 0 0 1-6.97-3.01zm2.49 5.67c-1.66.51-2.21 0-1.66-1.66 1.63-.54 2.18.01 1.69 1.65zm-1.66-11.58c1.55-.5 2.26 2.13.66 2.5s-2.32-2.16-.63-2.51zm-9.83-8.66c1-1.15 3.11.61 2 1.8s-3.1-.64-1.98-1.81zm-5.3 4.26l3.57.63v2q-1.83.3-3.57.63zM760.15 30c2.14 1.84 1.38 3.9-.3 5.72.04-1.9.15-3.81.3-5.72zm.26 20.45c-1.33 1-2.91-1.22-1.56-2.15s2.84 1.21 1.56 2.17zm-1.69-12.55c1.54-.7 2.46 1.95.82 2.38a1.26 1.26 0 1 1-.82-2.38zm-5.65 12.36c.84-1.15 2.81.31 1.92 1.46s-2.86-.33-1.91-1.46zM727.65 33.4c-.14-.32-.42-1-.57-1.29 1.39-2.19 3.14 1.89.57 1.29zM716.57 24c-.1.9-.28 2.69-.37 3.58a54 54 0 0 1-4.2-4.39c1.5.25 3 .53 4.57.81zm-6.72 14.84c2.44-.28 1.27 4.45-.82 3.4a2.45 2.45 0 0 1 .82-3.4zm1.3 26.54c-1.06 1.11-3.19-.55-2.18-1.78s3.13.53 2.18 1.78zm-47.29-37.93l3.32-.31q-1.59 2.72-3.34 5.3c-.04-1.68-.02-3.34.02-4.99zm-7.16 12.43c-.18 1.55-.34 3.12-.48 4.69a87.973 87.973 0 0 1-4.21-4.21c1.54-.18 3.11-.36 4.7-.48zm-7.84 4.65c1.11-.93 2.57 1 1.46 1.92s-2.62-1.06-1.45-1.92zm-17-6c1.11-.93 2.57 1 1.46 1.92s-2.6-1.06-1.44-1.92zm-57.04-18.37c1.6-.53 2.15 0 1.66 1.66-1.65.51-2.21-.04-1.66-1.66zm-7 11q2.4-.8 1.66 1.66c-1.64.51-2.2-.04-1.65-1.66zm-7-10q2.4-.8 1.66 1.66c-1.64.51-2.2-.04-1.65-1.66zm-32.95.14c1.44-.07 1.44 2.43 0 2.38a1.19 1.19 0 0 1 .01-2.38zm-6 14.86q2.4-.8 1.66 1.66c-1.67.51-2.22-.04-1.68-1.66zm-37.61 23.1c.85-1.15 2.81.31 1.92 1.46s-2.88-.33-1.93-1.46zm-7.37-6.1c1.6-.53 2.15 0 1.66 1.66-1.66.51-2.22-.04-1.67-1.66zm-18.76-10c1.38-.45 1.86 0 1.45 1.45-1.42.39-1.91-.08-1.45-1.47zm-21.88 24a27.38 27.38 0 0 1-4.93-4.5 26.27 26.27 0 0 1 4.93 4.51zM393.91 93.1c1.27.66 1.27 1.34 0 2-1.35-.65-1.35-1.32 0-2zM385 87.9c1.54-.7 2.47 2 .82 2.38a1.26 1.26 0 1 1-.82-2.38zm-3.07-27.39c1.28-1 2.85 1.2 1.56 2.15s-2.94-1.21-1.6-2.15zm1 39.62c-1.32-.68-1.31-1.35 0-2 1.25.63 1.25 1.31-.05 2zM381 74.87c1.27-.85 3.18 1.26 2.24 2.48-1.35.96-3.31-1.22-2.24-2.48zm-19 4.03c1.54-.7 2.47 2 .82 2.38a1.26 1.26 0 1 1-.82-2.38zm-3-1.74c1.6-.53 2.16 0 1.66 1.66-1.66.51-2.25-.04-1.66-1.66zm-1.78 4.34c2.64-.48.49 4.53-1.44 3.24-.78-1.17.41-2.62 1.4-3.24zm-4.26-4c1.16-.94 2.53 1.11 1.33 1.92-1.29.99-2.6-1.1-1.37-1.9zm-.81 5.8c1.29-1.08 2.85 1.19 1.56 2.15s-2.95-1.2-1.6-2.13zm0 20.22l-2.18 1.58c-.35-1.82-.68-3.64-1-5.44q1.58 1.91 3.15 3.88zm-.31-24.3c-.06.79-.2 2.37-.26 3.16-1.44-.94-2.85-1.9-4.21-2.88 1.43-.09 2.94-.17 4.44-.26zm-4.62 17.9c1.38-.45 1.86 0 1.45 1.45-1.44.43-1.93-.04-1.47-1.43zm-3.23-12c1.6-.53 2.16 0 1.66 1.66-1.65.55-2.23 0-1.65-1.62zm-9.38 33.11c1.18-1.3 3.84.47 2.83 2-1.22 1.25-3.82-.45-2.85-1.96zm-3.94-18.43c.69 1.32 1.41 2.66 2.15 4-1 .35-2 .72-3 1.09q-1.2-1.89-2.31-3.77c1-.43 2.06-.86 3.14-1.28zm-1 23c-1.65.51-2.21 0-1.66-1.66 1.57-.51 2.13.04 1.63 1.68zM319 93.16c1.6-.53 2.16 0 1.66 1.66-1.66.51-2.22-.04-1.66-1.66zm-4 13.15c1.44-1.18 3.09 1.35 1.64 2.36s-3.15-1.37-1.64-2.36zm-1 23.85c1.6-.53 2.16 0 1.66 1.66-1.66.51-2.22-.04-1.66-1.66zm-2-8.37c1.39-.46 1.9 1.93.66 2.4-1.45.44-1.97-1.96-.66-2.4zm-6.2 5l1.95 1.35.08 2.78c-1.31.2-2.57.43-3.83.65q.85-2.38 1.79-4.75zm-4.65-20.65c.85-1.39 3.22.06 2.15 1.43-.9 1.43-3.3-.05-2.15-1.4zM300 116.1c1.28.66 1.27 1.34 0 2-1.38-.65-1.37-1.32 0-2zm-4.28 25.38q-2.26-1.56-4.42-3.16h4.11c.05.78.2 2.37.28 3.16zm-3.81 2.33c-1.38.41-2.74.85-4.07 1.3 0-.76.1-2.29.14-3.06 1.07-.27 2.19-.51 3.32-.75.12.62.43 1.88.58 2.51zm-.09-14.43c-1.48-.64-2.9-1.3-4.3-2 1.22-.42 2.52-.8 3.81-1.18.09.8.34 2.39.46 3.18zm-4.43-22.26c.79-1.21 2.88.13 1.92 1.33s-2.89-.16-1.94-1.33zM273 113.3c1.45-.07 1.45 2.43 0 2.38a1.19 1.19 0 0 1 0-2.38zm-2 48c1.34-1.09 2.8 1.27 1.43 2.15-1.35 1.09-2.8-1.28-1.43-2.14zm-3.08-6.91c-.14-.32-.42-1-.57-1.29 1.43-2.18 3.18 1.9.6 1.3zm1.32 22c-8.37 5-18.27 7-27.9 7.18 8.58-4.76 18.51-5.26 27.93-7.19zm-3-19.72c1.39-.79 2.6 1.64 1.39 2.51-1.41.72-2.63-1.68-1.4-2.52zM263 137.16c1.6-.53 2.16 0 1.66 1.66-1.66.51-2.19-.04-1.66-1.66zm-3.88-6.64c.76-1.16 2.83.11 2 1.32s-2.87-.1-1.98-1.32zm-.12 28.64c1.6-.53 2.16 0 1.66 1.66-1.66.51-2.19-.04-1.66-1.66zm-1.16 3.84v3.17l-2.37-.76-.76-2.37zm-7.67-9.68c1.29-1.08 2.85 1.19 1.56 2.15s-2.89-1.23-1.55-2.15zm-1 16.21c1.11-.93 2.57 1 1.46 1.92s-2.63-1.06-1.5-1.92zm-.75 3.58c.92-1.33 3.19.24 2.15 1.56s-3.24-.27-2.19-1.56zm-7.44-2.62c2 .61-.15 3.86-1.66 2.78-.95-1.11.32-2.86 1.63-2.78zM219 207.1c1.28.66 1.27 1.34 0 2-1.33-.65-1.32-1.32 0-2zm-9.08 6.84a22 22 0 0 1-4.58-4.14 26.37 26.37 0 0 1 4.6 4.14zm-8.87-8.78c1.6-.53 2.16 0 1.66 1.66q-2.46.77-1.65-1.66zM201 217.4c-.14-.32-.42-1-.57-1.29 1.39-2.19 3.14 1.89.57 1.29zm-3.27 8.42q-2.47.77-1.66-1.66c1.59-.53 2.15.02 1.65 1.66zM196 207.1c1.28.66 1.27 1.34 0 2-1.32-.65-1.3-1.32 0-2zm-4.94 13.2c1.45-.07 1.45 2.43 0 2.38a1.19 1.19 0 0 1 .04-2.38zm-2.94-.77c1.66.38.59 3-.89 2.56-1.64-.42-.47-2.84.93-2.56zm-12-5c1.12-.93 2.58 1 1.46 1.92s-2.58-1.06-1.4-1.92zm.35 22.26c-1.59.07-3.16.15-4.7.24.57-2.17 1.12-4.34 1.71-6.49 1.13 2.04 2.12 4.12 3.05 6.25zm-5.3-11.47c1.29-1.08 2.85 1.19 1.56 2.15s-2.84-1.23-1.5-2.15zm-2.47 22.27c-1.42.42-1.9-.06-1.45-1.45 1.44-.45 1.92.03 1.51 1.45zm-2.67-30.28c1.34-1.09 2.8 1.27 1.43 2.15-1.32 1.08-2.77-1.29-1.37-2.15zm-12 17.85c1.6-.53 2.16 0 1.66 1.66q-2.41.77-1.6-1.66zm-14.76 20c1.38-.45 1.87 0 1.45 1.45-1.36.39-1.84-.08-1.39-1.47zm-5.07 54.44c1-1.15 3.11.61 2 1.8s-3.06-.65-1.94-1.82zm-2.79-47.32c.85-1.15 2.82.31 1.92 1.46s-2.79-.35-1.85-1.48zM114 305.81l2.37.76.76 2.37-3.13.06zM75.11 355.1c1.28.66 1.27 1.34 0 2q-2.01-.99 0-2zm-23.72 384c1.38-.46 1.87 0 1.45 1.45-1.42.45-1.9-.03-1.45-1.41zm-27.7-91.33c-1 1.46-3.55-.19-2.36-1.64.98-1.46 3.5.2 2.35 1.68zm3.9 12.55c-1.46 1.07-3.54-1.32-2.28-2.61 1.39-1.03 3.41 1.35 2.27 2.65zm2.88 74.08c-1.21 1-2.56-1.13-1.33-1.92 1.15-.9 2.52 1.14 1.32 1.96zm5.08-95.73c-2.09-2.31-4.07-4.71-6-7.15a21.51 21.51 0 0 1 12 1.51zm8.38 156c-.74-2.26-1.42-4.48-2.11-6.71l3.89.19c-.54 2.18-1.07 4.37-1.79 6.52zm5.17-102.54c-1.32-.69-1.31-1.36 0-2 1.31.63 1.3 1.3 0 2zm3.77 62.34c-1.33 1-2.9-1.23-1.56-2.15 1.29-1.09 2.85 1.18 1.56 2.15zm2-61.8a52 52 0 0 1 8-1.61 17.68 17.68 0 0 1 1.13 7c-3.21 1.19-6.29-.61-9.17-1.78.07-.91.08-2.71.08-3.61zM62 732.92c-1.7 0-1.56-2.73.08-2.66s1.56 2.74-.08 2.66zm-.6 28.8c-.9 1.12-2.86-.34-1.92-1.46s2.86.3 1.96 1.46zm.22 40.09c-1 1.46-3.55-.2-2.36-1.64 1.01-1.5 3.54.16 2.4 1.64zM60 823.5c1.63.06 1.17 2.71-.23 2.82-1.65-.08-1.26-2.8.23-2.82zm1.07 9.63c-1.32-.69-1.31-1.36 0-2q1.93.95.02 2zm-1.37-86.87c1.19-1.35 3.83.53 2.61 2-1.18 1.36-3.69-.56-2.59-2zm3.41 62.4c1.18-.84 2.45 1.24 1.32 2s-2.52-1.22-1.3-2zm0 18.65a31.61 31.61 0 0 1 3.06 5.19 50.76 50.76 0 0 1-3.07-5.19zm5-93.15c1.61-.54 2.16 0 1.66 1.66q-2.44.75-1.62-1.66zm1.68 93.43c-1.42.41-1.9-.07-1.45-1.45 1.42-.46 1.9.03 1.48 1.45zm0-3c-1.63.6-2.26-2.08-.66-2.46 1.64-.7 2.18 1.98.67 2.43zm4.59 6.85l-2.37.76L72 829h3.17zm-2.28-88.92c1.16-.94 2.53 1.1 1.33 1.92s-2.56-1.13-1.33-1.92zM153 904.76c-.2 1.57-.38 3.17-.56 4.78q-1.35-1.88-2.62-3.72zm-2.95-44.6c1.6-.54 2.16 0 1.66 1.66q-2.43.75-1.62-1.66zm2.23 69c1.38-.46 1.87 0 1.45 1.45-1.38.39-1.86-.09-1.41-1.47zm-3.28-4.1v-1.14c1.47-.26 3-.51 4.48-.73v2.6c-1.48-.25-3.03-.51-4.48-.73zm4.76-12.39c-1.49 1.15-3.14-1.38-1.64-2.36 1.42-1.19 3.07 1.34 1.62 2.36zM141.9 572c-2.46 16.05-1.57 32.45-4.41 48.49-4 21.9-10.79 43.17-17.94 64.22-3.25 9.63-6.32 19.35-10.49 28.63 2.13-12.72 7-24.78 9.91-37.3a403.66 403.66 0 0 0 12.7-76.08c.76-11.86 1.83-24.16 7.37-34.89a115.45 115.45 0 0 1 15-21.31C149.65 553 143.4 561.55 141.9 572zM122 907.19c0-1.42-.07-2.82-.07-4.21l3.32.18c-1.07 1.34-2.16 2.68-3.25 4.03zm2 21.73c-1.7 0-1.56-2.73.08-2.66s1.52 2.74-.08 2.66zm4-177.79v-4.32c1.38.93 2.78 1.88 4.18 2.85-1.44.47-2.83.96-4.18 1.47zm1 115.68l2.37.76.76 2.37h-3.17zm-.22-101q-2.47.75-1.66-1.66c1.59-.53 2.15.02 1.65 1.67zm-1.1 44.63c-1.16.9-2.63-1.07-1.46-1.92s2.57 1.03 1.45 1.93zm.13 26c-1.17 1.35-2.94-.89-1.72-1.94 1.17-1.29 2.74.84 1.71 1.94zm-1.4-108c-1.21 1-2.56-1.13-1.33-1.92 1.15-.94 2.52 1.1 1.32 1.92zm-1.61 73.15c-1.42.41-1.9-.07-1.45-1.45 1.37-.46 1.86.03 1.44 1.45zm-.24 10.87c-1.38 1.07-2.83-1.3-1.43-2.15 1.33-1.09 2.8 1.26 1.42 2.15zm-1.31 18.11c.19 1.45.4 2.91.63 4.39l-3.3-.17c.85-1.43 1.74-2.79 2.66-4.22zM122 838.4c-.14-.32-.42-1-.57-1.29 1.44-2.2 3.19 1.89.57 1.29zm0 35.79c1.83-.61 2.7 2.52.79 2.94-1.87.6-2.68-2.53-.74-2.94zm11 7.81c2 5.06-3.14 8.82-7.09 10.79a111.08 111.08 0 0 1-3.52-13.22c3.61-1.84 8.75-1.95 10.61 2.43zm-1.77-51.76c1.77.49 3.55.94 5.38 1.42-1.07.62-2.06 1.34-3.13 1.93-.82-1.14-1.53-2.29-2.24-3.39zm5.69-8.93c-.12.58-.37 1.73-.49 2.31h-2c-.26-1.2-.49-2.39-.7-3.55 1.06.34 2.11.76 3.19 1.2zm-2.82-26.11c1.6-.54 2.16 0 1.66 1.66q-2.47.71-1.66-1.7zm2.23 52c1.38-.46 1.87 0 1.45 1.45-1.42.35-1.9-.13-1.45-1.51zm1.13-5.86c1.21-.89 2.49 1.22 1.32 2s-2.5-1.34-1.32-2.06zm4.94-134.82c.16.66.47 2 .63 2.64-1.21-.2-2.4-.4-3.57-.58-.16-.66-.47-2-.63-2.64 1.17.11 2.36.3 3.57.52zm.07-8.2c.85-1.16 2.82.3 1.92 1.46s-2.86-.4-1.92-1.52zM139.92 736v-4h2v4zm.84 46.83q-2.47.75-1.66-1.66c1.6-.55 2.16 0 1.66 1.65zM139 876.4c-.14-.32-.42-1-.57-1.29 1.43-2.2 3.18 1.89.57 1.29zm2.09 41.5c1.55-.71 2.47 1.94.82 2.38-1.57.65-2.47-1.95-.79-2.38zm1.49 38.33c.91-1.39 3.55 0 2.64 1.52-.93 1.35-3.56-.01-2.61-1.52zm1.64-45.91c1.29-1.09 2.85 1.18 1.56 2.15s-2.87-1.24-1.53-2.15zm1.88-14.64c-1.49 0-1.49-2.42 0-2.38s1.48 2.42.03 2.38zM111 793v-3.17l2.37.76.76 2.37zm-.18 17.21c-1.44.43-2-2-.66-2.4s1.84 1.9.62 2.38zm.34-55c1.6-.54 2.16 0 1.66 1.66q-2.52.7-1.7-1.71zm2.84 11.71c-1.7 0-1.56-2.73.08-2.66s1.53 2.74-.08 2.66zm1.77 139.36c-.39 1.55-3.17 1-2.65-.63.45-1.41 3.03-.93 2.66.63zM114 893.64a30 30 0 0 1 2.84-6.3 34.94 34.94 0 0 1-2.84 6.3zm1.21 20.88c.76-1.17 2.83.1 2 1.32s-2.86-.11-1.97-1.32zm1.15-28.36c-1.24-1.59-2.45-3.15-3.65-4.71-1.1.93-2.21 1.85-3.29 2.79a33.23 33.23 0 0 1 2-5.07c2.8-.37 5.36 1.28 8 2q-1.49 2.51-3.03 4.99zm-5.16-25.39c1.5-1 3.2 1.64 2 2.83-1.51 1.02-3.28-1.6-1.97-2.83zm3.12-2.63c1.38-.46 1.87 0 1.45 1.45-1.39.41-1.87-.07-1.42-1.45zm1-53c1.38-.46 1.87 0 1.45 1.45-1.39.41-1.87-.07-1.42-1.45zm.21 38.32c-1.38 1.07-2.83-1.3-1.43-2.15 1.37-1.09 2.83 1.26 1.46 2.15zm.56-41.3c1.6-.54 2.16 0 1.66 1.66q-2.45.75-1.63-1.66zm.94-48c-1.32-.69-1.31-1.36 0-2 1.33.6 1.32 1.27.02 1.97zm-.29-12.46c-1.49 1.15-3.14-1.38-1.64-2.36 1.46-1.22 3.11 1.31 1.66 2.33zm-1.6 94.53c-.57 1.35-1.13 2.7-1.64 4.09-1-.82-1.95-1.62-2.89-2.43 1.54-.57 3.04-1.13 4.56-1.69zm.73 15.41c.22 1.16.44 2.31.7 3.51a11 11 0 0 1-7.42-4.57c2.25.32 4.49.71 6.75 1.03zm-6.12-4.79q-2.47.75-1.66-1.66c1.63-.57 2.19-.02 1.69 1.63zm.09 46c0 1.37.07 2.77.13 4.18-1-.46-2.06-.9-3.07-1.32.14-.53.4-1.6.53-2.13zm2.58 2.62c.08 1.81.18 3.67.27 5.52l-3.14-.14a56.51 56.51 0 0 1 2.9-5.39zm6.91 26.24c-1.17 1.73-2.37 3.44-3.56 5.16-1.25-.61-2.47-1.19-3.66-1.75a21.12 21.12 0 0 1 7.24-3.42zm-.08-1.86c-.83 1.17-2.93-.11-2-1.32s2.81.09 2.02 1.31zm-.08-17.52c-1.52-.18-1.62-2.79 0-2.82s1.59 2.81.02 2.81zm-8.36-71.47l-.86.86c1.48-.16 3-.32 4.49-.44-1.66 1.78-3.4 3.49-5.12 5.22.19-1.61.4-3.21.63-4.78-1.37 2.23-3.58 2.21-5.73 1.16a17 17 0 0 1 6.61-2.03zm-13.3 57.52a12.94 12.94 0 0 1 8.1-4.73 13.86 13.86 0 0 1-8.08 4.72zm4 4.21c-1.95-.38-1.16-3.39.66-3.09s1.17 3.58-.68 3.08zM93 891l4.69 1.42a267.9 267.9 0 0 0 2.18 6.81c-.95-.28-1.87-.55-2.77-.79A13.54 13.54 0 0 0 93 891zm1.09 5.14c-1.32-.69-1.31-1.36 0-2q1.91.94-.02 1.99zm-3-57q1.92 1 0 2c-1.34-.7-1.33-1.37.01-2.04zm-1-15c-1.32-.69-1.31-1.36 0-2q1.91.94-.02 1.99zm2-7c-1.32-.69-1.31-1.36 0-2q1.91.94-.02 1.99zm1.42 17.15c1.21-.89 2.49 1.22 1.32 2s-2.52-1.29-1.34-2.01zm-1 14c1.21-.89 2.49 1.22 1.32 2s-2.52-1.29-1.34-2.01zm.92 28.91a39.74 39.74 0 0 1 2.57 9.17c-2-2.74-5.67-5.82-2.59-9.18zm2.07-7.08c.92-1.34 3.2.23 2.15 1.56s-3.22-.29-2.17-1.57zm2-19.83c1.21-.89 2.49 1.22 1.32 2s-2.51-1.29-1.33-2.01zm7.71-63.49c1.61-.07 1.45 2.72 0 2.88-1.67 0-1.41-2.68-.02-2.89zm2.22-46.07c-.9 1.12-2.86-.34-1.92-1.46s2.8.29 1.9 1.45zm-3.36-12.32c-.14-.32-.42-1-.57-1.29 1.38-2.21 3.13 1.88.55 1.28zm.37 145.2c-.89 1.38-3.25-.09-2.15-1.43.83-1.41 3.2.04 2.13 1.42zm-1.79-21.79c-1 1.46-3.55-.2-2.36-1.64.95-1.51 3.48.15 2.34 1.63zm-1.51-40.65c1.6-.54 2.16 0 1.66 1.66q-2.49.74-1.68-1.67zm-.65 65.38c-.89 1.34-3.57.11-2.73-1.41s3.61-.22 2.72 1.4zm-1-65.84c-1.26.85-2.54-1.26-1.32-2s2.39 1.19 1.26 1.99zm-2.71-34.77c-1.81.6-2.46-2.36-.67-2.72 1.67-.58 2.35 2.31.61 2.71zm-1.56-34c-1.53.07-1.42-2.36 0-2.4s1.35 2.32-.06 2.35zm-1.52 25.77c-1.34 1-2.9-1.22-1.56-2.15s2.79 1.14 1.5 2.1zm.09 38.4c-1.09.92-3.44-.55-2.78-1.9 1.06-1.28 3.64.3 2.72 1.85zm-1.92 1.53c-1.42.41-1.9-.07-1.45-1.45 1.32-.51 1.81-.02 1.39 1.4zm-1.65 6.68c-1.38 1.1-3.7-1.07-2.77-2.51 1.23-.92 3.64 1.03 2.71 2.46zm-6.88 24.22c1.68-1.09 3 1.87 1.52 2.84-1.74.94-3.12-1.96-1.57-2.89zm-.19-23c1.16-1 2.53 1.1 1.33 1.92s-2.61-1.15-1.38-1.94zm4 1.85c1.65.38.55 2.94-.89 2.56-1.76-.43-.64-2.95.81-2.58zm-3.33-43.56c.7-.7 1.43-1.38 2.17-2l3.01 3.32c-1.75-.46-3.51-.91-5.25-1.34zm-3.42-19.65c-1.74-1.9-3.45-3.8-5.22-5.63.82-5.1 1.48-10.24 2.19-15.34 2.62 1.32 6.58 2.44 6.87 5.94-.6 5.15-2.93 9.92-3.84 15.03zm-2.6 119.64q-2.47.75-1.66-1.66 2.41-.81 1.66 1.66zm1.95-19c-1.27.05-2.53.12-3.76.21v-4.26q2.44.58 4.94 1.22c-.4.95-.8 1.9-1.18 2.86zm1-4.11c-1.6.48-2.31-2.15-.66-2.5 1.61-.48 2.32 2.15.71 2.53zm.41-68.51a2.12 2.12 0 0 1-.89-3.46c1.99-.84 2.98 3.26.94 3.49zm2.95 78.53q3.06.69 6.16 1.67c-2.8.94-5.59 1.9-8.38 2.79q1.11-2.19 2.27-4.43zm-.09 22.64c-.14-.32-.42-1-.57-1.29 1.45-2.17 3.19 1.92.62 1.32zm2.1-3.11c-.09-1.44-.16-2.87-.2-4.27h3.2q-1.47 2.17-2.96 4.3zm4.65 12.3c-1.42.41-1.9-.07-1.45-1.45 1.42-.43 1.91.06 1.49 1.48zm.06-5.29a41.39 41.39 0 0 1 6.95 1.85c-1.94.32-3.81.7-5.69 1.07-.28-.7-.91-2.19-1.22-2.89zm1.72 13c1.37-.1 2.76-.17 4.18-.23q.48 1.65 1 3.36zm8.53-1.07c1.93.48.76 3.55-1 2.92-1.95-.54-.74-3.5 1.04-2.92zm1.18 11.09c-1.2 1.33-3.71-.6-2.61-2s3.87.5 2.65 2zm1.11-4.57c-.9 1.12-2.86-.34-1.92-1.46s2.86.3 1.96 1.46zm1.65 15.41c-1.32-.69-1.31-1.36 0-2q1.98.95.04 2zm2-20.61c1.16-.95 2.53 1.1 1.33 1.92s-2.5-1.13-1.27-1.92zm.39 11.59c.92-1.34 3.2.23 2.15 1.56s-3.14-.28-2.09-1.56zm1.86 9.26c1.31-1.39 3.59.89 2.24 2.24s-3.57-.93-2.18-2.24zm4.5 12.1c-1.33 1-2.9-1.24-1.56-2.15 1.35-1.09 2.91 1.18 1.62 2.15zm2.39.06c1.12-.94 2.58 1 1.46 1.92s-2.62-1.07-1.4-1.92zm1.56 13.21c-1.6.48-2.31-2.16-.66-2.5 1.61-.51 2.32 2.12.71 2.5zm-.56-8.54a26.23 26.23 0 0 1 8.26 3.9 19 19 0 0 1-8.21-3.9zm8-39.13l.82-1.13c3.42-.54.11 4.26-.73 1.13zm2.45 13.68c-1.84.73-2.42-2.28-.68-2.68 1.9-.74 2.41 2.2.77 2.68zm1.82-15.18l2.37-.76v3.17h-3.17zm1.62 53.32c-1.53.06-1.42-2.37 0-2.4s1.49 2.37.09 2.4zm3.26 1.55c-1.21 1-2.56-1.13-1.33-1.92 1.24-.95 2.61 1.1 1.41 1.92zm1.74-42.14c1.51-.84 3.19 1.66 1.3 2.35-1.49.92-3.07-1.65-1.22-2.35zm.9 41.1c-.14-.32-.42-1-.57-1.29 1.48-2.2 3.23 1.89.62 1.29zm1.37 13.2c-.89 1.38-3.25-.09-2.15-1.43.93-1.4 3.3.05 2.23 1.43zm.54-28.6h3.17l-.76 2.37-2.37.76zm3.91 31.3c-.67-1.92-1.32-3.82-1.92-5.73l2.64-.38c1.2 1.59 2.45 3.16 3.72 4.75-1.42.44-2.9.89-4.36 1.36zm7.8.15c-1.16.9-2.63-1.07-1.46-1.92s2.66 1.02 1.54 1.92zm1.2-6.16c.88-1.31 1.78-2.6 2.73-3.85v4.23zm2.39-215.12c.85-1.39 3.22 0 2.15 1.43-.81 1.4-3.17-.09-2.07-1.43zM156 865.4c-.14-.32-.42-1-.57-1.29 1.42-2.2 3.17 1.89.57 1.29zm256.35-415.74c3.27 13.84 11.71 25.47 19.78 36.87a100.9 100.9 0 0 1 9.49 50.47c-2.27 9.47-9.16 18.51-18.91 21-20.29 5-41.38 4-62 7-11.67 1-22.83 4.58-34.23 6.92 15.95-9 34.42-11 52.31-12.73 14.29-1.56 29.1-1.86 42.55-7.58 14.12-5.63 18.45-27.74 6.15-37.32-5.54-5.3-13.89-5.08-20.67-7.58a85.08 85.08 0 0 1-38.21-29.53c-10.41-14.69-20.81-29.63-34.09-41.91-1.4-1.77-4.45-3.45-3.51-6.1 4-12.21 8-24.5 9.87-37.23-4.83 11.47-7.81 24.38-16.65 33.65-14.61-11.68-29.34-23.46-46-32.07-14.57-7.89-30.47-14.87-47.38-14.47-6.1.14-12.74.49-17.9 4.11-11.37 9.72-15.55 24.52-21.09 37.87-10.37 25-19.22 50.81-24.49 77.44-1.19 8.42-4 17.3-.47 25.57 3.3 6.92 9.22 12.05 14.23 17.73a117.7 117.7 0 0 1 25.71 41.42c-6.7-9.35-12.12-19.68-20.2-28C180 548 171.09 543.52 163.9 537c-6.08-7.81-4.75-18.63-4.71-27.83 1.63-14.67 5.86-28.92 9.94-43.05 9.3-28.7 19.19-57.22 28-86.08 4.31-12.36 7.33-25.16 12.59-37.17 7.73-18 15.06-36.84 28.59-51.47 15.32-17.4 34.93-33.7 58.9-36 17.07-2.44 32.68 6 48.61 10.56 9.31 2.37 18.42 6.87 24.45 14.6 9.77 12.07 20.17 24.08 26.31 38.54a229.82 229.82 0 0 1 14.32 47.78c3.7 19.82 4.59 40 7 60 1.25 9.94 4 19.6 5.65 29.47-13.38-22.2-12.8-49-17.44-73.77-.11 22.42.75 45.21 6.24 67.08zm-74.68 478.61c-1.44.53-2.25-1.79-.73-2.16 1.35-.57 2.21 1.77.73 2.16zm-12.89 99.1l-5.72.3c1.8-1.67 3.87-2.46 5.72-.3zm-4.62-47.15c1.51.21 3 .45 4.59.71 0 .78.06 2.33.09 3.1-1.37-.06-2.7-.1-4-.11-.27-1.26-.49-2.49-.68-3.7zm4 110.92c1.38-.46 1.86 0 1.45 1.45-1.37.41-1.86-.08-1.4-1.45zm-9.34-165.33l2.37.76.76 2.37h-3.17c.06-.75.08-2.34.09-3.13zm-1-25.69c-1.95.69-2.63-2.42-.79-2.92 1.97-.78 2.71 2.45.85 2.92zm-20.8 31.28c1.29-1.45 3.59.83 2.16 2.15-1.29 1.45-3.58-.84-2.1-2.15zm.81 25.52c-1.7 0-1.56-2.73.08-2.66s1.58 2.74-.02 2.66zm-.83-40.76c1.6-.54 2.16 0 1.66 1.66-1.66.5-2.21-.05-1.66-1.66zm1.93-6.76c-.14-.32-.42-1-.57-1.29 1.4-2.2 3.15 1.89.57 1.29zm2 24.93c1.65-.43 2.41 2.47.66 2.8s-2.48-2.46-.66-2.8zm1.07 27.16c1.48-.13 1.41 2.37 0 2.4s-1.39-2.37 0-2.4zm-14 9.77c1.64 0 1.52 2.72-.08 2.66s-1.58-2.73.08-2.66zm-3.71-107.62v-2.3h3.14v2.3c-1.09-.02-2.14-.02-3.16 0zm-6.85 72.77l-.76-2.37h3.17v3.17zm-.13 58c-.83 1.2-2.87-.17-1.92-1.33.78-1.19 2.86.16 1.9 1.37zm-2.77-45.25c-1.47 1.87-2 4.5-3.34 6.54-.59-1.84-1.13-3.67-1.66-5.49 1.63-.33 3.3-.67 4.99-1.01zm-5.51-215c1.6-.54 2.16 0 1.66 1.66-1.69.5-2.22-.05-1.69-1.66zm3.91 256.14c1.5 0 1.23 2.43-.16 2.38-1.56-.03-1.29-2.48.15-2.38zm.32 7.84c1.38-.46 1.86 0 1.45 1.45-1.43.41-1.92-.07-1.46-1.45zM255 976.59c1.12-1.3 3.38.64 2.13 1.93s-3.39-.64-2.13-1.93zm-.05-7.33c1.64-.05 1.52 2.72-.08 2.66s-1.51-2.73.13-2.66zm2.18 15.91c.85-1.4 3.22 0 2.15 1.43-.86 1.4-3.2-.09-2.11-1.43zm1.69-121.89c-1.6.65-2.5-2-.82-2.38 1.59-.71 2.51 1.94.86 2.38zm-23.13 106.39c-1.49 1.15-3.15-1.38-1.64-2.36 1.44-1.19 3.09 1.34 1.64 2.36zm-.81 10.61c-1.6.65-2.5-2-.82-2.38 1.55-.71 2.47 1.94.82 2.38zm-1.48-35.16c.79-1.23 2.88.12 1.92 1.33s-2.87-.17-1.92-1.33zm2.67 11.56c-1.5 0-1.5-2.42 0-2.38s1.45 2.42 0 2.38zm-2.72-25.9l-.4-3.35c2.16 1 4.29 2.09 6.4 3.25zm-2.07-167.23c-1.35 1.48-3.64-.84-2.16-2.15 1.29-1.4 3.6.83 2.16 2.15zm-.07 239.18c-1.79.34-2.22-2.67-.77-3.32 1.91-.62 2.45 2.76.77 3.32zm.2-603.47c.85-1.16 2.81.31 1.92 1.46s-2.86-.33-1.92-1.46zm5.86 64.74a28.27 28.27 0 0 1 0-5.67c1.26-3 5-1.79 7.53-1.89q-.29 7.2-7.53 7.56zm5.61 285v-3.17l2.37.76.76 2.37zm2.17 149h-3.17v-3.17l2.37.76zm-2.91 37.53c2.08.76 4.38 1.34 6 3a70.19 70.19 0 0 1-7.35 1.92c.41-1.71.86-3.36 1.34-4.98zm5.9-1.31c1.6-.54 2.16 0 1.66 1.66-1.7.44-2.22-.11-1.7-1.72zm2.66 10.08l.2 2.88-2.51-.7c-.26-1.16-.5-2.3-.7-3.42.97.33 1.98.75 3 1.18zm-.93-49.11c-1.92.6-2.73-2.53-.79-2.94 1.82-.67 2.69 2.46.78 2.88zm-22.41 87.74c-1 1.29-3.24-.27-2.15-1.56.9-1.37 3.14.17 2.14 1.5zm-4.91-79.65c-1.44.73-3.56-1.39-2.8-2.8 1.44-.94 3.64 1.27 2.8 2.74zM221 816.52c1.16-.95 2.53 1.1 1.33 1.92s-2.55-1.13-1.33-1.92zm-.56 101.82h3v2.19c-1.26.17-2.51.37-3.72.57zm-6.89-2.85c-1.72 1.06-3.06-1.91-1.52-2.84s3.03 1.87 1.53 2.84zm-.22 6.95c-1.21 1-2.56-1.13-1.33-1.92 1.17-.95 2.54 1.1 1.34 1.92zm-2.06-20.3c1.38-.46 1.86 0 1.45 1.45-1.41.41-1.89-.07-1.44-1.45zm1.78 4.17c1.44-1.19 3.09 1.34 1.64 2.36s-3.14-1.38-1.63-2.36zm.13-83.24l.82-1.13c3.34-.54 0 4.26-.81 1.13zm-17.68 60.78q1-2.62 2.08-5.19c.1 1.76.22 3.55.37 5.36zm3.11 40.6c-1.16.9-2.63-1.07-1.46-1.92s2.59 1.02 1.47 1.92zm-1.95-75.61c-1.83.19-2.54-2.91-.65-3.3 1.66-.17 2.43 2.93.66 3.3zm-.86-10.8l-2.45-.54c-.23-1.22-.42-2.42-.59-3.6 1.26.17 2.53.36 3.83.57-.27 1.18-.59 2.36-.78 3.53zm-1.51 85.11c1.35 1.32 2.74 2.71 4.21 4-.42 1.85-.88 3.66-1.29 5.54a12.3 12.3 0 0 1-2.9-9.54zm3.71 56.37c1.16-1 2.53 1.1 1.33 1.92s-2.54-1.13-1.33-1.92zm-.9-145.06c.37-1.29.74-2.58 1.18-3.81.67 1.4 1.32 2.83 2 4.3zm2.94-37.3c1.6-.54 2.16 0 1.66 1.66q-2.45.75-1.64-1.66zM205.9 886c-.05.83-.14 2.49-.18 3.32-1.37-1.09-2.71-2.18-4-3.25 1.35-.07 2.75-.07 4.18-.07zm-4-148v-3.17l2.37.76.76 2.37zm6.35 99.07a29.14 29.14 0 0 1-2.42-2.42 29.1 29.1 0 0 1 4.7-2.28 46.28 46.28 0 0 1-2.28 4.68zM207 880.4c-.14-.32-.42-1-.57-1.29 1.39-2.2 3.14 1.89.57 1.29zm-.91 24.5c1.55-.71 2.47 1.94.82 2.38-1.61.65-2.51-1.95-.83-2.38zm.21 18.24c1.38-.46 1.86 0 1.45 1.45-1.43.41-1.91-.07-1.46-1.45zm.77 24.52c1.57-1 2.76 1.79 1.31 2.63-1.63 1.01-2.76-1.81-1.32-2.63zm1.93-27.53c-1.32-.69-1.31-1.36 0-2q1.94.95 0 2zm1 79.27c-.14-.32-.42-1-.57-1.29 1.38-2.2 3.13 1.89.57 1.29zm-7.27-555.58c-1.65.51-2.2 0-1.66-1.66 1.59-.54 2.15.02 1.65 1.66zM188 514.12c-2-.53-.77-3.5 1-2.92s.83 3.55-1 2.92zm-3.95.56a1.19 1.19 0 0 1 0-2.38c1.5-.07 1.5 2.42.05 2.38zm-13 304c1.51-1 2.87 1.69 1.52 2.64-1.45.91-2.81-1.74-1.42-2.65zm-3.49 12.91c-.71-1.31 1.11-2.56 2.31-2.2 2.02 1.01-1.01 3.55-2.21 2.19zm7.44 169.73c-.8 1.28-3.32.27-2.38-1.18.74-1.3 3.38-.29 2.38 1.18zm-1-45.81c1.28-1 2.85 1.19 1.56 2.15s-2.87-1.23-1.56-2.15zm3.35-108.91c-.9 1.38-3.25-.09-2.15-1.43.88-1.4 3.25.05 2.18 1.43zm-1.3-201.81c1.4-.47 1.9 1.92.66 2.4-1.41.44-1.93-1.96-.63-2.4zm-.27 232.31c.16-.66.47-2 .63-2.64 1.17-.22 2.36-.41 3.57-.58-.16.66-.47 2-.63 2.64-1.18.18-2.35.37-3.54.58zm2.83 25.35c-1.16.9-2.63-1.07-1.46-1.92s2.6 1.02 1.49 1.92zm-2.9-16.63q-2.47.75-1.66-1.66c1.63-.54 2.19.01 1.69 1.66zm-.79 62.73c2.84-.76 5.65-1.62 8.56-2.15q-2 3.06-4.16 6zm12.89-21.49c-1.34-.06-2.65-.11-3.94-.13.39-1.69.8-3.37 1.22-5q1.35 2.55 2.75 5.13zm-.62-35.74c1.29-1.09 2.85 1.18 1.56 2.15s-2.87-1.24-1.53-2.15zm-1.73-43.79c-1.31 1.16-3.26-1.07-2-2.23s3.28 1.02 2.03 2.23zm-1.86-23.08c-1.16.9-2.63-1.07-1.46-1.92s2.61 1.02 1.49 1.92zm-.91 67.22c-1.49 1.15-3.15-1.38-1.64-2.36 1.47-1.19 3.12 1.34 1.67 2.36zm-1.51 5.53c1.8-1.35 3.13 1.6 1.21 2.41-1.79 1.39-3.07-1.61-1.18-2.41zm2.86 20.27c1.7 0 1.7 3 0 3s-1.72-2.96.03-3zm0 72.69c1.6-.54 2.16 0 1.66 1.66q-2.44.75-1.63-1.66zm1-40c1.6-.54 2.16 0 1.66 1.66q-2.44.75-1.63-1.66zm.34-10.31c1-1.5 2.07-3 3.16-4.42v4.11zM187.2 901c.09-1.55.19-3.09.29-4.62h2c.15 1.48.31 3 .52 4.49zm2.1 48.11c1.38-.46 1.86 0 1.45 1.45-1.42.44-1.9-.04-1.45-1.42zm-29.21-40c1.6-.54 2.16 0 1.66 1.66q-2.48.8-1.66-1.61zm-.48 4.69c-1.65.94-3.46-1.79-1.52-2.59 1.59-.83 3.45 1.79 1.52 2.64zm-1.86 84q-2.47.75-1.66-1.66c1.6-.52 2.16.03 1.66 1.68zm.32-67.12c1.45-.94 2.46 1.58 1.18 2.38-1.47 1.05-2.48-1.62-1.18-2.36zm3.27 21.41c-1.64 1.11-2.66-1.84-1.2-2.6 1.64-1.06 2.63 1.79 1.2 2.62zm1.43-28.52c-1.42.41-1.9-.07-1.45-1.45 1.38-.44 1.86.05 1.45 1.47zm.62-36c-.89 1.38-3.25-.09-2.15-1.43.85-1.37 3.21.08 2.15 1.46zm.35-15.93c-1.49 1.15-3.14-1.38-1.64-2.36 1.43-1.16 3.08 1.37 1.63 2.39zm3.86 90c-1.34 1.05-2.9-1.23-1.56-2.15s2.84 1.21 1.55 2.17zm1.4-85.51c-1.32-.69-1.31-1.36 0-2q2 .95 0 2zm1.06 61c1.6-.54 2.16 0 1.66 1.66q-2.45.78-1.64-1.63zm1.07 49.89c1.78-.64 2.42 2.32.67 2.72s-2.43-2.32-.65-2.69zm.24 32.45c-.22-1.22-.42-2.42-.59-3.59q2.34.79 4.73 1.67c-1.68-4.09.44-8.28 1.94-12 1 2.62 2 5.29 2.83 8-1.37-.19-2.71-.35-4-.49-.11 1.92-.25 3.84-.39 5.8-.09-.33-.26-1-.35-1.3l-1.88 2.48zm6.35 12.9c-1.29 1.33-3.68-.77-2.35-2.14s3.69.77 2.37 2.17zm2-1.23l2.21-1.22c2.23 3.52 4.6 7.1 6.75 10.74a33.46 33.46 0 0 1-8.98-9.49zm8.22-31.94c.92-.81 1.87-1.58 2.84-2.34.3 2.74.62 5.51.91 8.28q-1.95-2.97-3.76-5.91zm4.37-83.09c1.38-.46 1.86 0 1.45 1.45-1.43.44-1.91-.04-1.46-1.42zm.89 83.28c1.39 1.44 2.74 2.94 4.09 4.48-1.37-.11-2.72-.21-4-.29-.1-1.39-.11-2.78-.1-4.16zm.7 12.56l3.17.06c-.23 1.11-.44 2.25-.64 3.41l-2.48.7c-.05-1.38-.07-2.77-.06-4.12zm.94 25.15a43.74 43.74 0 0 1 4.47 7.52c-3.98-.62-5.37-3.82-4.49-7.49zm4.78-8.67c-.81 1.13-2.88-.14-2-1.32s2.82.09 1.98 1.35zm-2.68-2.31a27.65 27.65 0 0 1 4.37-8.54c.69 3.7-.45 7.49-4.39 8.57zm4.64-97c1.25-1.28 3.37.84 2.13 2.13s-3.34-.85-2.15-2.06zm2.16 67.63q-2.47.75-1.66-1.66c1.58-.47 2.14.08 1.64 1.73zm-.29-53.56c.85-1.16 2.81.3 1.92 1.46s-2.88-.27-1.94-1.39zm1.94 84.44c-.21-1.3-.41-2.57-.57-3.83 1.17.17 2.38.36 3.6.59.14.61.41 1.84.54 2.45-1.24.31-2.41.59-3.59.86zm.79-6.17c0-1.68-.06-3.36 0-5a83.33 83.33 0 0 1 3.34 5.3zm5.56-10.71q-2.47.75-1.66-1.66c1.57-.47 2.13.08 1.63 1.73zm1.09-24.91c-1.85.71-2.36-2.24-.68-2.68 1.77-.69 2.34 2.31.65 2.75zm1-47c1.21.16 2.46.35 3.72.57v2.19h-3zm3.28 77.27c1.6-.54 2.16 0 1.66 1.66q-2.53.8-1.72-1.61zm.94 30c-1.32-.69-1.31-1.36 0-2 1.25.64 1.24 1.32-.05 2.02zm1-117.19c-1.86-.52-.62-3.24 1-2.72 1.71.48.49 3.25-1.05 2.74zm6.75 119.88c-1.65.5-2.2-.06-1.66-1.66 1.51-.52 2.06.03 1.56 1.68zm-2.8-21.18c1.13.68 2.27 1.41 3.42 2.17-.76.79-1.51 1.6-2.25 2.41-.53-1.52-.93-3.05-1.26-4.56zm3.8 14.1c-1.6.48-2.31-2.16-.66-2.5 1.46-.49 2.17 2.14.56 2.52zm-4.58-44.69a20.3 20.3 0 0 1 6.5 3.88 20.67 20.67 0 0 1-6.59-3.86zm6.15-145.91c1.38-.46 1.86 0 1.45 1.45-1.52.43-2-.05-1.55-1.43zm.87 162.63a2.28 2.28 0 0 1 3.29 0c.47 2.25-4.72 2.55-3.39.02zm2 15.26c2-.42 2.33 3 .21 2.75a1.39 1.39 0 1 1-.31-2.76zm2.32 39.5c-1.32 1.16-3.26-1.07-2-2.23s3.15 1.03 1.9 2.25zm.29-74c-1.8.3-2.47-2.79-.64-3.17s2.37 2.76.54 3.17zm1.24 16c1.28-1 2.85 1.19 1.56 2.15s-3-1.23-1.65-2.15zm1 55.62q-2-1 0-2 1.84.95-.09 2zm1.57-47.47c-1.34 1-2.9-1.23-1.56-2.15s2.74 1.19 1.45 2.15zm2.93 8.8c-1.38 1.07-2.83-1.3-1.43-2.15 1.23-1.1 2.68 1.26 1.32 2.15zm2.24 5.13c-1.42.41-1.91-.07-1.45-1.45 1.26-.46 1.74.02 1.33 1.45zm-5.37-83.15c1.62-.85 3.29-1.65 5-2.42.17 1.46.37 2.95.57 4.45a95.34 95.34 0 0 1-5.68-2.03zm11.36 44.15c-1.42.41-1.91-.07-1.45-1.45 1.27-.46 1.75.02 1.34 1.45zm3 88c-1.42.41-1.91-.08-1.45-1.45 1.27-.46 1.75.02 1.34 1.45zm1-101.77c-1.65.5-2.21 0-1.66-1.66 1.47-.54 2.03.01 1.53 1.66zm0-62.15c-1.49 1.15-3.15-1.38-1.64-2.36 1.3-1.19 2.95 1.34 1.5 2.36zm.85 83.47c.77-1.22 2.88.06 2 1.32s-2.98-.14-2.14-1.32zm3.41 75.16c1.5 0 1.23 2.43-.16 2.38-1.69-.03-1.42-2.48.01-2.38zm.09-20.14c1.6-.54 2.16 0 1.66 1.66-1.83.5-2.35-.06-1.83-1.66zm.94 33q-2-1 0-2 1.8.92-.11 1.97zm-.42-74.42c2.1-3.13 5.36-6.16 9.21-6.66 4.9 1.1 4 7.4 5.55 11.3-1.1.83-2.15 1.72-3.19 2.62-4.26 5.37-15.55-.54-11.72-7.29zm15.92 54.9c-1.35 1.35-3.63-.93-2.24-2.24s3.43.86 2.09 2.21zm2.21-28.87c-1.6.48-2.31-2.16-.66-2.5 1.41-.54 2.12 2.09.51 2.47zm-.55-113c.43-1.38 3.26-1.4 3.18.29-.45 1.56-3.6 1.48-3.33-.33zm3.73 48.34c1.35-.57 2.21 1.77.73 2.16s-2.27-1.79-.73-2.16zm12.88 4.64c-2.65 4.69-8.19 4-12.79 4.09 3.64-2.84 8.21-3.84 12.77-4.09zm.51 17.22c-.7 1.89-1.43 3.78-2.28 5.62-.49-1.69-.92-3.34-1.31-5zm-4.64 6.64a23.73 23.73 0 0 1-4.44-5.7 50.51 50.51 0 0 1 4.43 5.7zM283 989.16c1.6-.54 2.16 0 1.66 1.66-1.66.5-2.2-.05-1.66-1.66zm-.33 21.78c-1.58.34-2.34-2.26-.66-2.58 1.49-.36 2.28 2.27.67 2.58zm2.53-3.85c-1.13 1.27-2.95-.81-1.78-1.87 1.15-1.22 3.01.72 1.79 1.87zm2.16 9c.79-1.23 2.88.12 1.92 1.33s-2.86-.14-1.91-1.3zm2.34 34.15c-1.44.53-2.25-1.79-.73-2.16 1.35-.54 2.21 1.8.73 2.19zm.53-36.13c1.38-.46 1.86 0 1.45 1.45-1.42.44-1.91-.04-1.45-1.42zm3.43 45.68c-1.65.5-2.21-.06-1.66-1.66 1.6-.51 2.16.04 1.66 1.69zm3.62-20.37c-.83 1.2-2.87-.17-1.92-1.33.79-1.2 2.88.15 1.92 1.36zm4.68-18.09c1.16-1.07 2.5 1 1.32 1.85-1.19 1.1-2.55-1.02-1.28-1.82zm2.72 81.23c-1.42.41-1.91-.08-1.45-1.45 1.37-.43 1.85.05 1.44 1.48zm-1.56-92.47c-1.83-.44-.72-3.19.9-2.77 1.79.42.74 3.3-.9 2.8zm-2.66-35.67c-5 .89-10.18-.1-15.17.05 1.53-2.08 2.85-4.43 5-5.93 4.52-1.74 9.49-1.72 14.25-2.54q.73 1.6 1.56 3.27c-1.78 1.83-3.34 3.99-5.64 5.18zm1.91-72.19c.85-1.16 2.81.3 1.92 1.46s-2.87-.31-1.92-1.43zm4.12-438.44c-6 3.06-9.36-6.2-4.32-8.66 5.97-3.04 9.32 6.21 4.31 8.69zm3.19 646.77c-1.42.41-1.91-.08-1.45-1.45 1.37-.43 1.85.05 1.44 1.48zm2-95c-1.42.41-1.91-.07-1.45-1.45 1.37-.43 1.85.05 1.44 1.48zm-.58-23.06c1.11-.94 2.57 1 1.46 1.92s-2.64-1.04-1.47-1.89zm2.64 53.24c-1.77.54-2.45-2.35-.67-2.72 1.76-.61 2.41 2.35.66 2.75zm2.5-22c-1.43 1.33-3.6-1.07-2.14-2.35s3.46 1.15 2.13 2.43zm1.71-80.31c1.28-1 2.85 1.19 1.56 2.15s-2.92-1.15-1.57-2.07zm2.55 178.16c-1 1.29-3.2-.28-2.15-1.56s3.17.3 2.13 1.64zm5.16-11.85c-1.65.5-2.21-.06-1.66-1.66 1.58-.46 2.14.09 1.64 1.74zm2.62-68.37c-.83 1.2-2.87-.17-1.92-1.33.76-1.15 2.86.2 1.9 1.41zm5.67-108.34c7.23 2 11.12 9.7 12.1 16.67-3.66-.95-7.77-1.09-11-3-3.05-3.84-1.63-9.13-1.12-13.59zm2.12 152.97c1.87-.66 2.7 2.53.79 2.95s-2.72-2.51-.79-2.95zm2.74 46h-2v-4h2c-.03 1.3-.03 2.63 0 4zm.43-160.66h3l.68 2.75c-1.26-.2-2.5-.4-3.72-.57 0-.52.03-1.65.04-2.19zm3.95 76.25c-1.26 1-2.92-1.17-1.78-2.18s2.87 1.12 1.78 2.17zm-.19-69.66c-1.69-.42-.56-2.91.89-2.56 1.67.38.56 2.94-.89 2.56zm5.76 44.22c-1.25-.23-2.47-.45-3.66-.65v-3c1.19-.25 2.41-.46 3.66-.65q-.03 2.15.02 4.3zm11.84-125.33c-1.65.5-2.21 0-1.66-1.66 1.62-.54 2.18.01 1.68 1.66zm6 105.77c-1.42.41-1.91-.07-1.45-1.45 1.41-.46 1.85.02 1.48 1.45zM364.72 908c.1-1.81.22-3.6.37-5.36.7 1.71 1.38 3.44 2.08 5.19zm5.89 206.65c-1.49 1.14-3.15-1.39-1.64-2.36 1.43-1.17 3.08 1.36 1.63 2.38zm1.64-110.23c-1.22 1-2.56-1.13-1.33-1.92 1.15-.93 2.52 1.12 1.32 1.94zm2.43 141.65l.68-2.75h3v2.19q-1.88.27-3.69.58zm-.56-109.94c2.47 2.43 1.78 6 .79 9-.21-2.26-.61-6.74-.8-8.98zm8.14 31.72c-1 1.29-3.25-.27-2.15-1.56.89-1.29 3.14.25 2.14 1.58zm-1.94-13.61c.85-1.17 2.81.3 1.92 1.46s-2.87-.32-1.92-1.44zm1.47-42c-1.6.65-2.5-1.95-.82-2.38 1.53-.67 2.46 1.98.81 2.42zm8.77 129.79c.47-1.3 1-2.59 1.5-3.85a54.38 54.38 0 0 1 7.64 4c-3.52-.44-5.91.11-9.14-.11zm3-56.25c-1.65.5-2.21-.06-1.66-1.66 1.64-.5 2.2.05 1.7 1.7zm.35-39.51c1.44-1.19 3.09 1.34 1.64 2.36s-3.11-1.35-1.6-2.32zm22.32 108.26q-1.95.12-3.84.3c1.37-1.14 2.76-2.25 4.2-3.31zm-.88-99.77q2-1.68 4.06-3.24c.51 1.11 1 2.26 1.58 3.42-1.87-.04-3.76-.1-5.61-.14zm1.54-8.64c1.6-.54 2.16 0 1.66 1.66-1.62.54-2.18-.02-1.63-1.62zm11.68-63c.86-1.54 1.73-3.07 2.65-4.56.5 1.24 1 2.5 1.51 3.78-1.39.27-2.73.53-4.13.81zm3 6.67c-1.65.5-2.21 0-1.66-1.66q2.4-.78 1.66 1.69zm-1.23 85.28c-1.33 1.53-2.69 3-4.11 4.47-.58-1.65-1.12-3.26-1.64-4.87 1.92.11 3.81.24 5.75.43zm-6-25.64c-1.38 1.07-2.83-1.3-1.43-2.15 1.35-1.07 2.82 1.29 1.45 2.18zm-1.73 30.57c1.36 0 2.74-.05 4.15 0v4.15c-1.2-.22-2.37-.42-3.52-.59-.24-1.22-.46-2.39-.63-3.56zm3.45 12.54c1.15-1.24 3.38.71 2.23 2s-3.43-.7-2.23-1.98zm1.7 37.42v-3.17l2.37.76.76 2.37zm4.81-56.31c-1.49 1.14-3.15-1.39-1.64-2.36 1.43-1.17 3.07 1.36 1.63 2.38zM439.74 914h-3v-3h3zm5.83 255.83c-1.65.5-2.21-.06-1.66-1.66q2.39-.82 1.65 1.65zm0-32.08c-1.6.47-2.31-2.16-.66-2.5 1.55-.53 2.26 2.11.65 2.49zm-1.43-127.6c1.38-.46 1.86 0 1.45 1.45-1.43.4-1.91-.08-1.46-1.46zm6.45 142.45c-1.42.41-1.91-.08-1.45-1.45 1.37-.47 1.86.01 1.44 1.44zm7-40c-1.42.41-1.91-.08-1.45-1.45 1.37-.47 1.86.01 1.44 1.44zm-8.42-103.2c.85-2.88 1.31-6.26 3.87-8.19 4.83-3.08 5.18 2.26 6.63 4.79-3.55 1.14-6.99 2.36-10.52 3.39zm23.7 28.71c1.27.65 1.27 1.33 0 2-1.36-.67-1.36-1.34-.01-2.01zm.05-57.2c1.54-.71 2.47 1.94.82 2.38-1.62.64-2.51-1.96-.83-2.39zm2.52 196.56c-.81 1.12-2.89-.15-2-1.32s2.82.05 1.98 1.31zm4.12 3.36c-1.65.5-2.21-.06-1.66-1.66q2.38-.82 1.64 1.65zm.42-92.42c1.29-1.45 3.59.82 2.16 2.15s-3.66-.85-2.14-2.16zm3.65-190.27c-1.92.6-2.73-2.53-.79-2.94 1.81-.62 2.68 2.51.77 2.93zm.95 101.46c-1.42.41-1.91-.07-1.45-1.45 1.36-.47 1.87.01 1.43 1.44zm-3.66 97.31c1.54-.71 2.47 1.93.82 2.38-1.63.64-2.52-1.96-.84-2.39zm1.28 77.38a9.24 9.24 0 0 1 6.06 6.42 9.24 9.24 0 0 1-6.08-6.43zm8.19 14.39c-1 1.29-3.21-.28-2.15-1.56s3.17.21 2.14 1.55zm-2.14-72.56c1.39-2.2 3.15 1.88.57 1.29-.15-.33-.43-.98-.58-1.3zm-3.53-24.32c6.07-1.58 7.74 3.72 8.45 7.95a16.29 16.29 0 0 1-8.46-7.96zm1.17-7.63q2.4-.81 1.66 1.66c-1.66.49-2.22-.07-1.67-1.67zm3.94-1c1.83-.61 2.7 2.52.79 2.94-1.93.62-2.74-2.51-.8-2.92zm1.77-28.11c.16-1.22.36-2.42.59-3.6l2.45-.54c.23 1.15.51 2.36.79 3.57-1.32.19-2.6.38-3.85.59zm2.95-62.34c-1.6.48-2.31-2.16-.66-2.5 1.54-.49 2.25 2.14.64 2.52zm1.57 135.4c1.38-.46 1.86 0 1.45 1.45-1.44.43-1.93-.06-1.47-1.43zm3.28 49.52c-1.34 1-2.91-1.23-1.56-2.15s2.83 1.21 1.54 2.17zm-3.21-5.48a21 21 0 0 1 4.58-4.14 28.57 28.57 0 0 1-4.6 4.16zm3.95-9.82c-1-1.17.34-3.07 1.75-2.87 2.11.7-.11 4.2-1.77 2.89zm3.12-67.1c.84-1.17 2.81.3 1.92 1.46s-2.89-.32-1.94-1.44zm2.57 54.87c-1.32-.69-1.32-1.37 0-2 1.27.64 1.27 1.32-.02 2.02zm.5-103.67c-1.39 1.07-2.83-1.3-1.43-2.15 1.3-1.08 2.77 1.28 1.4 2.17zm3.39-104.66c4.55-1.25 9.11-2.23 13.8-3.06-1.08 2.44-1.38 5.77-4 7.07-3.12 1.69-6.54-.35-9.65-.91-.1-.76-.15-2.31-.18-3.08zm-2.81-48q3.25-2.23 6.65-4.29v7c-2.9-1.2-4.23-1.61-6.68-2.64zM531 987.26c-4.6-3.58-10.72-6.94-9.45-14 5.21 2.67 10.57 7.49 9.45 14zm-17.49 156.48c-1.6.47-2.31-2.16-.66-2.5 1.57-.52 2.28 2.12.67 2.5zm2.6-20.32c-1.25 1.3-3.36-.84-2-2s3.31.76 2.01 2zm1.88-5.79c0-1.7-.1-3.39-.08-5.05q1.39 2.36 2.79 4.78zm3.8 75.5c-1.32-.69-1.32-1.37 0-2 1.3.62 1.3 1.29.01 2zm3-168c-1.32-.69-1.32-1.36 0-2 1.3.62 1.3 1.3 0 2zm4.19-7.75c1.22-1.32 3.35.86 1.89 2-1.31 1.34-3.35-.82-1.87-2zm.7 100.62c1.8-.74 3.62-1.46 5.48-2.15q.12 3.12 0 6.29l-5.37-1.33zm1.43 45.22c-.76-1.24.6-2.68 1.78-3 2.79-.15-.1 4.21-1.78 3zm5-15.35c-1 1.29-3.25-.27-2.15-1.56.96-1.31 3.2.23 2.2 1.56zm3.31 41c-.56-1.89-1-3.72-1.47-5.58 2.21 1.45 4.2 3.35 1.51 5.54zm-1.3-37.29v-2.1c1.82-.06 3.67-.07 5.52-.11.38.82.79 1.67 1.22 2.54-2.26-.18-4.48-.28-6.7-.37zm5.59-33.24c1.49 0 1.22 2.43-.16 2.38-1.55-.07-1.25-2.52.2-2.42zm2.8-3.83c-1.33 1-2.91-1.24-1.56-2.15 1.32-1.13 2.89 1.14 1.6 2.11zm1.73-105c-1.39 1.07-2.84-1.3-1.43-2.15 1.37-1.15 2.84 1.21 1.47 2.1zm4.24 174.13c-1.43.41-1.91-.08-1.45-1.45 1.42-.51 1.9-.03 1.49 1.4zm4.26-21.46c-1.32-.69-1.32-1.37 0-2 1.33.57 1.33 1.25.03 1.95zm-.71-76c1.38-.46 1.86 0 1.45 1.45-1.4.37-1.88-.12-1.42-1.49zm.75-117.18a38.82 38.82 0 0 1-3.86-2.43 29.07 29.07 0 0 1 1.27-5.69l4 .22a79.38 79.38 0 0 1-1.41 7.9zm5.71 156.85c-1.65.5-2.21-.06-1.66-1.66q2.4-.84 1.66 1.63zm6.64 65.78c-.9 1.37-3.25-.09-2.15-1.43.84-1.43 3.2.02 2.14 1.4zm-.71-194.47c-1.79.46-2.48-2.46-.66-2.8 1.64-.46 2.4 2.44.65 2.77zm2.4 50.9c1.93-.7 2.54 2.5.68 2.92-1.99.63-2.61-2.57-.69-2.98zm3.53 95.55c.09 1.84.22 3.71.38 5.6l-3.06-.93c.85-1.61 1.73-3.17 2.67-4.7zm-.86 47.24c-1.65.5-2.21-.06-1.66-1.66q2.39-.84 1.65 1.63zm.28-18.69c-1.32-.69-1.32-1.37 0-2 1.29.59 1.28 1.27-.01 1.97zm1.49-7.32c-2.84-2.86-1.9-6.45-.05-9.56 2.62 2.84 1.85 6.43.04 9.53zm3.51-71.68c-1.32-.69-1.32-1.37 0-2q1.92.92-.01 1.97zm7.33 24.08c-1.19 1.07-2.55-1-1.32-1.85 1.15-1.1 2.49.95 1.31 1.82zm1.62-32c0-1.83-.07-3.63-.06-5.41 1.21.2 2.44.42 3.71.67-.27 1.11-.54 2.21-.75 3.36-1 .44-1.97.9-2.91 1.38zm3.8-20c-1.44.53-2.25-1.79-.73-2.16 1.33-.54 2.21 1.8.72 2.19zm.86 7.18c-1.17.9-2.63-1.07-1.46-1.92s2.56 1.05 1.45 1.95zm.1 115.29c-1.61.47-2.31-2.16-.66-2.5 1.54-.49 2.25 2.15.65 2.53zm-12.88-262.5c.73-2.13 1.47-4.25 2.19-6.37-1.51 1.11-2.89 2.37-4.46 3.36-3.08-.84-5.48-3.18-7.72-5.32-2.15-1.64-1-4.46-.67-6.63-2.27-.29-4.77.15-6.85-.84-6.35-9-12.24-19.87-10.16-31.23h-3.09a70.12 70.12 0 0 1 6.06-5.89c-1.75.58-3.49 1.18-5.21 1.78.78-6.22 1.38-12.48 2.3-18.67 2.58 1.72 5 3.68 7.54 5.53-1 1.22-2 2.44-3 3.68 1.29.07 2.61.17 3.95.3-1.4.83-2.8 1.66-4.17 2.51-.43 2.79-.58 5.76-1.11 8.59 1.69-.44 3.4-.88 5.15-1.28-3 3.25-3.66 7.53-4.13 11.73 3.1 1 5.46 3.28 7.75 5.5-2.54-.35-5-.79-7.51-1.37.07.91.16 1.84.28 2.79 2.82.16 6.38-.54 8.28 2.16 4.14 5.25 7.38 11.22 11.91 16.2 3 3.1 7.92 3.64 10.17 7.54 2.56 4.5 5.87 8.5 8.87 12.72-5.56-2.07-11.22-3.82-16.37-6.79zm-6.94-96.85c-1.22.32-2.45.64-3.61 1q2.05-1.53 4.26-2.91c.5 1.75 1 3.54 1.57 5.33-1.59.2-3.14.41-4.67.64A43.94 43.94 0 0 1 575 838a43.92 43.92 0 0 0-13.39-.34c2.82-1.72 5-5.36 8.64-5.25 1-.68 2-1.32 3.07-1.95-.32-.71-.48-1.41-.66-2.1zm.17-3.08c1.14-.71 2.31-1.39 3.48-2.08l.59 2.36c1.29-.56 2.58-1.12 3.93-1.63-.54 3-.55 6.35-1.06 9.42l-.48-.53c-1.06 1-2.06 2-3.13 2.89-.72-1-1.35-2.18-1.95-3.23 1.66.05 3.37.17 5.08.34-2.29-2.44-4.36-5-6.46-7.54zM568 842.09a2.06 2.06 0 0 1 .89-3.31c1.83.22.77 3.92-.89 3.31zm-2.7-3a12.32 12.32 0 0 0-1.64 9.19c1.11-1.86 2.22-3.73 3.37-5.57.39 5.75-1.74 13.42-8.2 14.52 1 .51 2.07 1 3.15 1.61h-3.82c-1.18-3-3-5.5-3.82-8.54 1.43-3.86 3.68-7.32 5.64-10.91 1.71-.16 3.5-.23 5.29-.33zm-3.76 47.53c-1.43.41-1.91-.07-1.45-1.45 1.35-.49 1.83 0 1.42 1.42zm-2-3c-1.43.41-1.91-.07-1.45-1.45 1.35-.49 1.83 0 1.42 1.42zm30.39 36.33c.6-1.27 1.21-2.54 1.86-3.79-1.09.55-2.15 1.13-3.18 1.72-2.14-6.25-2.75-12.86-4.45-19.22a10.57 10.57 0 0 1 1.27-.59c-2.31-6.75-.9-14.14-1.89-21-1.23-3-3.33-5.43-4.87-8.19 1.24.09 2.53.23 3.81.35-.33-6.37 2.27-12.35 2.74-18.62-.52-6-1.29-12.05-1.49-18.11a123 123 0 0 1 2.93.31c-2.27-4.56-4.23-9.54-1.44-14.27-1.74.85-3.49 1.69-5.21 2.51a52.39 52.39 0 0 1 3.71-5.54c-1.19-4.16 1.8-7.11 4.48-9.78q2 4.52 3.83 9.14l-3.37-1.57c-.18 1.22-.56 3.65-.75 4.87 2.83.12 5.31 1.46 7.75 2.79-.74-1.86-1.49-3.71-2.16-5.55l2-1.5c.41 3.27.65 6.42 1.14 9.74l-2.15-.1c.73 1.34 1.51 2.69 2.29 4.06a49.35 49.35 0 0 1 5.22-6.32c-4.93-1.82-5.21-7.32-6.16-11.69-1.76 0-3.5 0-5.22.07q2.79-4 5.32-8.26l-.35-.44c2.45-1 4.91-2 7.37-3-.1 1.57-.14 3.14-.12 4.73a30.89 30.89 0 0 1 4.76-6.27 29.14 29.14 0 0 1-4.76 6.27c-.14 3.18-.12 6.52-.36 9.74l.71.35c.2 6.31.3 12.63.4 19a141.81 141.81 0 0 0-4 3.26c1.32-.23 2.7-.43 4.08-.63V839l-2.6-2.28c3.6 8.17 1.19 17.21 1.87 25.83-1.48.79-3 1.58-4.39 2.43 1.61.26 3.27.51 4.92.76.08 3.57.22 10.72.3 14.29-2.17-2.58-4.46-5.05-6.79-7.45-1.86 4.6 1.28 8.69 3.45 12.56 0-1.7.06-3.4.12-5.08l3.86 1.67c-6-2.22-.33 3.85-2.58 4.3-.92.85-2.89 2.26-1.42 3.56 1.66.77 2-.92 1.79-2.33 1.66 6.33.08 12.94 1.69 19.29 2.17 4.61.06 9.17-1.46 13.51 1.38-1.79 2.76-3.58 4.19-5.32.8 3.6 1.24 7.21 1.81 10.9a14.94 14.94 0 0 0 7.59-11.11c.7.08 1.42.19 2.17.31-.45-2.17-.87-4.33-1.13-6.5.81.42 1.65.88 2.51 1.35A19.62 19.62 0 0 1 621 908c-.92-3.12-2.09-6.44-2-9.68.66-3.4 3.57-5.79 5.33-8.62-1.85 1.18-3.67 2.39-5.49 3.59-.08-1.66-.22-5-.29-6.61 1.8.15 3.59.24 5.43.29a72.64 72.64 0 0 0-5.82-3.13c-.18-4.74 3.18-8 5.37-11.72 1.49 1 3 2 4.51 3.08a52.58 52.58 0 0 1-.68-9.85 36.37 36.37 0 0 1-8.29 6.37c-.11-1.65-.34-5-.45-6.62 1.93.46 3.87.94 5.84 1.38-2-1.94-5-3.44-5.19-6.54-.12-5-1.18-10.67 2-15-.85.25-1.68.52-2.47.81.39-4.39 1.16-8.81.62-13.22a41 41 0 0 1 4.32-7.87c-.08 2.82-.13 5.72-.44 8.56a52 52 0 0 1 5.35 2.06c.18-.61.52-1.84.69-2.45 1.25 1.62 2.46 3.29 3.7 5 1.07-2.23 2.27-4.39 3.54-6.51-1.17 0-2.34 0-3.47.06.07.39.21 1.17.27 1.56-2.31-1.49-4.69-2.84-7-4.24h2.4a24.86 24.86 0 0 1-5.2-8.28c-1.57.59-3.14 1.18-4.68 1.78-.16-1-.28-2-.37-3a69.13 69.13 0 0 0 7.48-1.34c-2.46-.71-4.87-1.4-7.25-2.06a86.21 86.21 0 0 1-1.44-13.18A55.27 55.27 0 0 1 644.41 822c-4.9 4.71-7.84 11.69-7 18.5.56 8.68 1.7 17.46 1.11 26.19 2 .84 4 1.76 5.95 2.69-3.11 4.88-5.17 10.36-8.47 15.13 1.09 1.14-.88 3-1.93 1.79-1.28-1.21.79-3.06 1.93-1.79a78.33 78.33 0 0 0-4.84-8.1c.4 4.44.92 8.83 1.49 13.29 1-.68 2-1.34 3.1-2-.32 4.83.75 9.54 1.31 14.32a35.49 35.49 0 0 1-11.21 25c-3.47 4.53-5.85 10.49-11.29 13-2.8-.48-4.08-3.38-5.8-5.26.3 1.34.91 4 1.22 5.37 1.3.4 2.57.79 3.92 1.25-1 1.24-1.94 2.48-2.89 3.73-4.51-4.54-2.65-11-.57-16.22a37 37 0 0 0-5.77 1.65c1 3 1.83 6 2.61 9.1a67 67 0 0 1-17.38-19.72zm.94-115.62c1.44-.08 1.44 2.42 0 2.38s-1.53-2.45-.03-2.41zm69.29 40c-1.3 1.26-3.23-1-1.93-2.13 1.25-1.32 3.28.91 1.9 2.11zm1.73 1.42c1.63.57.6 3.67-1 3.52-1.75-.79-.68-3.51.97-3.54zm-5.08-5.84a51.29 51.29 0 0 0 2.64 15.63c1.85 1.71 4.76 1.26 7.12 1.28a76.45 76.45 0 0 1-5.08 9c.24-2.36.56-4.7.85-7-1.37-.21-2.71-.41-4-.59-.17-2-.27-4-.39-6-1.79-1.77-4.36-3.68-3.83-6.5.16-1.92.46-3.82.7-5.71-1.25 1.22-2.47 2.44-3.67 3.69-3-3.48-6.17-6.82-9-10.47 2.13.91 4.26 1.89 6.41 2.86.73-1.27 1.49-2.51 2.26-3.75l-2.89-1.1c-.14.63-.44 1.89-.59 2.52-1.91-1-3.83-2-5.73-2.94.3-1.17.64-2.3 1-3.43l2.25 1.18c.18-1.54.35-3.08.6-4.58 5.75 3.84 10.23 9.17 14.56 14.53-1.14.39-2.17.89-3.24 1.36zm6.19 11.23c1.37-.46 1.86 0 1.45 1.45-1.45.41-1.92-.07-1.45-1.45zm3.52 43.58C663 900.79 660 907.19 655.94 913c-1.46-.73-2.89-1.44-4.3-2.11q1.38 2 2.84 4c-6.4 6.12-14.61 9.36-22 14-1.76.82-3.76.61-5.6.74a22.39 22.39 0 0 1 7.46-6.5c-1.2-5.91 4.72-8.53 8.51-11.83a76.78 76.78 0 0 0 10-10.7l1.92 1.23c.6-1.79 1.24-3.57 1.95-5.32l.73 5.39a51.22 51.22 0 0 1 5.11-4.19c-1.46-2.24-3-4.38-4.62-6.49 3.46-7.52 3.65-16 2.11-24a40.67 40.67 0 0 0 8.55-4.22c0 .64-.11 1.92-.14 2.56h-2.11c.4 1.26.85 2.57 1.31 3.87l.28-2.39 2.92.09c.3 9.14-2 18-3.44 26.92-.91-.93-1.79-1.83-2.64-2.73-.81 1.09-1.6 2.19-2.36 3.31 1.33-.04 2.7.01 4.09.09zm-2.09 152.1c-1.66.5-2.21-.06-1.66-1.66q2.39-.81 1.65 1.66zm-54.19 25.75l5.15-4.56c.78 1 1.58 1.94 2.41 2.94-.85 1.49-1.7 3-2.51 4.52-1.74-.93-3.4-1.93-5.06-2.9zm1.51 38.56q-2-1 0-2 1.92.95-.01 2zm-3-65a27 27 0 0 1 14.4 6.8c-5.26-1-10.63-2.81-14.38-6.78zm14 23q1.9 1 0 2-2.01-1.03.01-2.03zm.43-16.83c8 3.27 17.29 4.92 24 10.82a67.48 67.48 0 0 1-23.99-10.85zM637 886.14c1.38-.46 1.86 0 1.45 1.45-1.45.41-1.9-.07-1.45-1.45zm28.46-24c.91-1.87 1.84-3.72 2.79-5.57.09 1.42.21 2.86.37 4.33-1.07.42-2.12.84-3.15 1.27zm-61.38 145.62c-1.76 1.1-3.36-1.77-1.35-2.5 1.65-.93 3.38 1.79 1.36 2.53zm-1.56 152.34c-1.92.6-2.73-2.53-.79-2.94 1.84-.58 2.71 2.55.8 2.97zm1.39-71.61c.75-1.18 2.83.1 2 1.32s-2.91-.08-1.99-1.29zm1.83 110.8q.1-2 .3-3.84l3-.36zm3.3-57.91l-2.37.76v-3.17h3.17zm5.41 55.41c-1.66.5-2.21-.06-1.66-1.66q2.41-.78 1.67 1.69zm-4.4-10a31.57 31.57 0 0 1 4.51-3.44c.48 1 1 2 1.48 3.1-2.04.14-4.04.26-5.98.38zm6.82-108.58c-1.55-.47-.45-2.67.89-2.13s.42 2.73-.89 2.17zm.86 100.23c.22-1.84.5-3.65.8-5.45h2.84c0 2 0 4 .12 6-1.28-.12-2.49-.33-3.76-.51zm5-87.38q1.9 1 0 2-1.99-.96.03-1.96zm1 37.3c-.14-.32-.42-1-.57-1.29 1.38-2.16 3.13 1.93.56 1.33zm10 28.5l2.32.61c.16.59.47 1.77.63 2.36-1.73.43-3.45.86-5.15 1.31.73-1.41 1.47-2.83 2.22-4.24zm1.92 47.35l-3.28-1.35a93.8 93.8 0 0 1 1.27-4.87h4.33q-1.18 3.15-2.3 6.26zm5.79-67.66c-1.43.41-1.91-.08-1.45-1.45 1.4-.42 1.88.06 1.47 1.49zm-3.59-22c-1.78-1.33-.72-3.91-.94-5.78l3.55.37q.93.95 1.95 2c.09.88.28 2.66.37 3.55a40.32 40.32 0 0 1-4.91-.11zm8.65 65.1c-1.55 0-1.29-2.48.16-2.38s1.24 2.46-.14 2.41zm27.27-103.85c-4.3-1.3-8.77-2.54-13.25-1.47-1.32-6.21-7.5-8.48-12.39-11.29 9.43 2.19 18.05 6.96 25.67 12.79zm.72 33.06c.4 1.76.82 3.52 1.24 5.33-1.83-.36-3.61-.73-5.39-1.09.19-1.26.41-2.5.67-3.71 1.16-.17 2.32-.39 3.51-.5zm-6.69-27.74c-.5 1.74-1 3.48-1.48 5.25-4.27-1.3-8.43-2.9-12.54-4.5 1.57-2.37 3.35-4.59 5.11-6.82 2.23 2.55 4.71 4.9 6.85 7.56a22.7 22.7 0 0 1 2.09-1.46zm-11 85.62c-.85 1.76-1.69 3.53-2.5 5.32-1.06-1.39-2.13-2.76-3.14-4.12 1.84-.41 3.74-.8 5.65-1.17zm2 16.15c-1.54-.27-3.11-.53-4.57-.76 3.11-.34 6.32-.56 9.5-.6q.08 3.75.16 7.6a124.75 124.75 0 0 1-5.09-6.21zm7.47-49.78c.77-1.22 2.88.06 2 1.32s-2.86-.12-2.01-1.29zm.17 15.81c.18-.62.53-1.86.7-2.48 1.11-.24 2.25-.46 3.41-.64 0 .79 0 2.38.06 3.17-1.43.03-2.82-.03-4.18.03zm7 38.93c-1.67.64-2.22-2-.66-2.46 1.57-.61 2.22 2.07.64 2.49zm1.42-16.37a64.21 64.21 0 0 1 5.38-4.31c.14 1.63.3 3.28.48 5-2.01-.25-3.97-.47-5.88-.66zm2-8.46c1.77-.64 2.42 2.32.67 2.72s-2.53-2.32-.7-2.69zm6.85-84.24c-.79 1.24-3.37.32-2.65-1.17.68-1.18 3.19-.26 2.61 1.2zm17.83 117.4l-5-1.29c.19-1.34.42-2.66.67-3.94q2.85.9 5.71 1.9c-.56 1.15-1.01 2.23-1.42 3.36zm44.5-34.49c-.08-.83-.23-2.49-.31-3.32 1.79 1 3.56 2.14 5.3 3.34-1.75 0-3.39 0-5.03.01zm4.86 19.15a27.21 27.21 0 0 1 5.19-3.06c-1.72 1.15-3.47 2.14-5.23 3.09zm13.78.26q-2-1 0-2c1.26.65 1.25 1.33-.04 2.03zm21-16q1.9 1 0 2-2.05-1-.02-2zm.57 4.14c1.68-.56 3.37-1.1 5.12-1.58.24 1.28.56 2.62.85 4-2.02-.86-4.04-1.66-5.99-2.42zm9.66-8.63a26.22 26.22 0 0 0-11-1.62 24.47 24.47 0 0 1 6.1-4c1.17 1.39 3.64 4.21 4.88 5.62zm-7.21-8.45q2.4-.81 1.66 1.66c-1.68.5-2.23-.06-1.68-1.66zm-1.11-12.25c-.1 1.48-.17 3-.21 4.49-1.76-.59-3.46-1.15-5.16-1.74 1.78-.93 3.56-1.84 5.35-2.75zm-13.64 41.69c1-1.14 3.13.52 2.18 1.78-1.08 1.09-3.21-.56-2.2-1.78zm-2.21-21.3c1.44-.08 1.44 2.41 0 2.38s-1.51-2.42-.02-2.38zm-.81 12.08c1.2-1.32 3.33.79 2 2s-3.33-.8-2.02-2zm-2.25-30.27c1.34-.57 2.2 1.77.73 2.16s-2.27-1.79-.74-2.16zm-3 12.36c1.69 0 1.69 3 0 3s-1.74-2.96.02-3zm-2.95-11.21c1.46-.56 2.52 2 .9 2.46s-2.56-2.01-.88-2.46zm-9.44 7.3a28.62 28.62 0 0 1 3.46 5.86 27 27 0 0 1-3.44-5.86zm.65-7.15l-2.37.76V1141h3.17zm.65-4.53c-1.61.25-3.17.54-4.74.79-.06.86-.08 1.75-.07 2.65-.83-1.08-1.62-2.17-2.38-3.22.4-.91.82-1.8 1.29-2.66l5.27.13c.17.58.49 1.73.65 2.31zm-8.37-22.32a2.74 2.74 0 0 1 3.89.27c.07 2.04-4.19 1.72-3.88-.27zm-1.11 36.44c2 .84 3.93 1.72 5.89 2.69l-6.08.07c.08-.7.14-2.08.19-2.76zm-4.17-25.85c1.37-.46 1.86 0 1.45 1.45-1.39.4-1.91-.09-1.45-1.46zm-1.23 23q2.4-.81 1.66 1.66c-1.66.51-2.2-.05-1.66-1.65zm-.72 28.05c-1.19 1.07-2.55-1.06-1.32-1.85 1.17-1.07 2.5.99 1.33 1.86zm-1.84-36.2c.22 2.86.63 5.72 1 8.58-.91 0-1.79.1-2.64.19a57.74 57.74 0 0 0-3.62-6.13c1.78-.87 3.51-1.78 5.26-2.64zm-13.53-8c-1.71 0-1.57-2.74.08-2.66s1.5 2.66-.08 2.58zm-1.62-18.86c1.37-.46 1.86 0 1.45 1.45-1.45.41-1.95-.08-1.45-1.45zm-.23 12q2.4-.81 1.66 1.66c-1.7.52-2.25-.04-1.7-1.64zm-.34 37.66c-1.66.5-2.21-.06-1.66-1.66q2.36-.79 1.62 1.68zm-2.66-20.4c1.59-.64 2.21 2 .66 2.46-1.71.66-2.26-2.03-.7-2.44zm-3-15.9c1.15-.95 2.52 1.09 1.33 1.92s-2.65-1.11-1.41-1.9zm-1.2 22.34c.26 2 .53 4 .81 6.05a17.51 17.51 0 0 1-6.11-6.46c1.65.1 3.44.27 5.22.43zm-8.93 2.14v3.17l-2.37-.76-.76-2.37zm-4.82 24.16q2.4-.81 1.66 1.66c-1.74.52-2.29-.04-1.74-1.64zm-.58-56.58c-1.79 3.78-5.46 6.05-9.59 4.33a18.37 18.37 0 0 1 9.51-4.31zm-9.42 40.07c1.65-1 3 1.87 1.52 2.84-1.8 1.07-3.15-1.89-1.6-2.82zm-3 22.24c2-.74 2.65 3.26.61 3.47-1.59-.23-1.77-2.63-.65-3.45zm-.9 10.58c-.85 1.45-3.59.26-2.63-1.31s3.59-.29 2.59 1.33zm5.8-234.07c-.14-.32-.42-1-.57-1.29 1.34-2.18 3.09 1.91.53 1.31zm8.3 98.34c.8-1.26 3.89-.78 3.29 1.05-.77 1.67-3.95.74-3.31-1.03zm5.06 18c-1.27.84-2.55-1.26-1.32-2s2.4 1.17 1.24 1.98zm3.36-42.88q-2.49.75-1.66-1.66 2.35-.83 1.61 1.64zm4.39 6.62c-.87 1.18-2.93-.15-1.85-1.32.74-1.24 2.86.12 1.8 1.3zm3.08-47.38q-2-1.37-3.85-2.73h4.23c-.14.65-.34 2.03-.43 2.71zm9.8-53.93c-1.33-.69-1.32-1.36 0-2q1.89.93-.05 1.98zm11.73 134.46c-1.43.41-1.91-.08-1.45-1.45 1.33-.48 1.82 0 1.41 1.43zm13.25-119.46c-1.33-.69-1.32-1.36 0-2q1.89.93-.04 1.98zm8.49 90.33c-1.39 1.07-2.84-1.3-1.43-2.15 1.25-1.12 2.76 1.24 1.39 2.13zm18.21 37.36c-1.66.5-2.21-.06-1.66-1.66q2.36-.83 1.62 1.64zM774.8 619.3a245.82 245.82 0 0 0-4.48-25.75c-1.09 11-.74 22.69-5.32 33-6.87 12.22-14.21 24.72-25.45 33.44-25 20.06-59.34 23.28-83.67 44.3-9.28 7.55-14.21 18.55-19.29 29 1.35-13.08 6.24-26.22 15.87-35.45s22.16-14.38 34.08-20c14.4-6.54 28.3-14.35 40.6-24.36 7.5-6.46 14.28-13.71 21.53-20.45 10.6-11.03 14.18-26.66 15.33-41.5 1.49-16.28-5-31.94-13.61-45.36-12.64-20.16-27.25-39.07-37.91-60.43 6.65 28 30.5 48.21 36.95 76.27a71 71 0 0 1 2 25.26c-2.24-10.06-5.8-19.91-11.94-28.28-4.65-8.11-12.47-13.67-17.44-21.44-10.77-23.94-17.23-49.65-28.87-73.22a13.82 13.82 0 0 1-1.27-12c4.65-15.14 5.27-31.05 4.43-46.76-1.62 15-3.25 30.32-10.27 43.93C677 437 669 422.61 655.53 414.08A83.74 83.74 0 0 0 607 398.44a87.6 87.6 0 0 0-43.9 16c-12.82 8.88-21.13 22.34-29.87 34.91-7.62-13.32-8.42-28.9-10.05-43.78a220 220 0 0 0-.15 25.29c.68 9.19 3.89 17.93 5 27.06-1.88 7-5.58 13.38-8.16 20.16-7.1 17.83-13.07 36.08-20.09 53.94-3.6 11-14.52 17.13-20 27-6.31 8.31-9.43 18.32-11.88 28.32-2.1-15.83 2.62-31.55 9.71-45.54 10-18.47 24.2-35.22 29.29-56a390 390 0 0 1-28 45.24c-10.37 15.4-21.63 31.49-23.52 50.53a79.2 79.2 0 0 0 7.4 40.43c4.43 9.36 13 15.67 20 23 11.92 12.64 27.06 21.58 42.37 29.52 13.39 6.66 28.09 11.53 39.48 21.61 11.08 9.1 16.72 23.27 18 37.29-5.07-11.28-11-22.61-20.82-30.48-23.62-18.77-54.92-23.2-79.31-40.67-12.87-9.09-21.25-22.74-28.58-36.34-4-10.25-3.62-21.61-5-32.34-1.91 8.54-2.72 17.3-4.44 25.88-4.64-6.06-5.44-14.15-3.76-21.42 2-17.2 14-30.38 22-45 8.58-14.44 14.28-30.26 22-45.05 11.28-21.87 20-45.53 21.83-70.25-5.47 16.93-10.75 34.07-19.58 49.63 3.26-17.58 8-34.84 11.84-52.29 5.3-21.37 9.42-43.48 19.84-63.11 6.73-13.46 16.15-25.89 28.9-34.13 12.91-9.66 28.85-13.54 44.09-17.84 9.07-1.93 18.59-4 27.85-1.83 10.59 2 20.85 5.48 31.13 8.77a89.3 89.3 0 0 1 42.28 31.75c19.37 28.7 23.91 63.86 32.17 96.72 2.3 10.37 5.22 20.64 7 31.14-8.87-15.27-13.89-32.25-19.36-48.92.86 14.36 4.68 28.4 9.31 42 6.79 18.72 17.09 35.86 24.74 54.21 6.78 16.05 17 30.25 25.75 45.2 4.77 9.2 6.5 19.73 7 30-.01 3.95-2.65 7.13-4.71 10.25zM650 529.16c4.14-2.11 7.8 1.19 8.51 4.93.22 3.47-3.41 6.41-6.76 5.86-4.58-1.19-6.23-8.54-1.75-10.79zm-86.4 9.94c-4.53-2.34-2.07-7.38-.12-10.59 2.85.65 6.14 1.61 9.05 2.44.33 4.44-3.75 11.75-8.93 8.15zm217.33 587.29c-.54-1.6-1-3.2-1.48-4.78l2.85-.25c-.47 1.64-.96 3.32-1.37 5.03zm7.42-9.57c-1.66.5-2.21-.06-1.66-1.66q2.39-.81 1.65 1.66zm3-220.23c-1.43.41-1.91-.07-1.45-1.45 1.38-.46 1.87.03 1.46 1.45zm-1.27-132.73a43.38 43.38 0 0 1-5.48-6.72c3-.26 5.83-.6 9-.7-1.03 2.56-2.3 4.96-3.51 7.42zM795.3 1135c1.94-1.86 3.95-3.66 6-5.43.07.87.19 2.61.25 3.48q-3.16.95-6.25 1.95zm11-127.22q-2.49.75-1.66-1.66 2.43-.77 1.69 1.7zM801.67 831c.25-4.83 3.48-8.83 7.63-11a182.7 182.7 0 0 1-2.3 18.45c-3-1.35-8.47-2.27-5.33-7.45zm6 253.33c1.16-1.07 2.49 1 1.32 1.85-1.23 1.1-2.59-1.02-1.36-1.82zm.43 60q-.43-1.73-.75-3.39c1.62.75 3.27 1.52 4.94 2.28l.4 2.67c-1.59-.51-3.13-1.03-4.63-1.51zm2.8-11.45a33 33 0 0 1 9.22 5.07 15.86 15.86 0 0 1-9.26-5.02zm3.75-179.8c-1.33-.69-1.32-1.36 0-2q1.89 1-.04 2.05zm3.35 117.63c.77 4 1.12 8 1.87 12.07q-2.32.63-4.56 1.32a99.08 99.08 0 0 1-.37-12.53zm-3.52 55.2c1.39 2.75 2.87 5.53 4.27 8.37a36.79 36.79 0 0 1-7.51-7.39zm11.11-62c-1.71 0-1.57-2.74.08-2.66s1.47 2.75-.12 2.67zm12.6-294.76a158.59 158.59 0 0 0-9.6-50.21c-6.49-16.32-16.9-30.68-27.44-44.57-6.61-9-15.48-16.3-20.72-26.31-1.84-3.9 1.31-7.82 2.86-11.24 6.56-11.16 10.38-24.64 6.9-37.44-2.57-13.37-8.57-25.75-16-37-11.94-18.46-22-38.17-29.07-59-13.57-44.11-18-91.22-37.39-133.46-12.63-27.82-39-47.08-67.43-56.51-17.78-5.19-36.92-5-55-1.83-29.5 8.2-57.34 26.6-71.82 54.22-10.12 19.51-15.57 41-20.77 62.24-5.11 20.39-9.68 40.91-14.58 61.34-4.87 20.75-13.91 40.21-24.29 58.72-7.54 12.95-16.59 25.26-21.47 39.58-3.49 11.28-6.85 23.74-2.5 35.31 2.16 8.67 9.32 15.68 8.87 25-5.11 9.68-13.74 17.01-20.14 25.84-13.36 17.25-26.14 35.73-31.94 57.05-7.44 28.08-5.69 57.38-7 86.12a806.91 806.91 0 0 0 6.4 142.67c1.83 14.6 4.79 29 6.38 43.67-17.45-77.79-22-157.85-22.8-237.36-.23-11.6.73-23.54 6-34.07 8.84-18 18-35.86 30.05-52 8-12.19 18.73-22.31 27.11-34.22-1.67-4-5.67-6.58-6.94-10.81-3.39-11.71-6.52-24-4.49-36.27 3.5-13.07 12.11-23.87 18.47-35.6 10-16.08 19.5-33.31 20.86-52.58-7.07-8.2-16-15.46-19.42-26.12-6.68-18.42-12.56-37.31-15-56.81-2.95-18.93-3.71-38.13-7.06-57-5.67-29.27-13.62-59.51-33.13-82.86-8.29-10.24-16.31-22.24-29.44-26.51-19.55-5.8-38.82-15.35-59.72-14-22.21 2.26-41.67 15.37-56.69 31.23-16.51 17.35-27.42 39.17-35.57 61.49-15.11 43.05-28.74 86.61-41.45 130.42-7.14 19.94-12.51 40.93-10.79 62.31C141.28 542.64 130.79 554.4 126 569c-3.91 15.67-4.53 32-8.52 47.62-8.93 38.87-19.38 77.89-37.07 113.81C67.56 675.69 64.18 619 68.14 563a543.33 543.33 0 0 1 72.6-229.25c37-62.9 87-118 145.32-161.68a54.22 54.22 0 0 1-16.64 3.76c9.17-4.77 20.25-5.08 28.44-11.85A534.43 534.43 0 0 1 546.67 70c58.84-6.1 119-4.46 176.7 9.1a64.05 64.05 0 0 1-6.11-9.1c5 3.7 8.51 10.15 15.26 11 54.64 12.64 106.9 34.64 155.1 63.2 5.37-4.5 9.1-11.23 16.2-13.33a195.28 195.28 0 0 1-14.38 14.54c70.69 43.59 131.67 103.16 176 173.5A535.82 535.82 0 0 1 1119 430.22l6.38 1.05a57.81 57.81 0 0 0-.64 3.53c-1.39-.85-2.77-1.73-4.1-2.57 2.15 11.86 7 23 9.67 34.76a545.76 545.76 0 0 1 18.3 149c-.19 36.39-4 72.86-12.58 108.26-10.56-21.87-17.76-45.18-24.49-68.45-5.44-19.95-10.62-40-13.5-60.53-1.38-8.79-2.09-17.76-4.85-26.25-.9-3.11-1.9-6.3-4.31-8.55-9.81-8.27-16.09-19.91-26.16-27.95 1.38-15.37-.81-30.89-5.35-45.58-9.51-28.55-16.68-57.84-26.62-86.26-12.56-37.18-21.75-76.68-44.9-109.12-15.59-21.53-38.12-40.38-65.26-43.89-17.45-2.8-34.23 4.31-50.42 9.77-9.3 3-19.45 5.46-26.34 12.91A198.88 198.88 0 0 0 816.58 306c-15.88 30.3-21.52 64.74-24.58 98.45a286.73 286.73 0 0 1-19 82.2c-2.58 7.66-9.74 12.31-13.71 19.1-2.27 8.4 1.19 16.92 3.57 24.91 7.5 22.13 23.38 40 32.61 61.33 6.06 13.36 1.86 28-1.57 41.39-1 4.73-5 7.75-7.39 11.75 1.3 4.13 4.88 7 7.5 10.3 21.28 23.62 37.73 51.15 51.16 79.87 6.21 17 4.1 35.44 3.84 53.15-1.15 72.38-6.26 145.13-22.23 215.9 3.41-30.14 9-60 10.76-90.36 3.97-48.2 2.08-96.58.61-144.83zm-447 133.07c-2-.78-3.9-1.57-5.82-2.35q1.42-3.75 3.08-7.39a87.89 87.89 0 0 1 2.71 9.75zm730-86.73a33.35 33.35 0 0 1 3.73-4.16c.52 1.24 1.08 2.5 1.67 3.79-1.87.15-3.68.28-5.45.38zm3 22.32c-1.66.5-2.22 0-1.66-1.66 1.53-.53 2.09.02 1.6 1.67zm.53-28.37c-1.7 1-3.4 2.08-5.07 3.12.27-1.58.57-3.14.91-4.67zm.75-8.16c2.16 1.13-1 3.94-2.31 2.14-1.06-1.36 1.01-2.68 2.25-2.13zm.68-61.16c.85-1.41 3.62-.2 2.73 1.41-.97 1.35-3.64.13-2.79-1.4zm2.32 42c-1.33-.69-1.32-1.36 0-2q1.87.96-.06 2.01zm0 39c-1.33-.69-1.32-1.36 0-2q1.87.96-.06 2.01zm1.07-56.07c1.86-.62 2.22 2.41.46 2.68-2 .6-2.3-2.41-.52-2.67zm4.95 3.31a34.72 34.72 0 0 1-4.35 6.13 14.84 14.84 0 0 1 4.28-6.12zm-1 56.73q1.9 1 0 2c-1.42-.65-1.41-1.32-.06-1.99zm1-10.91c1.82-.61 2.69 2.52.79 2.94-2.02.61-2.83-2.52-.88-2.93zm-19.9 87.11c1.43-.08 1.43 2.42 0 2.38a1.19 1.19 0 0 1-.09-2.37zm.13-134c.9-1.34 3.14.24 2.15 1.56s-3.34-.25-2.24-1.54zm.48 21c1.06-.48 2.17-.95 3.31-1.39-.15 1.47-.29 3-.4 4.46a27.55 27.55 0 0 1-3-3.02zm-26.6 49.56c1.53-.71 2.46 1.94.82 2.38-1.7.7-2.6-1.9-.91-2.33zm-.66-6.79c1.39-2.2 3.14 1.89.57 1.29-.23-.27-.51-.92-.66-1.24zm.79 44.06c1-1.5 3.49.16 2.36 1.64s-3.65-.15-2.45-1.59zm1.9-65.66c1.63-1.08 2.62 1.77 1.2 2.6-1.74 1.16-2.76-1.78-1.29-2.55zm3.44-31h-2.19q-.34-1.89-.57-3.72l2.75.68c-.12 1.12-.11 2.12-.06 3.13zm-.56 86.94c1.95.47.18 4-1.4 2.76-1.11-.91-.04-2.79 1.31-2.67zM1081.22 615c-3.35-19.85.8-41.93-10.05-59.93-2-3.8-4.21-7.44-5.94-11.35 9.34 11 18.44 23.32 20.26 38.1 2.39 18.5 2.78 37.25 6.28 55.62 4.17 25.71 12.42 50.47 18.35 75.76-11.92-31.93-23.9-64.32-28.9-98.2zm5.5 126.57c-1.27 1-2.93-1.17-1.78-2.18s2.85 1.14 1.77 2.19zm-3.28-9.45c-1.33-.69-1.32-1.36 0-2 1.29.64 1.28 1.31-.01 2.01zM1080 913.74c-1.9.59-2.24-2.42-.46-2.68 1.83-.62 2.19 2.41.46 2.68zm1.55 5.89q-1.23 3-2.63 6c-.12-2.1-.15-4.15-.2-6.22zm-38.33 40.31c-1.59.34-2.34-2.26-.66-2.58 1.44-.36 2.23 2.27.63 2.58zm0 5.25c-1.45.43-2-2-.66-2.4s1.85 1.92.62 2.4zm-34.64 34c1.59-.54 2.15 0 1.66 1.66q-2.53.72-1.7-1.69zm-1-21c1.59-.54 2.15 0 1.66 1.66q-2.53.72-1.7-1.69zm-5.67-11.64c7.14-.25 13.47 3.48 20.11 5.55l-.12-2.36 2.62 3.34c1.66-.58 3.36-1.16 5.07-1.71.18 1.11.38 2.23.63 3.39 1.32-.34 2.7-.66 4.07-1 1.1 1.61 2.19 3.22 3.31 4.88-7.41-1.16-14.13-4.78-21.48-6.17-4.95-1.47-10.84-1.69-14.24-5.95zm-6.72-4.55c.58-1.66 3.07-.39 2.32 1.11s-3.11.35-2.32-1.11zm-.75-277.34c1.51 1.26 3 2.57 4.51 3.92l-3.5.38c-.37-1.44-.72-2.88-1.01-4.29zm2.26 19.5c.84-1.39 3.21 0 2.15 1.43-.91 1.41-3.26-.08-2.15-1.42zm-22-324.76c-31.32 5.56-57.09 25.63-82 44-7.13-9.45-10-21-14.17-31.81 1.36 12.48 5.32 24.48 9.29 36.35-10.08 9.74-20.13 19.63-28.2 31.16-11.81 16.77-23.86 34.93-43.16 43.82-7.31 5.08-17.33 3.87-24 10-5.89 5.43-9.69 13.51-7.5 21.68 1.53 7 3.71 16.3 11.8 18.15 30.09 9.05 63.8 3.1 92 19.11-12.37-2.72-24.61-6-37.26-7-18.29-2.44-36.9-2.17-55-5.95-8.53-1.33-16.75-6.69-20.15-14.81-4.66-8.11-2.82-17.92-2.37-26.76 1.78-9.44 3-19.72 9.55-27.25 10-11.38 18.81-24.31 23.06-39 5.25-22.37 6.35-45.49 6.73-68.39-2.92 17.43-4.07 35.2-8.91 52.27-2.75 12.15-8.93 23.17-16 33.28 1.4-7.79 4-15.31 5.47-23.08 5.19-23.31 5.2-47.35 9-70.86 3.44-18.86 8.11-37.64 15.81-55.24 6.33-14.9 17.12-27.21 27.31-39.56 4.87-6.21 12.09-10.1 19.54-12.38 15-4 29.17-11.57 45-12 7.6-.84 15 1.3 22.32 3.39 23 8.75 41.34 27 54.87 47.13 12.46 21.1 21.22 44.17 28.33 67.56q13.45 43.21 28 86.07c4.92 16.1 9.79 32.35 11.8 49.11.41 9.45 2 20.58-4.46 28.54-7.09 6.33-15.62 10.89-22.27 17.72-8.45 8.29-13.82 19-20.76 28.45a120.13 120.13 0 0 1 27.22-43c4.87-5.78 11.44-10.79 13.54-18.39 2-6 .37-12.23-.26-18.22-6.28-36.05-20.09-70.08-34-103.7-.25.81-.76 2.43-1 3.24.48-8.32-5.94-14.68-11.51-20-8.13-5.03-18.66-3.84-27.64-3.62zm5.74 587a42 42 0 0 1 6.14 17.25l2.35-1.73a27.64 27.64 0 0 1-5.59 4.88 18.93 18.93 0 0 1 3.24-3.15c-5.46-3.83-7.58-10.85-6.12-17.23zm8.31-158c1.19-1.31 3.33.8 2 2s-3.29-.81-1.97-2.02zm1.06 97.07c-.84 1.21-2.88-.17-1.92-1.33.81-1.25 2.89.1 1.94 1.31zm-3.14-37.38l.82-1.13c3.35-.56.04 4.24-.79 1.11zm.37-467.41c-1.35 1.05-2.91-1.22-1.56-2.15s2.87 1.18 1.59 2.13zm3.55 508.39c-1.13 1.6-2.23 3.2-3.32 4.82-2-.07-4-.12-5.92-.16.68-2.73 1.48-5.44 2.29-8.12 2.36 1.08 4.66 2.24 6.97 3.44zm-7.14 8.93c-1.89.54-2.74-2.53-.79-2.95 1.86-.69 2.69 2.51.79 2.95zm2.71 26.4c-.07 1.73-.14 3.46-.15 5.24a38.92 38.92 0 0 1-2.67-5.06zm-5.66-23.24c-1.33-.69-1.32-1.36 0-2q1.93.92 0 1.97zM982 464q-7.3-.31-7.56-7.56a29.79 29.79 0 0 1 5.67 0c2.99 1.24 1.74 4.99 1.89 7.56zm-7.27 465.36c.9-1.34 3.14.24 2.15 1.56s-3.26-.32-2.16-1.61zm1.59-68.63c-1.56 0-1.29-2.48.16-2.38s1.21 2.38-.17 2.33zm.69-12.22c-1.39 1.07-2.84-1.3-1.43-2.15 1.32-1.15 2.78 1.21 1.42 2.1zm1.25 155.33c-1.63.84-2.68-1.86-1.2-2.6s2.88 1.84 1.19 2.55zm.47-71.93l2.43.35c.38.9.79 1.82 1.23 2.77-1 .79-2 1.6-3 2.42-.14-1.91-.39-3.77-.67-5.59zm.94 48.67c1.1-.94 2.56 1 1.46 1.92s-2.65-1.12-1.47-1.97zm5.56-38.73c.39-1 .82-1.93 1.28-2.87 1.17.05 2.37.13 3.61.23.38.84.8 1.71 1.25 2.59-2.08-.07-4.13-.05-6.15 0zm5.34-174.64c1.59-.54 2.15 0 1.66 1.66q-2.51.7-1.68-1.71zm2 141c1.59-.54 2.15 0 1.66 1.66q-2.51.7-1.68-1.71zm-26.63 95c.75-1.46 3.7-.44 2.6 1.2-.86 1.43-3.71.44-2.62-1.2zm2.31 7.61q-2.49.75-1.66-1.66c1.57-.54 2.13.01 1.64 1.66zm-7.51 31.49c-.84-1.5-1.62-3-2.38-4.44 1.42.45 2.86.92 4.35 1.41-.71.99-1.36 2-1.99 3.03zm.51 10.51c-1.66.5-2.21-.06-1.66-1.66 1.57-.54 2.13.01 1.64 1.66zm-18.67-161.66c1.59-.54 2.15 0 1.66 1.66q-2.48.75-1.66-1.66zm-1-137c1.59-.54 2.15 0 1.66 1.66q-2.48.75-1.65-1.66zm2 190.78c3.33-.54 0 4.26-.82 1.13zm1.14-44.41c1.11-.94 2.56 1 1.46 1.92s-2.68-1.07-1.5-1.92zm10-94.61c-1.63-.12-3.2-.21-4.76-.31-.12-.74-.35-2.22-.47-3q2.51 1.67 5.19 3.31zm-3.1-52.76c1.59-.54 2.15 0 1.66 1.66q-2.53.75-1.7-1.66zm-.25 157.52c-1.56 0-1.29-2.48.16-2.38s1.18 2.43-.2 2.38zm-1.44-20.81c-1 1.3-3.25-.27-2.15-1.56.86-1.31 3.11.24 2.11 1.56zm-1.61-189.6c-1.45.54-2.26-1.79-.73-2.16 1.3-.57 2.16 1.78.69 2.16zm-.67 213c1.44-.08 1.44 2.42 0 2.38s-1.54-2.39-.04-2.35zm-1.82 62.07c1.3-1.39 3.58.89 2.24 2.24s-3.68-.9-2.28-2.21zm.16-2.86c2-1.64 4.13-3.25 6.26-4.83-.78 2.17-1.54 4.34-2.23 6.55-1.42-.54-2.76-1.11-4.02-1.69zm5.63 18.65c1.59-.54 2.15 0 1.66 1.66q-2.53.78-1.7-1.63zm1.65-67.29c-1.45-2.19-2.87-4.29-4.19-6.45 1.19-.57 2.41-1.12 3.67-1.66 2 2.19 4.13 4.45 6.15 6.74-1.96.45-3.81.92-5.67 1.4zm4.7-127.76c.91-1.34 3.18.23 2.15 1.56s-3.25-.25-2.2-1.53zm.14-128.78c1.12-1.09 3 .83 2 2-1.22 1.04-3.11-.85-2.05-1.97zm5.24 165.7a16.63 16.63 0 0 0-1.08 1.6c-1.35.07-2.72.14-4 .27-.07-1.41-.08-2.78-.07-4.15q2.5 1.2 5.15 2.28zm-4.12 9.84q-2.49.75-1.66-1.66c1.59-.56 2.15-.01 1.66 1.64zm.22 106.61l-2.82.18c0-1.76 0-3.52.15-5.24a47.59 47.59 0 0 1 2.67 5.04zm-4.91 116.67q1.9 1 0 2-2.02-1.02.01-2.02zm.14-30.37c.42-1.38 3.25-1.4 3.18.29-.35 1.58-3.45 1.5-3.17-.31zm2.86-77.05c2.18-1.46 4.31-3 6.48-4.54a96.09 96.09 0 0 1-4.23 6.36c-.79-.65-1.53-1.25-2.24-1.84zm9.26-100.44c1.3-1.48 3.62.81 2.15 2.16s-3.6-.88-2.14-2.18zm-.24-9.08c1.59-.54 2.15 0 1.66 1.66q-2.48.73-1.65-1.68zm-.34 102.66c-1.66.5-2.21 0-1.66-1.66 1.6-.56 2.16-.01 1.67 1.64zm-.65 10.45c1.63.28.88 3-.68 2.42-1.73-.38-.89-2.93.69-2.44zm-3.35 9.55q-2.49.75-1.66-1.66c1.6-.56 2.16-.01 1.67 1.64zm-.89 9.35l5 1.1q.43 3 .9 6.07c-1.95.13-3.88.29-5.79.47q-.1-3.83-.1-7.66zm4.59 16.95c.78-1.23 2.87.12 1.92 1.33s-2.84-.19-1.91-1.35zm1.79-29.95c.84-1.4 3.21 0 2.15 1.43s-3.25-.11-2.14-1.45zm1.79-128c-1.33-.69-1.32-1.36 0-2q1.94.89.01 1.94zM930.43 991v-3.17l2.37.76.76 2.37zm2.82 4.84c-1.66.5-2.21 0-1.66-1.66 1.59-.56 2.15-.01 1.66 1.64zm-14.36-36.47c1-3 2.24-6.17 4.61-8.45a33.42 33.42 0 0 1 5.81 2.17 86.92 86.92 0 0 1-10.42 6.26zm6.65 37.78c-1.33-.69-1.32-1.36 0-2q1.93.93 0 1.98zm-5.79 12c1-1.5 3.49.15 2.36 1.64s-3.56-.18-2.36-1.62zm1.54 9.09c-.72 1.23-1.4 2.47-2 3.74-.79-2.19-1.72-4.3-2.58-6.43l2.62-.65c.58 1.1 1.25 2.23 1.96 3.36zm3.2-125.34c-1.71 0-1.57-2.73.08-2.66s1.51 2.76-.08 2.68zm1.89 27.89v3.17h-3.17l.76-2.37zm-3.78-88.65c1.59-.54 2.15 0 1.66 1.66-1.66.52-2.26-.03-1.66-1.64zm1.66-30.34c-1.66.5-2.21 0-1.66-1.66 1.59-.52 2.15.03 1.66 1.68zm-.95-118.35c-1.34 1-2.91-1.23-1.56-2.15 1.25-1.07 2.84 1.2 1.56 2.17zm-2.77 115.66c-1.33-.69-1.32-1.36 0-2q1.93.97 0 2.02zm-.79 122.19c1.28-1.09 2.84 1.18 1.56 2.15s-2.91-1.22-1.56-2.13zm9.81 86.78q1.9 1 0 2c-1.36-.64-1.35-1.31 0-1.98zm1.41 15.21c.08.79.23 2.38.31 3.17q-2.26-1.58-4.42-3.16c1.34-.01 2.71-.01 4.14.01zm-.26-61.85a10 10 0 0 1 6.42-4.94 10.3 10.3 0 0 1-6.42 4.96zm1-107.39l.82-1.13c3.35-.52.03 4.28-.8 1.15zm3.57 96.4c-1.34 1-2.91-1.24-1.56-2.15 1.28-1.07 2.86 1.2 1.58 2.17zm1.31 51c1.47-.13 1.4 2.37 0 2.4s-1.4-2.33.02-2.36zm.08-4c1.11-.94 2.57 1 1.46 1.92s-2.62-.99-1.44-1.84zm-29.92-37.22c.9-1.34 3.15.24 2.15 1.56s-3.23-.19-2.13-1.48zm-1.22 10.82c-1.33-.69-1.32-1.36 0-2q1.95 1.03.02 2.08zm1.06-119c1.59-.54 2.15 0 1.66 1.66q-2.47.86-1.64-1.55zm-3.06-14c-1.33-.69-1.32-1.36 0-2q1.95 1.03.02 2.08zm-4.26 152.46c-1.43.41-1.91-.07-1.45-1.45 1.39-.38 1.88.1 1.47 1.53zm.48 21.25c-.84 1.17-2.94-.11-2-1.32.73-1.1 2.8.18 2.02 1.4zm-2.08-254.59c-1.55-.46-.46-2.67.89-2.13s.44 2.77-.87 2.21zm3.33 287.24l.36 3q-2.16-1.65-4.2-3.31c1.2.08 2.48.19 3.84.31zm-15.86-64.07l-3-2.41c1.81-.57 3.61-1.21 5.43-1.85a72.61 72.61 0 0 0-2.48 4.26zm-.44 77.34c-1.5 0-1.5-2.42 0-2.38s1.39 2.41-.05 2.38zm-11 3.32c-.34-1.78-.63-3.53-.93-5.27 1.68.5 3.36 1 5.09 1.58-1.46 1.22-2.86 2.44-4.22 3.69zm4 6.77a54.07 54.07 0 0 1-2.69 4.89c-.29-2-.51-3.95-.69-5.89zm-3.36-137.45c-1.23.8-2.51-1.28-1.32-2s2.45 1.18 1.29 2zm.62 59.38c-1.27.84-2.55-1.26-1.32-2s2.36 1.19 1.29 2zm-2.33 42.56c1.64-.05 1.51 2.72-.08 2.66s-1.55-2.73.05-2.66zm1.71 22.89c.73-1 1.52-2.07 2.33-3.07h2.59c.37 1 .77 2.07 1.2 3.13zm2.35-80.85c1.44-.08 1.44 2.41 0 2.38s-1.53-2.42-.03-2.38zm3 6.59c-1.54.06-1.43-2.37 0-2.4s1.31 2.37-.03 2.4zm.12-115.72c1-1.5 3.49.16 2.36 1.64s-3.59-.2-2.39-1.64zm4.81 22.35c1.15-1 2.52 1.1 1.33 1.92s-2.61-1.13-1.37-1.92zm3 10c1.27-1.05 2.84 1.19 1.56 2.15s-2.96-1.24-1.61-2.16zm5 150.86c1.65.38.53 2.93-.89 2.56-1.73-.43-.63-2.94.83-2.57zm-2-7.24c-1.33-.69-1.32-1.36 0-2q1.87.94-.06 1.99zm-.29-185.19l.76-2.37 2.37-.76v3.17zm3.36-31.63c1.43-1.19 3.08 1.34 1.64 2.36s-3.22-1.39-1.7-2.37zM872 1106c.15 1.48.33 3 .53 4.5-3-.82-5.89-1.81-8.74-2.9 2.66-.66 5.35-1.17 8.21-1.6zm-9.11-8.85c1.37-.46 1.86 0 1.45 1.45-1.45.4-1.93-.09-1.47-1.46zm.39-1.54a38.24 38.24 0 0 1-1.75-6.55c3.18-2.92 5.71 1.63 7.53 3.78zm.78-103h-3.14v-2.3h3.14zm-.14 46.78c-1.25 1.3-3.36-.84-2-2s3.26.79 1.98 2.03zm1 4.32c-.09 1.75-.16 3.52-.23 5.3-1.67-.16-3.31-.3-4.92-.43a69.73 69.73 0 0 1 5.14-4.84zm1.72 30.42q2.4-.81 1.66 1.66c-1.67.53-2.22-.03-1.67-1.63zm-9.34-118.31q-2.49.75-1.66-1.66 2.36-.81 1.66 1.66zm-10.37 161.39c-1.19 1.07-2.55-1-1.32-1.85 1.16-1.07 2.49.98 1.32 1.85zm.82-141.21c1.86-.66 2.69 2.53.79 2.95s-2.74-2.51-.79-2.95zm1.5 159.56c-.06 1.66-.08 3.35-.08 5.05l-2.71-.27q1.33-2.41 2.78-4.76zm-.6-105.42q2.4-.81 1.66 1.66-2.49.77-1.66-1.64zm202.42-142.75a95.3 95.3 0 0 1-.8-4.78c1.22 1 2.51 1.91 3.8 2.9-.98.71-2.07 1.26-3 1.9zm.11 7.3c-1.7.77-2.18-2-.66-2.44 1.64-.77 2.1 1.97.66 2.46zm-4.66-47.55c1.59-.54 2.15 0 1.66 1.66-1.66.52-2.18-.03-1.66-1.64zm-1.84-9.85c.9-1.34 3.14.24 2.15 1.56s-3.25-.25-2.15-1.54zm4.08-115.07c1.3-1.48 3.62.81 2.15 2.16s-3.61-.84-2.15-2.14zm4.84 104c-1.55-.46-.46-2.67.89-2.13s.4 2.72-.9 2.16zm.89-68.15c1.27.66 1.26 1.33 0 2-1.37-.63-1.36-1.3-.01-1.97zm.39 108.18c1.2-.89 2.48 1.22 1.32 2s-2.52-1.25-1.33-1.97zm1-4c.84-1.16 2.8.3 1.92 1.46s-2.88-.33-1.92-1.45zm1.57-43.13c-1.33-.69-1.32-1.36 0-2q1.94.96 0 2.01zm-.65 14.31c-1.23 1-2.57-1.13-1.33-1.92 1.15-.94 2.53 1.11 1.33 1.93zm-24.88 98a17.31 17.31 0 0 1 4.88-4.88 19.17 19.17 0 0 1-4.88 4.88zm3.55 3.7c-1.33-.69-1.32-1.36 0-2q1.93.95 0 2zm-9.65-12.3c.12-2.08-.5-4.6 1.17-6.21 1.71-1.83 4.46-1.22 6.74-1.43-1.35 2.42-.54 6.15-1.27 8.94-2.24-.46-4.46-.9-6.65-1.3zm.38 44c-1.66.5-2.21 0-1.66-1.66 1.58-.55 2.14 0 1.65 1.65zm.3-379.3c1.15-.94 2.52 1.1 1.33 1.92-1.24.96-2.58-1.14-1.34-1.93zm4.27 302.62c1.37-.46 1.85 0 1.45 1.45-1.44.4-1.93-.08-1.46-1.46zm-3.9 53.39c1.49-1.06 3.31 1.55 2.13 2.78-1.53.94-3.4-1.59-2.14-2.79zm2.67-16.37c1.59-.54 2.15 0 1.66 1.66q-2.5.74-1.67-1.67zm2 27.14c1.44-.08 1.44 2.42 0 2.38a1.19 1.19 0 0 1 .02-2.39zm.95 9.36c1.16-.84 2.43 1.23 1.32 2-1.25.87-2.54-1.23-1.3-2.01zm2.95-71.26c-.14-.32-.42-1-.57-1.29 1.4-2.21 3.13 1.88.59 1.28zm1.21-60.33l.82-1.13c3.34-.55.02 4.25-.81 1.12zm-18.16 121q1.9 1 0 2c-1.34-.64-1.33-1.31.02-1.98zm-.06-7.8c1.49 0 1.22 2.43-.16 2.38-1.54-.01-1.27-2.46.18-2.36zm1.25-148c.9-1.34 3.14.24 2.15 1.56s-3.23-.24-2.13-1.53zm3.5 17.51c-1.66.5-2.21 0-1.66-1.66 1.6-.51 2.16.04 1.67 1.69zm-.76 136.21c-1.89.54-2.74-2.53-.79-2.95 1.86-.69 2.69 2.51.79 2.95zm-.95-314.84q-2-1 0-2c1.3.6 1.29 1.27 0 1.97zm.35 159.31c-1.22 1-2.57-1.13-1.33-1.92 1.15-.98 2.51 1.07 1.33 1.89zm-1.32-92.34c1.27.66 1.26 1.33 0 2-1.35-.69-1.34-1.36 0-2.03zm3.42 258.87c-.68 2.21-1.36 4.42-2.14 6.61-.67-1.78-1.24-3.56-1.77-5.33 1.27-.43 2.58-.85 3.91-1.28zm-16.23-148.85c.84-1.4 3.21 0 2.15 1.43-.91 1.42-3.26-.07-2.15-1.41zm.85-413.56c1.83-.4 2.27 2.76.54 3.16-2.01.52-2.27-2.7-.54-3.14zm3.35 458.76c1 1.46 2.15 2.93 3.27 4.39-2.21 1.08-4.39 2.21-6.55 3.35-.38-1.36-.67-2.66-1-4 1.39-1.22 2.85-2.46 4.28-3.72zm3.16-30.56c-1 1.46-3.56-.2-2.36-1.64.96-1.48 3.49.18 2.31 1.66zm-1.54-18.71q1.9 1 0 2c-1.36-.64-1.35-1.31 0-1.98zm0-18q1.9 1 0 2c-1.36-.64-1.35-1.31 0-1.98zm.19-291.79c.9-1.33 3.14.24 2.15 1.56s-3.25-.24-2.15-1.54zm-9.92 205.83c1.37-.46 1.85 0 1.45 1.45-1.43.43-1.91-.05-1.45-1.43zm-.29 167c-1.33-.69-1.32-1.36 0-2q1.93.96 0 2.01zm-.49 2.27a29.7 29.7 0 0 1 10-8.11c2 2.89 4 5.77 5.84 8.79a31.78 31.78 0 0 1-16.37 4.93 58.55 58.55 0 0 1-3.19-7.9 33.78 33.78 0 0 0 3.72 2.3zm9.48 71.73c-1.33-.69-1.32-1.36 0-2q1.93.96 0 2.01zm1.42-53.85c1.2-.89 2.48 1.22 1.32 2s-2.51-1.27-1.32-1.99zm2.4 54c-.38 1.62-.72 3.28-1.1 4.93-.16-1-.29-2-.38-3-1.23-.33-2.43-.65-3.59-.94q2.49-.46 5.07-.93zm-6.73 18.56c-1.54.06-1.43-2.37 0-2.4s1.43 2.43 0 2.46zm.5-47.51a13.27 13.27 0 0 1 .08 7.18 47.89 47.89 0 0 1-.08-7.12zm-10.37-24.15c1-1.5 3.49.16 2.36 1.64s-3.56-.2-2.36-1.64zm5.53 7.09a58.87 58.87 0 0 1-4 6.44c-.55-1.11-1.07-2.2-1.54-3.27 1.82-1.03 3.67-2.11 5.53-3.17zm32 68.07c-1.7 1-3.08-1.91-1.52-2.84 1.63-1.09 2.97 1.87 1.48 2.84zm-.66-61.68c.43-1.41 3-.93 2.65.63s-3.22.97-2.69-.63zm2.14-123.48c.83-1.4 3.21 0 2.15 1.43-.95 1.4-3.3-.09-2.19-1.43zm1.95 9.36c1.1-.94 2.56 1 1.46 1.92s-2.68-1.07-1.5-1.92zm.9 62.63c1.59-.54 2.15 0 1.66 1.66q-2.53.75-1.7-1.66zM1042 566c.59-1.47 1.27-2.89 2-4.3.34 1.24.78 2.53 1.18 3.81zm6.94 376.48c-1.26.86-2.5 1.74-3.72 2.62-.27-.8-.8-2.38-1.06-3.18 1.52.08 3.12.29 4.74.51zm-.38-87.27c1.59-.54 2.15 0 1.66 1.66-1.7.45-2.22-.1-1.7-1.71zm1.14 87.2c1.73 1.6 3.46 3.23 5.15 4.93a54 54 0 0 1-5.47-1.13zm6.78 16.08c2.11.56.11 4.26-1.59 3-1.13-1.17.11-3.16 1.54-3.05zm.64-2c-1.18.9-2.64-1.07-1.46-1.92s2.51.98 1.41 1.88zm-2.4-64.14c.94-2.15 1.86-4.3 2.7-6.49.74 1.29 1.48 2.58 2.27 3.91-1.69.81-3.38 1.67-5.02 2.54zm1.67-11.31v-2h4v2c-1.39-.04-2.75-.04-4.05-.04zm3.32-97.68c1.28-1.09 2.84 1.18 1.56 2.15s-2.97-1.27-1.61-2.19zm.61 86.62l.55-2.62h3.19v3.33c-1.34-.28-2.6-.54-3.79-.75zm17.56 5.64a50.38 50.38 0 0 1-8.1.82c-.74-3.15-1.55-6.25-2.38-9.34 2.3.66 4.74 1 6.92 2.09 1.49 1.87 2.38 4.2 3.51 6.39zm-2.36-108.48q1.9 1 0 2c-1.41-.7-1.4-1.37-.05-2.04zm4 81.8c1.53-.71 2.46 1.94.82 2.38-1.61.61-2.51-1.99-.82-2.42zm-.66-11.79c1.39-2.2 3.14 1.89.57 1.29-.14-.36-.43-1.01-.57-1.33zm-.13 21c1.37-.46 1.85 0 1.45 1.45-1.43.4-1.92-.08-1.45-1.46zm.27 4.53c-1 1.3-3.21-.28-2.15-1.56.91-1.35 3.15.22 2.15 1.55zm-8.56 16.73c-.14-.32-.42-1-.57-1.29 1.38-2.21 3.13 1.88.56 1.28zm-7.28-101c.37-1.73.82-3.42 1.24-5.13 1.63-.36 3.31-.71 5-1.07.76 1.2 1.5 2.43 2.25 3.71-2.84.84-5.65 1.7-8.49 2.44zm3-146.54c-1.66.5-2.22 0-1.66-1.66 1.6-.59 2.16-.03 1.67 1.61zm-2.73 131.58c-.14-.32-.42-1-.57-1.29 1.4-2.25 3.14 1.84.58 1.24zm0 61c1.64.38.53 2.94-.89 2.56-1.68-.49-.54-3.01.91-2.64zm-.94 54.79c1.59-.54 2.15 0 1.66 1.66-1.64.42-2.2-.13-1.64-1.74zm2-49c1.59-.54 2.15 0 1.66 1.66-1.64.42-2.2-.13-1.64-1.74zm2.91 57.14c1.49 0 1.22 2.43-.16 2.38-1.54-.11-1.24-2.56.17-2.46zm-.91 16.86c1.59-.54 2.15 0 1.66 1.66-1.64.42-2.2-.13-1.64-1.74zm1.33-8.1c-.05-2.8 2.06-4.33 2.58-6.78.56 1.53 1.26 3.13 1.9 4.71-1.51.58-3.02 1.26-4.47 1.99zm3.9 15.08c1.37-.46 1.85 0 1.45 1.45-1.42.33-1.91-.15-1.44-1.53zm.75-13.48c1.16-.84 2.43 1.23 1.32 2-1.26.81-2.55-1.3-1.31-2.08zm1-19c1.56-1 2.75 1.79 1.31 2.63-1.59.93-2.78-1.89-1.28-2.71zm1.24 17.58c1.3-1.48 3.62.81 2.15 2.16s-3.58-.94-2.12-2.24zm2.73-4.14q1.9 1 0 2c-1.33-.74-1.32-1.41.03-2.08zm1.08-6.17c-1.7-.42-.57-2.91.89-2.56 1.67.3.59 2.86-.86 2.48zm1.18-19.79c1.37-.46 1.85 0 1.45 1.45-1.4.33-1.89-.15-1.42-1.53zm30.8-92.7c-.88 1.19-2.94-.15-1.85-1.32.81-1.3 2.94.06 1.88 1.24zm.63 28.15c-1.43.41-1.92-.07-1.45-1.45 1.4-.54 1.88-.05 1.48 1.37zm-2.71-53.49c1.27.66 1.26 1.33 0 2-1.33-.74-1.32-1.41.03-2.08zm-1.42 58.09a14 14 0 0 1 0 6.44 57.86 57.86 0 0 1 0-6.44zm-5.39-31.71c1.14-1.24 3.37.71 2.23 2s-3.43-.72-2.22-2zm.54 27.72a44.85 44.85 0 0 1-3.66 5.76 18.44 18.44 0 0 1 3.67-5.76zm-.68-38.12c1.59-.54 2.15 0 1.66 1.66-1.65.5-2.21-.05-1.65-1.66zm1.94 6c-1.33-.69-1.32-1.36 0-2q1.95.92.01 1.97zm-1.1-49.87c0-1.89.08-3.78.18-5.64 1.08 1.32 2.16 2.68 3.24 4.06-1.16.49-2.3 1.01-3.41 1.55zm-2.7 0c-.69 1-1.34 2-2 2.95-.94-.93-1.81-1.83-2.66-2.72 1.57-.12 3.05-.21 4.67-.26zm-3.17 104.84q1.9 1 0 2c-1.34-.69-1.33-1.36.02-2.03zm0 24.06c1.59-.54 2.15 0 1.66 1.66-1.61.47-2.17-.08-1.61-1.69zm1.8-32.1c0-.61.13-1.83.17-2.45q2.56 1 5.19 2.08c-1.78.07-3.6.2-5.32.34zm.36 84.25c.9-1.34 3.14.24 2.15 1.56s-3.2-.3-2.11-1.59zm1-40.94c1.3-1.38 3.58.89 2.24 2.24s-3.54-.96-2.15-2.27zm1.94 18.8c1-1.5 3.49.16 2.36 1.64s-3.47-.23-2.27-1.67zm2.51-20.35c-1.66.5-2.22 0-1.66-1.66 1.68-.57 2.24-.02 1.75 1.63zm-1.65-6.5c.37-1.58.74-3.16 1.19-4.69 1.32.62 2.69 1.28 4.06 2-1.65.85-3.43 1.75-5.16 2.66zm4 18.92c1.55-.51 2.26 2.12.66 2.5s-2.24-2.18-.58-2.53zm.23-49.1c1.37-.46 1.85 0 1.45 1.45-1.35.38-1.84-.1-1.37-1.48zm.92-31c1-1.5 3.49.16 2.36 1.64s-3.48-.2-2.28-1.64zm2.09 13.28c1.26-1.19 3.21 1 2 2.23s-3.23-1.05-1.92-2.23zm3.26 15.22c-1 1.3-3.22-.28-2.15-1.56.99-1.34 3.25.23 2.25 1.56zm.16 36.15c-1.66.5-2.22 0-1.66-1.66 1.67-.54 2.23.01 1.74 1.66zm-2.41 31.8c1.42-1.1 3.5 1.29 2.28 2.61-1.36 1.04-3.39-1.34-2.2-2.61zM841 1029.56c-1.19.16-2.35.33-3.48.53-.44-1.79-.88-3.57-1.24-5.33 1.76.31 3.57.7 5.39 1.09-.22 1.22-.44 2.45-.67 3.71zm.63 55.48l-.76 2.37-2.37.76V1085zm-8.07 54.3a36.25 36.25 0 0 1 3.13-2.8c.23 1.68.48 3.37.77 5.09-1.32-.78-2.63-1.52-3.87-2.29zm5.55 13.8c-2.7 3.09-1.61-3.79 0 0 5-.36 9.35 2.46 12.72 6-4.61-.97-9.48-2.3-12.7-6zm14.8-140.7c-1.22 1-2.57-1.13-1.33-1.92 1.17-.95 2.54 1.1 1.35 1.92zm8.19 105.08c-1.86.66-3.7 1.31-5.53 1.93-.46-1.34-.9-2.66-1.29-3.95 2.29.59 4.59 1.25 6.85 2.02zm-6.64 17.34c.1-1.5.24-3 .41-4.43 1.63 2.54 3.17 5.14 4.67 7.78zm12.68 18.6c-.82 1.13-2.89-.15-2-1.32s2.86.06 2.03 1.32zm-8.24-26.06c1.83-1.51 3.73-2.94 5.63-4.38 3.68 2.56 7.5 5.39 8.69 10a86.94 86.94 0 0 1-14.29-5.62zm15-12c-.84 1.2-2.88-.17-1.92-1.33.79-1.18 2.88.17 1.93 1.38zm-2.45-24.21q-1.06-3-2.09-6c1.29-.39 2.65-.73 4-1.08q.58 2.84 1.25 5.71c-1.07.51-2.12.96-3.15 1.42zm6.11 5.89q-2-1 0-2c1.31.67 1.3 1.35.01 2.05zm3.51-14.81c-1.44.76-2.66-1.67-1.39-2.51s2.55 1.69 1.39 2.56zm-2-15.73a19.65 19.65 0 0 1 5.76 4.8 19.66 19.66 0 0 1-5.76-4.75zm7.65-41.06c1.11-.94 2.57 1 1.46 1.92s-2.64-1.02-1.46-1.87zm.12 47.52a68.36 68.36 0 0 1 12.49-5.05c-2.4 4.5-7.77 6.05-12.49 5.1zm9.72 53.82c-.78-1-1.54-1.94-2.25-2.88 1.49-.28 3-.54 4.57-.78.15.65.43 2 .58 2.6-1 .38-1.97.73-2.9 1.11zm3.13-21.62c-1.55-.47-.46-2.67.89-2.13s.42 2.74-.89 2.18zm.63-16.49l3.32-.89c.08 1.73.17 3.46.25 5.23a44.21 44.21 0 0 1-3.57-4.29zm1.08-3.73l.48-3.66c1.45 1.75 2.84 3.57 4.2 5.45zm-3.68-12.8a87.13 87.13 0 0 1 9.78 1.59c-3.17 3.4-6.97.76-9.78-1.54zm10.54-17.41c-1.66.5-2.21-.06-1.66-1.66 1.6-.49 2.16.06 1.67 1.71zm.74-5.18h-3.14v-2.3H910zm.54-110.51c-1.33-.69-1.32-1.36 0-2q1.94 1 .01 2.05zm0-96c-1.33-.69-1.32-1.36 0-2q1.94 1 .01 2.05zm2.23-388c6-3.07 9.32 6.18 4.32 8.66-5.99 3.14-9.36-6.12-4.32-8.58zm4.29 486.18a46.27 46.27 0 0 1 2.08 4.62c-1.75-.87-3.47-1.73-5.14-2.6a32.31 32.31 0 0 1 3.06-1.94zm2.2 170.06c-1.29 1.33-3.69-.77-2.35-2.14s3.67.82 2.35 2.22zm.59-58.4q-.1-3.54 0-7c2.66 2.15 2.66 4.97 0 7.08zm4 21.42c-1.25 1.3-3.36-.84-2-2s3.3.84 2.01 2.08zm-.91-34.49a32.11 32.11 0 0 1 3-6.39c2.25-1.33 5-1.5 7.45-2.26-1.67 3.57-3.08 7.24-4.45 10.94-2.02-.69-4.02-1.47-5.99-2.21zm9.68 11.1a28.14 28.14 0 0 1 7.5-3.24c-1.84 2.42-4.38 4.14-7.49 3.29zm4.89 39.37c-.14-.32-.42-1-.57-1.29 1.4-2.12 3.15 1.97.58 1.37zm3.58 3.41c-1 1.45-3.56-.2-2.36-1.64.97-1.42 3.5.23 2.37 1.72zm-.62-18.89c-1.71 0-1.57-2.74.08-2.66s1.52 2.82-.07 2.74zm2.79-67.33c-1.43.41-1.91-.07-1.45-1.45 1.37-.38 1.86.1 1.45 1.53zm.34-23.69c1.54-.71 2.46 1.94.82 2.38-1.61.73-2.5-1.87-.82-2.3zm4.64 106.92c-1.66.5-2.21-.06-1.66-1.66 1.59-.46 2.15.09 1.66 1.74zm0-7c-1.66.5-2.21-.06-1.66-1.66 1.59-.46 2.15.09 1.66 1.74zm-.88-43.14c-.92-.07-1.81-.12-2.66-.15.14-2.76.3-5.5.57-8.24 1.28-.43 2.64-.81 4-1.19a31.65 31.65 0 0 0-1.91 9.66zm3.9 5.91c-1.43.41-1.91-.07-1.45-1.45 1.37-.38 1.85.1 1.45 1.53zm.09-30.93c-1.93-1-3.78-2-5.58-3.09 2.12-.47 4.31-.87 6.48-1.3-.31 1.53-.63 2.98-.9 4.47zm.94-8.19c-1.34 1-2.91-1.24-1.56-2.15 1.27-1.01 2.84 1.26 1.56 2.23zm.54 65l3-.36-3.31 4.2c.07-1.23.17-2.49.31-3.75zm8.29 8.28c-1.89-1-3.72-2.05-5.5-3.15 1.9-.32 3.88-.6 5.85-.87-.08 1.09-.26 3.1-.35 4.11zm2.11-5.94c-1.66.5-2.21-.06-1.66-1.66 1.59-.45 2.15.1 1.66 1.75zm-.71-13.22c-.32-1.69-.64-3.38-.9-5 1.36 1.66 2.72 3.35 4.1 5.05-1.11.02-2.15.03-3.2.04zm3-13.47c-1.33-.69-1.32-1.36 0-2q1.92 1.04-.01 2.09zm-3.36-10.53c1.29-1 2.6-2 3.95-3 .46 1 1 2.07 1.48 3.13q-2.75.01-5.44-.04zm6.07-5.16c-.77-1.15-1.5-2.29-2.17-3.42 1.5.33 3 .73 4.58 1.17-.83.83-1.64 1.58-2.42 2.34zm-.9-13.92c-.44-1.61-.83-3.21-1.18-4.79 1.57.36 3.17.76 4.79 1.18-1.24 1.27-2.44 2.48-3.62 3.7zm9.67-63.05c.14 1.57.32 3.17.53 4.79-1.78.34-3.56.67-5.28 1 1.54-1.93 3.1-3.9 4.75-5.79zm.86 78.22c-.91 1.38-3.26-.09-2.15-1.43.84-1.4 3.21.05 2.15 1.43zm6.36-.86c-1.61.48-2.32-2.16-.66-2.5 1.55-.51 2.26 2.12.66 2.5zm-2.82-8.74v-3.17l2.37.76.76 2.37zm-3.77-10.08a27.41 27.41 0 0 1 7.6-9.56c.38 2.42.72 4.88 1 7.35-2.87.7-5.73 1.48-8.6 2.19zM988.4 1028v-3.17l2.37.76.76 2.37zm-.81-17.7q.37-3.51.85-7c1.57 1.33 3.1 2.75 4.57 4.25-1.85.91-3.63 1.83-5.42 2.73zm1.85-43.3c-.8-1.27-1.57-2.52-2.3-3.75h5l1.33 1.59c-1.36.71-2.71 1.45-4.03 2.16zm4.19 20.25c2 .59 4 1.2 5.95 1.82q-2.41 2.69-4.88 5.34c-.4-2.41-.76-4.74-1.07-7.13zm4.58 54.54c-1.66.5-2.21-.06-1.66-1.66 1.59-.51 2.15.04 1.66 1.69zm4.68 2.75q-2 .12-3.84.3c1.36-1.14 2.75-2.24 4.2-3.31zm3 6.3c-1 1.29-3.25-.27-2.15-1.56.87-1.28 3.1.26 2.11 1.59zm2.35-15.05c-1.66.5-2.21 0-1.66-1.66 1.55-.51 2.11.04 1.62 1.69zm-.2-15.39c1.58-.91 3.12 1.86 1.87 3-1.67.94-3.14-1.88-1.91-2.97zm7.4 21.54c-1.88-1.29-4.27-2.15-5.36-4.24-.55-2.67.07-5.42.28-8.07 2.11 1.16 4.2 2.36 6.34 3.53-.7 2.76-.7 5.98-1.3 8.84zm2.82-62.38c-1.43.41-1.91-.07-1.45-1.45 1.33-.43 1.81.05 1.41 1.48zm7 47.35c.87-.25 1.77-.47 2.71-.67.13 1.62.28 3.25.47 4.91-1.14-1.4-2.19-2.81-3.23-4.21zm-3.8-43.11a43 43 0 0 1 4.24-6.67c1 2.61 2 5.25 3 7.91zm7.67 35.46a8.41 8.41 0 0 1 2.89-9.09c-.91 3.09-1.95 6.09-2.94 9.12zm5.65-37.17c.78-1.22 2.91.14 1.85 1.32-.93 1.21-2.99-.12-1.9-1.29zm1.77 2q1.9 1 0 2c-1.41-.65-1.4-1.32-.06-1.99zm2.46 3.05c1.77 3.74-.06 7.7-2.1 10.95a30.41 30.41 0 0 1 2.09-10.94zm3.4 24.19c-1.7.15-3.38.34-5 .4a59.81 59.81 0 0 1 .3-8.57c1.79-.28 3.62-.55 5.46-.82-.3 3.03-.77 5.88-.82 9zm1.11-25.81a20.83 20.83 0 0 1-7.42-6.6c2.75 1.11 5.46 2.37 8.23 3.5-.25.79-.66 2.34-.87 3.11zm13 3.6c-1.33-.69-1.32-1.36 0-2q1.87.96-.07 2.01zm-16.75-12.7c6.45.06 13.25.54 18.34 5.06-6.6-.22-13.75.21-18.41-5.05zm21.25-43c-1.39 1.07-2.84-1.3-1.43-2.15 1.26-1.06 2.72 1.3 1.36 2.19zm.88 19.95c1.24-.12 2.52-.23 3.84-.3l-4.2 3.31zm2.75 22.82a2.11 2.11 0 0 1-.89-3.46c1.86-.83 2.85 3.27.82 3.5zm.87-6.1c-1.33-.69-1.32-1.36 0-2q1.86.99-.07 2.04zm1.95-18.21c-1.71 0-1.57-2.73.08-2.66s1.45 2.78-.16 2.7zm2.52 10.79a35.25 35.25 0 0 1 3.07-2.91c.43 1.08.9 2.18 1.39 3.31zm5.1-8.9c-1 1.46-3.56-.2-2.36-1.64.88-1.46 3.41.2 2.27 1.68zm2.49-12.65c1.59-.54 2.15 0 1.66 1.66-1.74.54-2.3-.01-1.74-1.62zm.93 10.24c-.14-.32-.42-1-.57-1.29 1.31-2.16 3.06 1.93.49 1.33zm.54-11.6l-3.79-1.93c.38-1.06.8-2.09 1.25-3.1 1.57.78 3.16 1.59 4.78 2.41-.86.86-1.62 1.75-2.29 2.66zm2.53 11.36c1.59-.54 2.15 0 1.66 1.66-1.74.54-2.3-.01-1.74-1.62zm.23-23c1.37-.46 1.85 0 1.45 1.45-1.51.43-2-.05-1.53-1.43zm.71 31c-1.33-.69-1.32-1.36 0-2q1.85.96-.08 2.01zm2.14-47.65c1.74-1.09 2.89 2 1.32 2.84-1.88 1.09-2.98-2-1.41-2.83zm2.43 38.18c-1.35 1.05-2.92-1.23-1.56-2.15s2.75 1.2 1.47 2.16zm-2.54-47.39a52.12 52.12 0 0 1-4.72-7.84q4.17 1.47 8.45 2.69c-1.37 1.7-2.66 3.39-3.82 5.16zm5.78 47.41c-1.56 0-1.29-2.48.16-2.38s1.13 2.44-.25 2.39zm-1.67-27.1c0-1.44 0-2.86.08-4.26 1.38-.06 2.8-.08 4.26-.08q-2.18 2.28-4.43 4.35zm4.42-16.91c-1 1.3-3.21-.28-2.15-1.56.82-1.33 3.07.24 2.07 1.57zm-.53-5.41c1.63-.05 1.51 2.72-.08 2.66s-1.66-2.72-.01-2.65zm1.1 15.41c-1.66 0-1.4-2.65 0-2.88 1.51-.06 1.35 2.72-.09 2.89zm.66-26.57c-4.48-3-9.1-6.22-11.51-11.21 4.53 2.58 8.42 5.95 12.57 9.16-.37.52-.89 1.55-1.15 2.06zm2.24-1q1.9 1 0 2c-1.45-.65-1.44-1.32-.09-1.99zm6.52 23c-2.39.7-4.77 1.32-7.18 1.8 1.93-1.76 4.41-2.82 7.11-1.76zm-6.56 40.27c-.14-.32-.42-1-.57-1.29 1.3-2.16 3.06 1.93.48 1.33zm2.23-30.56c-.84 1.17-2.94-.11-2-1.32.61-1.13 2.68.14 1.9 1.36zm1.46-2a2.05 2.05 0 0 1-1.58-3.78c2.28-.84 3.78 2.78 1.48 3.86zm3.08 9.39c-1.45.53-2.26-1.79-.73-2.16 1.24-.49 2.1 1.85.63 2.24zm2.14-15c-1.61.65-2.51-1.95-.82-2.38 1.4-.62 2.4 2.03.72 2.47zm1.47-2.87a19.06 19.06 0 0 1 8.87 8c-4.03-1.32-7.61-3.82-8.97-7.91zm-7.39-20.11l4.7-.16c-.53 5.17 2.51 9.22 5.67 12.83.4-1.06.93-2 1.42-3 .72 3.73 2.81 6.93 4.78 10.12-7.94-3.85-14.85-10.91-16.67-19.7zm19.51-3.84c-1.39 1.07-2.84-1.3-1.43-2.15 1.22-1.01 2.69 1.35 1.33 2.24zm-1.08-44.34c.77-1.22 2.87.12 1.92 1.33s-2.98-.08-2.02-1.24zm2.65 8.19c1.32-1.1 2.79 1.26 1.43 2.15-1.49 1.16-2.94-1.21-1.53-2.06zm.26 25.31c1.08-1.22 3.9.25 3 1.87-1.26 1.35-4.02-.19-3.1-1.78zm1.37 13.52l-1-3.28c2.19-.28 4.38-.57 6.63-.77-1.93 1.5-3.84 2.84-5.73 4.14zm9-21.41c-1 .41-1.94.85-2.85 1.31 0-1.37 0-2.71.06-4h3c-.11.74-.24 2.1-.31 2.78zm.19-82.45c-1.61.65-2.51-2-.82-2.38 1.42-.62 2.36 2.03.72 2.47zm2.12 69.26c1.64-.17 2.42 2.93.65 3.3-1.94.25-2.65-2.82-.75-3.21zm.07 32.8a371 371 0 0 1-.34-3.31c1.46.47 2.9 1 4.42 1.52zm4.13-19.55c-1.3 1.24-3.42-.88-2.13-2.13s3.16.97 2.03 2.22zm.44-72.62c-1.41.72-2.62-1.68-1.39-2.51s2.49 1.72 1.29 2.6zm2.84 68.29c-1.39 1.07-2.84-1.3-1.43-2.15 1.22-1.01 2.69 1.35 1.33 2.24zm-1.51-36.73v-2.61c.78-.46 1.6-.91 2.46-1.33.12 1.72.26 3.44.45 5.19zm3.43-61.62c1.39-2.2 3.14 1.89.57 1.29-.24-.23-.49-.88-.67-1.2zm2.32 29.48c-1.43.41-1.92-.07-1.45-1.45 1.27-.37 1.74.12 1.34 1.54zm3.26 22.54c-1.33-.69-1.32-1.36 0-2q1.83 1.04-.11 2.09zm1.21-24.61c-1.21 1.39-3.45-.64-2.13-1.93 1-1.2 3.27.73 2.02 2.02zm3-44.18c-1.52 1.23-3.4-1.42-2-2.61s3.19 1.5 1.87 2.7zm2.53-291.52c-1.66.51-2.22 0-1.66-1.66 1.42-.45 2.02.11 1.53 1.75zm1.12 290c2.2.65 4.39 1.3 6.63 2a61.65 61.65 0 0 1-6.43 2zm3.5 15.37c-1.2 1.08-2.56-1-1.32-1.85 1.02-.96 2.36 1.1 1.19 1.96zm-.12 51.63c-.84 1.18-2.94-.11-2-1.32.57-1.06 2.65.21 1.87 1.43zm3.08-18.29c-1.36 1.48-3.65-.84-2.16-2.15 1.14-1.29 3.45.94 2.02 2.26zm-2.84-16.28a46.3 46.3 0 0 1 3.68-3.13c.95 2 1.81 4 2.71 6-2.29-.83-4.43-1.82-6.52-2.76zm6.89-36.83c-1.23 1-2.57-1.13-1.33-1.92 1-.83 2.38 1.21 1.19 2.03zm-1.91-308.15c1.41-.78 2.88-1.54 4.34-2.32q-.36 5.39-.86 10.77a62.64 62.64 0 0 1-3.62-8.34zm4.91 26.43c-.91 1.13-2.88-.34-1.92-1.46s2.66.41 1.78 1.57zm-5.09-34.24a49.27 49.27 0 0 1 5.88-7 71.59 71.59 0 0 0 .2 7.46c-2.18-.07-4.22-.22-6.22-.35zm14.62 27.73c-1.29-1.1-2.53-2.2-3.76-3.29q.3-3.44.89-6.77c1.73-1.11 3.47-2.22 5.24-3.32a23.64 23.64 0 0 1-2.51 13.49zm5.92 169.47c-1.56 0-1.29-2.47.16-2.38s1.07 2.54-.3 2.49zm2.69-170.22c-1.39 1.08-2.84-1.29-1.43-2.15 1.18-.98 2.65 1.37 1.29 2.26zm1.71 84.38a37.75 37.75 0 0 1-1-12.39h2.32c.07 4.29.15 8.57-1.46 12.5zm1.79-17.71c-1.33-.68-1.33-1.36 0-2 1.14.74 1.14 1.41-.14 2.11zm.66-3.75a53.27 53.27 0 0 1 3.35-18.74c.92 6.56-1.22 12.9-3.52 18.85zm4.31-21.84c.56-4.26 1-8.7 3.34-12.4-.52 4.41-.55 9.04-3.49 12.51zm3.95 6.61c.58-3.14.76-6.43 1.52-9.5.69 2.78.79 5.33 1.64 8.19-1.23.55-2.29.98-3.31 1.42z"/><path d="M636.08 919.39q2.1 1.55 4.32 3.07c-.34-1.17-.65-2.31-.93-3.44zm18.38-11.56c1.8-.89 3.63-1.72 5.47-2.56-1.78-.11-3.52-.21-5.24-.28-.06.71-.18 2.13-.23 2.84zm-37.24 19.45a1.76 1.76 0 0 0-1.39-2.79c-2.04.51-.26 3.87 1.39 2.79zm208.02-461.99c3.86-6.81 9.22-12.59 13.32-19.24a145.12 145.12 0 0 0 10.93-23.3c-6.32 8.18-12.26 16.8-20.19 23.56.51-4.59.81-9.3 2.85-13.5a167.26 167.26 0 0 0 12.29-36.1c-4.68 9.05-8.53 18.6-14.78 26.75 1.52-15.49 6.59-30.36 8.83-45.73-2.3 4.91-4.08 10.06-6.65 14.85-1-15.17 1.87-30.08 4.38-44.94-4.09 8.52-6.44 17.71-9.09 26.74.24-6.93.1-13.9-.08-20.81-8.1 34.75-2 71.92-15.23 105.66-4.8 13.47-14.68 24.13-22 36.19 7.77-2.8 16.35-3.25 23.59-7.49 13.29-6.55 21.56-19.6 29.4-31.6 3.84-6.38 8.15-12.58 10.8-19.59-9.2 9.75-16.54 21.56-28.37 28.55zM576.26 920c.42-1.89.87-3.75 1.35-5.6l-3.89-.09c.87 1.89 1.7 3.78 2.54 5.69zm50.33-38c-1.47-.32-2.92-.64-4.33-.91.94 1.36 1.93 2.74 2.94 4.12.42-1.08.89-2.15 1.39-3.21zm370.5-539.71c-8.64-21.43-19-43.87-38.39-57.64-12.29-8.89-24.65-20.07-40.4-21.47-9.77-1-19.27 1.82-28.15 5.51a92.38 92.38 0 0 1 22.72-1.45c-16.95 4.27-35.06 11.26-44.8 26.71 8.5-7.12 17.67-13.77 28.48-16.87 9.09-3.37 18.81-1.94 28.24-1.07-18.33 4.67-36.65 14.5-46.34 31.34 6.7-5.81 12.65-12.8 21-16.39 12.93-7 28.14-8.26 42.44-5.57-6.92 2.17-14.06 3.6-20.85 6.08-11.25 4.56-21.83 11.57-28.7 21.75 4.68-3.46 9.09-7.26 14.24-10.08a64.31 64.31 0 0 1 49.26-6.69c-10.63 2.07-21.63 2.7-31.62 7.24-14.8 5.61-27.8 15.84-35.72 29.69 6.18-5.63 11.74-12 19-16.31 15.31-10 34.26-13.27 52.24-10-22.73 2.16-46.51 8.5-62.48 25.94 7.38-4.86 14.72-9.92 23-13.3a68.8 68.8 0 0 1 51.58-1.27c-26.42.22-55.65 9.29-69.46 33.71 9.2-8.73 19.42-17.25 32.08-20.16 13.38-4.16 27.67-4.32 41.4-1.65-14.89 1.88-30.15 4.18-43.42 11.62-11.2 6.37-23.06 13.06-30.07 24.28 8.89-7.5 18.47-14.21 29.69-17.76 14.76-6.71 31.28-7.82 47.12-4.93-13.73 2.7-27.8 4.65-40.67 10.48-14.2 6.48-28.35 14.85-37.06 28.25 1.79-1.3 3.51-2.7 5.23-4.13 21.37-19.74 53-27.39 81.13-20.66-3 .26-6.6.22-9.41.49-28.28.19-56.61 14-72.35 37.85 14.88-10.58 30.87-20.21 48.8-24.49 17.29-4.29 35.74-3 52.61 2.59a210.62 210.62 0 0 0-10.37-31.64zM628.17 897.64c3.86 1.38 4.63 5.16 3.3 8.72 1-.5 2-1 3.06-1.45-.62-5.09-1.65-10.92-6.82-13.37-2 .76-3.48 2.42-4.93 3.93 1.81 0 3.72 0 5.59-.1a20.38 20.38 0 0 0-.2 2.27zM597.76 6.52c-2.31 3.43 3.91.78 0 0m62.99 14.87c-.87 4 4-.82 0 0m78.96 6.76c-.93 4 4-.92 0 0M727.7 41.39c-.87 4 4-.82 0 0m50.97 11c-.87 4 4-.82 0 0m-308.8 3c-.87 4 4-.82 0 0m350.77 7c-.87 4 4-.82 0 0m-19.01 4.13c-2.32 3.43 3.91.78 0 0m-436.72 5c-2.31 3.43 3.92.78 0 0m50 3.63c-.93 4 4-.92 0 0m-48.98 5.24c-.87 4 4-.82 0 0m19.99 4c-.87 4 4-.82 0 0m464.7 4c-.87 4 4-.82 0 0m-2.99 3c-.87 4 4-.82 0 0m-507.63 24c-.87 4 4-.82 0 0m575.58 12c-.87 4 4-.82 0 0m-669.58 31c-.87 4 4-.82 0 0m-6 19c-.87 4 4-.82 0 0m-41.95 40.76c-.93 4 4-.92 0 0m845.45 5.24c-.87 4 4-.82 0 0m13.99 19c-.87 4 4-.82 0 0m4 18c-.87 4 4-.82 0 0m-64.96 143c-.87 4 4-.82 0 0m191.89 134.76c-.94 4 4-.92 0 0m-130.93 56.24c-.87 4 4-.83 0 0m-5 11c-.87 4 4-.83 0 0m-1020.34 39c-.87 4 4-.83 0 0m1134.27 0c-.87 4 4-.83 0 0m-108.93 4c-.87 4 4-.83 0 0m-1022.34 83c-.87 4 4-.83 0 0m1073.31 4c-.87 4 4-.83 0 0m-1003.35.76c-.93 4 4-.92 0 0m-6 6.24c-.87 4 4-.83 0 0m867.45-.24c-.93 4 4-.92 0 0m160.89 10.24c-.87 4 4-.83 0 0m37.98 2.76c-.94 4 4-.92 0 0m-1034.34 8.24c-.87 4 4-.83 0 0m1029.34.76c-.94 4 4-.92 0 0m-157.89 3c-.93 4 4-.92 0 0m-795.54 4c-.93 4 4-.92 0 0m-58.93 20.24c-.87 4 4-.83 0 0m-65.95 5c-.87 4 4-.83 0 0m5-.24c-.93 4 4-.92 0 0m1063.28 4.37c-2.32 3.42 3.91.77 0 0m-104.9 6.87c-.87 4 4-.83 0 0m41.98 3.76c-.94 4 4-.92 0 0m-960.38 1c-.93 4 4-.92 0 0m-25 3.24c-.87 4 4-.83 0 0m115.9 2c-.87 4 4-.83 0 0m-148.86 1.76c-.93 4 4-.92 0 0m13.99 4c-.93 4 4-.92 0 0m21.97 1.24c-.87 4 4-.83 0 0m108.9 1.76c-.93 4 4-.93 0 0m850.5 1c-.93 4 4-.93 0 0M161 828.52c-2.31 3.42 3.92.77 0 0m422.77 0c-2.31 3.42 3.91.77 0 0m-440.68 3.63c-.93 4 4-.93 0 0m767.5.24c-.87 4 4-.83 0 0m221.85 1c-.87 4 4-.83 0 0m-35.97 1c-.87 4 4-.83 0 0m27.98 7c-.87 4 4-.83 0 0M235 842.52c-2.31 3.42 3.92.77 0 0m419.06 3.17c1.49-3.82-4-.16 0 0m461.39-2.3c-.87 4 4-.83 0 0m-889.45 1c-.87 4 4-.83 0 0m897.45 3c-.87 4 4-.83 0 0m-311.8 3c-.87 4 4-.83 0 0m325.79 2c-.87 4 4-.83 0 0M180 853.52c-2.31 3.42 3.92.77 0 0m965.43-.13c-.87 4 4-.83 0 0m-170.89 1c-.87 4 4-.83 0 0m-832.46 1c-.87 4 4-.83 0 0m953.39 4c-.87 4 4-.83 0 0m2 5c-.87 4 4-.83 0 0m9.96 1.13c-2.32 3.42 3.91.77 0 0m-995.36 6c-2.31 3.42 3.92.77 0 0m507.71.63c-.93 4 4-.93 0 0m414.7.37c-2.32 3.42 3.91.77 0 0m67.98 3.87c-.87 4 4-.83 0 0m23-.24c-.94 4 4-.93 0 0M230 878.39c-.87 4 4-.83 0 0m883.47-.24c-.94 4 4-.93 0 0m-10 5c-.94 4 4-.93 0 0M194 892.39c-.87 4 4-.83 0 0m929.45 0c-.87 4 4-.83 0 0m-467.73 1.13c-2.31 3.42 3.91.77 0 0m274.85 3.87c-.87 4 4-.83 0 0m147.91 8c-.87 4 4-.83 0 0m-812.48 2c-.87 4 4-.83 0 0m-8 2c-.87 4 4-.83 0 0m18 8.76c-.93 4 4-.93 0 0m825.47 1c-.94 4 4-.93 0 0m-925.41 1.24c-.87 4 4-.83 0 0m800.48 1c-.87 4 4-.83 0 0m-838.46 2c-.87 4 4-.83 0 0m953.39 2c-.87 4 4-.83 0 0m-147.91 2c-.87 4 4-.83 0 0m127.89 2.13c-2.32 3.42 3.91.77 0 0M257 939.15c-.93 4 4-.93 0 0m-29 1c-.93 4 4-.93 0 0m812.5 4.24c-.87 4 4-.83 0 0m-886.43 5c-.87 4 4-.83 0 0m796.5 4.76c-.93 4 4-.93 0 0m-794.5 2.24c-.87 4 4-.83 0 0m788.5-.24c-.93 4 4-.93 0 0M170 958.52c-2.31 3.42 3.92.77 0 0m326.82 0c-2.31 3.42 3.91.77 0 0m517.71-.37c-.93 4 4-.93 0 0m-17.02 4.97c-1.13 3.92 4-.46 0 0m-821.44 3.03c-.93 4 4-.93 0 0m883.43 3c-.93 4 4-.93 0 0m-884.44 9.24c-.87 4 4-.83 0 0m835.46 1c-.87 4 4-.83 0 0m-76.94 3.76c-.93 4 4-.93 0 0M241 984.52c-2.31 3.42 3.92.77 0 0m731.55 3.87c-.87 4 4-.83 0 0m-671.55.76c-.93 4 4-.93 0 0m-112 1.37c-2.31 3.42 3.92.77 0 0m703.6-.13c-.87 4 4-.83 0 0m115.92 3c-.87 4 4-.83 0 0M312 996.15c-.93 4 4-.93 0 0m692.52 1.24c-.87 4 4-.83 0 0M241 998.52c-2.31 3.42 3.92.77 0 0m647.6-.13c-.87 4 4-.83 0 0m-169.89 2c-.87 4 4-.83 0 0m-495.71.76c-.93 4 4-.93 0 0m169.89 3.37c-2.31 3.42 3.91.77 0 0m474.73-.37c-.93 4 4-.93 0 0m-679.56 2c-.93 4 4-.93 0 0m69.94 1.24c-.87 4 4-.83 0 0m252.84 2c-.87 4 4-.83 0 0m-187.84.76c-.93 4 4-.93 0 0m34.94 3.24c-.87 4 4-.83 0 0m288.82 10.76c-.93 4 4-.93 0 0m349.77 1.24c-.87 4 4-.83 0 0m-598.61.76c-.93 4 4-.93 0 0m616.6 1.24c-.87 4 4-.83 0 0m-637.59 4c-.87 4 4-.83 0 0m130.92-.24c-.93 4 4-.93 0 0m-237.85 6c-.93 4 4-.93 0 0m731.54 2c-.93 4 4-.93 0 0m-42.99 3.24c-.87 4 4-.83 0 0m-314.82 5.13c-2.31 3.42 3.91.77 0 0m196.87 1c-2.32 3.42 3.91.77 0 0m-490.6 2.63c-.93 4 4-.93 0 0m87.89.24c-.87 4 4-.83 0 0m331.79 1c-.87 4 4-.83 0 0m153.91.76c-.93 4 4-.93 0 0m-577.59 9c-.93 4 4-.93 0 0m509.63 0c-.93 4 4-.93 0 0M257 1063.52c-2.31 3.42 3.92.77 0 0m2 4.63c-.93 4 4-.93 0 0m433.73 7.24c-.87 4 4-.83 0 0m135.92-.24c-.93 4 4-.93 0 0m-89.94 4c-.93 4 4-.93 0 0m184.87.24c-.87 4 4-.83 0 0m-486.69 5c-.87 4 4-.83 0 0m409.74 2c-.87 4 4-.83 0 0m-313.8 16c-.87 4 4-.83 0 0m-160.9 6c-.87 4 4-.83 0 0m228.86 9.76c-.93 4 4-.93 0 0m72.95 10.24c-.87 4 4-.83 0 0m-106.92 1.76c-.93 4 4-.93 0 0m46.96 6.24c-.87 4 4-.83 0 0m-135.91 6.76c-.93 4 4-.93 0 0m227.86 2c-.93 4 4-.93 0 0m-175.9 3.24c-.87 4 4-.83 0 0m115.93 0c-.87 4 4-.83 0 0m-127.92 11c-.87 4 4-.83 0 0m258.83 6c-.87 4 4-.83 0 0m-337.78 6c-.87 4 4-.83 0 0m152.9 4c-.87 4 4-.83 0 0m100.95 2.76c-.93 4 4-.93 0 0m-189.88 1c-.93 4 4-.93 0 0m83.93-368.76c4-.83-.87 4 0 0m10.01 36.76c4-.93-.93 4 0 0m26.98 9c4-.93-.93 4 0 0m-28.99 37.24c4-.83-.87 4 0 0m-28.98 8c4-.83-.87 4 0 0m5.99 7c4-.83-.87 4 0 0m48.85 7.49c-.8-4 4 1 0 0m23.12-1.73c4-.93-.93 4 0 0m-32.99 11.24c4-.83-.87 4 0 0"/></g></g></svg>